<svg width="42" height="24" viewBox="0 0 42 24" fill="none" xmlns="http://www.w3.org/2000/svg">
<path d="M7.92401 12.63V15.33C7.92401 16.023 8.26001 16.36 8.95301 16.36H9.25401C9.94701 16.36 10.283 16.023 10.283 15.33V14.008H11.865V15.275C11.865 17.011 10.99 17.907 9.23301 17.907H8.89702C7.16102 17.907 6.26501 17.032 6.26501 15.485V8.85C6.26501 6.91 7.14002 6.014 8.89702 6.014H9.23301C10.969 6.014 11.865 6.889 11.865 8.646V12.616H7.93102V12.629H7.92401V12.63ZM7.92401 11.04H10.255V8.576C10.255 7.883 9.91901 7.547 9.22601 7.547H8.96701C8.27401 7.547 7.93801 7.883 7.93801 8.577V11.04H7.92401ZM12.943 6.154H14.581V6.903C14.8361 6.62849 15.1447 6.40921 15.4878 6.25871C15.831 6.10821 16.2013 6.02969 16.576 6.028C17.976 6.028 18.662 6.958 18.662 8.324V15.597C18.662 16.976 17.969 17.893 16.576 17.893C16.2041 17.8942 15.8358 17.8204 15.493 17.6761C15.1502 17.5318 14.8401 17.3199 14.581 17.053V20.805H12.943V6.154ZM14.581 15.744C15.029 16.136 15.554 16.339 16.093 16.339C16.688 16.339 17.045 16.059 17.045 15.387V8.527C17.045 7.855 16.709 7.575 16.093 7.575C15.554 7.575 15.029 7.799 14.581 8.17V15.744ZM19.656 13.728C19.656 12.293 20.125 11.712 21.371 11.285L23.569 10.536V8.576C23.569 7.883 23.233 7.512 22.54 7.512H22.281C21.588 7.512 21.252 7.883 21.252 8.576V10.214H19.67V8.632C19.67 6.896 20.545 6 22.302 6H22.617C24.353 6 25.249 6.875 25.249 8.632V17.753H23.611V17.025C23.163 17.452 22.547 17.886 21.616 17.886C20.307 17.886 19.698 17.137 19.698 15.835V13.728H19.656ZM23.576 15.8V11.978L22.085 12.538C21.49 12.783 21.28 13.077 21.28 13.749V15.52C21.28 16.08 21.56 16.36 22.085 16.36C22.582 16.339 23.03 16.171 23.576 15.8ZM31.815 17.76H30.177V8.415C30.177 7.834 29.897 7.575 29.393 7.575C28.945 7.575 28.462 7.743 27.881 8.155V17.76H26.243V6.154H27.881V6.903C28.35 6.455 28.98 6.028 29.876 6.028C30.716 6.028 31.276 6.364 31.57 6.98C32.15 6.476 32.837 6.028 33.789 6.028C35.056 6.028 35.707 6.812 35.707 8.078V17.774H34.069V8.414C34.069 7.834 33.789 7.574 33.285 7.574C32.837 7.574 32.354 7.743 31.773 8.156V17.76H31.815Z" fill="#1B191B"/>
<path d="M4.193 7.21802V9.36002L1.449 11.97L4.193 14.547V16.731L0 12.776V11.208L4.193 7.21802ZM42 11.208V12.776L37.807 16.731V14.547L40.551 11.971L37.807 9.34602V7.21802L42 11.208Z" fill="#00B5D1"/>
</svg>
