<svg width="80" height="80" viewBox="0 0 80 80" xmlns="http://www.w3.org/2000/svg" fill="#009DC4">
    <path d="M53.84 48V52.8c0 .53.37 1.07 1.12 1.64.84.64 2.2 1.28 3.82 1.8 3.46 1.12 8.23 1.78 13.22 1.78.5 0 .99 0 1.48-.02a37.9 37.9 0 0 0 2.84-6.8c-1.4.1-2.84.16-4.32.16a50.5 50.5 0 0 1-11.45-1.22l1.53-1.54c2.93.59 6.37.92 9.92.92 1.66 0 3.29-.07 4.85-.2.55-2.19.91-4.45 1.07-6.76a56.94 56.94 0 0 1-11.47.04 2.66 2.66 0 0 0-1.06-1.66l-.47-.48a54.25 54.25 0 0 0 13.08.13V40c0-2.05-.16-4.05-.47-6.01-1.77.17-3.63.26-5.53.26-5.22 0-10.07-.67-13.76-1.86a18.86 18.86 0 0 1-2.82-1.13l-.3-.15-1.28-.7v5.29c0 .2.05.4.16.6V38h-2V27.13l.01-.22c.1-1.13.77-2.14 1.87-2.97a14.46 14.46 0 0 1 4.36-2.1C61.9 20.66 66.75 20 72 20h.32A37.98 37.98 0 0 0 40 2 37.99 37.99 0 0 0 7.02 21.1c.98.22 1.9.47 2.74.74 1.88.6 3.3 1.28 4.37 2.1 1.12.85 1.78 1.88 1.85 3l.02.16V38a2 2 0 0 0-1.84 1.21v-.2l-1.29.71c-.84.47-1.85.88-3.1 1.28-2.21.71-4.83 1.24-7.69 1.54.15 2.24.5 4.42 1 6.53 2.3-.3 4.39-.76 6.14-1.32a13.41 13.41 0 0 0 3.82-1.8c.46-.36.79-.7.96-1.03V46c0 1.1.9 2 2 2v4.88c0 1.18-.66 2.24-1.87 3.16a14.45 14.45 0 0 1-4.37 2.09c-.85.28-1.77.53-2.75.74A37.98 37.98 0 0 0 40 78c13.65 0 25.62-7.2 32.32-18H72c-5.2 0-10.05-.67-13.76-1.87-1.12-.36-2.1-.8-3.1-1.35-2.03-1.32-3.05-2.63-3.13-3.89V48h1.83zm-39.68-.49l-1.29.7c-.84.47-1.85.88-3.1 1.29a36.9 36.9 0 0 1-6.2 1.36 37.68 37.68 0 0 0 2.47 6.2c1.15-.23 2.21-.5 3.18-.81a13.41 13.41 0 0 0 3.82-1.81c.69-.53 1.06-1.02 1.11-1.48l.01-.12v-5.33zm64.75 1.8v-.02.02zm-78.84-7v.06-.06zm14.1-11.9l-1.3.7c-.84.47-1.85.88-3.1 1.28-2.1.68-4.58 1.19-7.28 1.5a38.15 38.15 0 0 0-.49 6.7c2.72-.3 5.2-.8 7.22-1.45a13.41 13.41 0 0 0 3.82-1.8c.69-.54 1.06-1.03 1.11-1.49l.01-.11V30.4zM.52 33.47v.02zM72 21.95c-5.02 0-9.79.65-13.22 1.75a13.41 13.41 0 0 0-3.82 1.81c-.74.57-1.12 1.13-1.12 1.62 0 .49.37 1.02 1.12 1.6.84.63 2.2 1.28 3.82 1.8 3.46 1.11 8.23 1.77 13.22 1.77 1.77 0 3.5-.08 5.17-.24a37.8 37.8 0 0 0-3.71-10.09L72 21.95zm-65.94.94l-.09.17a37.73 37.73 0 0 0-3.1 8.81c2.37-.3 4.54-.76 6.35-1.34a13.41 13.41 0 0 0 3.82-1.8c.75-.58 1.12-1.11 1.12-1.6 0-.5-.37-1.05-1.12-1.62-.84-.64-2.2-1.28-3.82-1.8-.96-.31-2.02-.59-3.16-.82zm72.85 26.4l.01-.04v-.02.06zM80 40.45v.06-.06zm0 0v.17-.03.08-.03.17l-.02.3a39.23 39.23 0 0 1-.85 7.24l-.17.73v.04l-.04.13v.04l-.01.02-.01.05v-.05.07-.02.03l-.12.44a39.58 39.58 0 0 1-3 8.06l-.02.05-.01.03-.01.02-.02.02-.02.05-.04.07-.05.1-.02.05v.01l-.03.04-.22.43a40.79 40.79 0 0 1-.3.55 40 40 0 0 1-73.4-7.94l-.08-.28-.02-.07V51l-.02-.05v-.02l-.02-.05v-.02l-.02-.06-.01-.04-.02-.05v-.01l-.01-.05-.1-.35a23.68 23.68 0 0 1-.26-1 39.9 39.9 0 0 1-.92-5.74l-.07-.84v-.08l-.01-.12v.02V42.45l-.01-.06v-.02a39.09 39.09 0 0 1-.05-1.08v-.26L0 40.9v-.14a40.8 40.8 0 0 1 .42-6.68v-.03l.01-.03V34l.01-.01.01-.07v-.02l.01-.05v-.03l.01-.04v-.04l.02-.04v-.01l.01-.09a40.5 40.5 0 0 1 .16-.9V32.62l.02-.06v-.01l-.02.15a39.81 39.81 0 0 1 3.3-10.11l.11-.21-.03.07.1-.21.03-.06.04-.08.01-.03v-.01l.02-.03.02-.04.01-.01.01-.03.06-.1a35.85 35.85 0 0 1 .35-.68l.18-.33.07-.14a39.99 39.99 0 0 1 69.6-.88l.15.26.02.04.08.15.01.02.06.1-.03-.06.04.07.04.08.15.26a38.48 38.48 0 0 1 .7 1.33c1.5 3 2.65 6.22 3.36 9.6l.04.17.02.13v.01l.02.08v.03l.01.03v.01l.02.05v.06l.01.02v.03l.06.27.08.41.04.26A38.8 38.8 0 0 1 80 40V40.45z"
          fill="#BDC7CC"/>
    <path d="M16 46v-6h40v-4.5c0-.37.08-.5.45-.5.1 0 .2.02.3.07l7.38 7.43a.67.67 0 0 1 0 1.2l-7.38 7.43c-.34.16-.58.2-.75-.13-.05-.1 0-.4 0-.5V46H16z"
    />
</svg>
