<svg width="450" height="396" viewBox="0 0 450 396" fill="none" xmlns="http://www.w3.org/2000/svg">
<g id="Illustration 1">
<g id="Planet">
<path id="Path" opacity="0.515439" d="M413.462 390.259C337.695 396.92 288.106 396.375 233.729 395.457C179.352 394.539 180.754 389.809 140.359 390.259C117.039 390.519 75.9467 388.892 69.3617 386.64C62.8951 384.429 78.6576 381.268 133.948 380.51C175.007 379.947 179.911 375.537 220.829 372.758C249.759 370.793 346.756 372.847 366.383 376.627C386.01 380.408 390.61 376.329 429.628 380.51C468.646 384.691 445.09 387.479 413.462 390.259Z" fill="#A3B4BF"/>
<circle id="Oval" cx="227.85" cy="233.567" r="151.9" fill="#008BB5"/>
<path id="Subtract" fill-rule="evenodd" clip-rule="evenodd" d="M196 377.3C288.913 377.3 364.233 301.797 364.233 208.658C364.233 186.832 360.097 165.974 352.567 146.83C369.702 171.422 379.75 201.321 379.75 233.567C379.75 317.459 311.742 385.467 227.85 385.467C209.232 385.467 191.397 382.117 174.913 375.988C181.821 376.854 188.858 377.3 196 377.3Z" fill="#017292"/>
<ellipse id="Oval_2" cx="270.031" cy="331.197" rx="26.8832" ry="22.9131" transform="rotate(-8.36531 270.031 331.197)" fill="#004969"/>
<ellipse id="Oval_3" cx="272.835" cy="333.568" rx="24.3531" ry="20.7566" transform="rotate(-8.36531 272.835 333.568)" fill="url(#paint0_linear_3621_56682)"/>
<ellipse id="Oval_4" cx="146.592" cy="174.358" rx="26.5417" ry="26.5417" transform="rotate(180 146.592 174.358)" fill="#004969"/>
<ellipse id="Oval_5" cx="150.267" cy="176.4" rx="22.8667" ry="22.8667" transform="rotate(-180 150.267 176.4)" fill="url(#paint1_linear_3621_56682)"/>
<ellipse id="Oval_6" cx="126.857" cy="282.783" rx="13.8833" ry="16.3333" transform="rotate(-17.9468 126.857 282.783)" fill="#004969"/>
<ellipse id="Oval_7" cx="129.37" cy="285.135" rx="12.6968" ry="14.8976" transform="rotate(-17.9468 129.37 285.135)" fill="url(#paint2_linear_3621_56682)"/>
<ellipse id="Oval_8" cx="221.317" cy="114.333" rx="8.98333" ry="8.16667" fill="#004969"/>
<ellipse id="Oval_9" cx="222.133" cy="115.558" rx="8.16667" ry="7.75833" fill="url(#paint3_linear_3621_56682)"/>
<ellipse id="Oval_10" cx="327.076" cy="267.746" rx="13.8833" ry="11.025" transform="rotate(-27.521 327.076 267.746)" fill="#004969"/>
<ellipse id="Oval_11" cx="328.749" cy="268.882" rx="12.5346" ry="10.1844" transform="rotate(-34.6463 328.749 268.882)" fill="url(#paint4_linear_3621_56682)"/>
<ellipse id="Oval_12" cx="228.667" cy="242.55" rx="21.2333" ry="20.4167" fill="#004969"/>
<circle id="Oval_13" cx="231.117" cy="244.183" r="18.7833" fill="url(#paint5_linear_3621_56682)"/>
<ellipse id="Oval_14" cx="302.167" cy="165.783" rx="31.85" ry="28.5833" fill="#004969"/>
<ellipse id="Oval_15" cx="305.842" cy="168.233" rx="28.175" ry="26.1333" fill="url(#paint6_linear_3621_56682)"/>
<circle id="Oval_16" cx="169.458" cy="339.638" r="6.125" fill="#00678C"/>
<circle id="Oval_17" cx="170.275" cy="339.638" r="5.30833" fill="#29C5DD"/>
<circle id="Oval_18" cx="170.275" cy="339.638" r="5.30833" fill="#009DC4"/>
</g>
<g id="Satellite 1">
<circle id="Oval_19" cx="379.75" cy="30.2167" r="30.2167" fill="#008BB5"/>
<path id="Subtract_2" fill-rule="evenodd" clip-rule="evenodd" d="M372.808 54.7167C390.624 54.7167 405.067 40.2742 405.067 22.4584C405.067 18.3407 404.295 14.4033 402.889 10.7827C407.306 16.0363 409.967 22.8158 409.967 30.2167C409.967 46.9049 396.438 60.4334 379.75 60.4334C371.141 60.4334 363.373 56.8334 357.87 51.0567C362.336 53.3945 367.418 54.7167 372.808 54.7167Z" fill="#017292"/>
<path id="Path 3" fill-rule="evenodd" clip-rule="evenodd" d="M362.236 38.1795C362.236 38.1795 356.775 27.2405 368.263 26.3429C379.75 25.4453 382.001 24.8934 382.772 21.7467C383.543 18.6 384.948 14.3938 389.667 14.7662C394.385 15.1385 402.703 13.1034 402.703 13.1034V10.5113L404.395 12.7756C404.395 12.7756 405.529 15.034 403.659 15.4483C401.79 15.8626 398.614 17.0164 396.048 16.6705C393.481 16.3245 389.636 15.8458 388.19 17.1361C386.743 18.4263 386.169 19.7911 385.551 23.067C384.934 26.3429 378.43 28.2556 373.735 28.2556C369.04 28.2556 365.178 28.458 364.223 30.2167C363.268 31.9754 362.834 34.4658 363.524 35.7595C364.214 37.0532 366.715 45.4809 362.236 46.4039C357.758 47.3269 355.475 48.2802 355.475 48.2802L354.53 46.9152C354.53 46.9152 358.146 46.3869 361.199 44.9489C364.252 43.5108 362.236 38.1795 362.236 38.1795Z" fill="#9CD7E6"/>
<path id="Path 3_2" fill-rule="evenodd" clip-rule="evenodd" d="M402.999 39.753C400.153 42.8419 399.615 45.2461 395.46 45.2461C391.305 45.2461 390.278 45.4909 389.558 48.6381C389.01 51.0354 386.779 50.2432 385.206 52.1476C384.01 53.5964 386.779 58.9547 382.305 58.9547C379.239 58.9547 380.175 58.669 379.3 58.9547C378.424 59.2404 378.202 60.4333 378.202 60.4333L376.395 60.2507C376.395 60.2507 376.247 58.698 377.31 57.9508C378.372 57.2036 379.953 56.4185 382.305 56.7195C384.657 57.0206 382.478 52.1196 383.414 51.2854C384.349 50.4511 386.556 49.2602 386.955 47.142C387.354 45.0239 388.866 42.8557 391.902 42.8557C394.937 42.8557 397.887 43.9929 398.504 42.8557C399.122 41.7186 398.726 40.2041 402.119 37.1636C405.512 34.123 409.53 35.2793 409.53 35.2793L409.15 37.1636C409.15 37.1636 405.845 36.6642 402.999 39.753Z" fill="#9CD7E6"/>
<path id="Path 3_3" fill-rule="evenodd" clip-rule="evenodd" d="M372.746 6.21368C372.746 6.21368 375.395 11.5061 369.824 11.9404C364.253 12.3747 363.162 12.6417 362.788 14.1641C362.414 15.6865 361.753 18.3974 359.465 18.2173C357.176 18.0371 354.856 18.7616 354.199 18.9754C353.543 19.1892 350.68 22.1421 350.68 22.1421L351.634 18.9754C351.634 18.9754 351.806 18.1005 352.603 17.5414C353.4 16.9823 354.586 16.3948 356.35 16.62C358.114 16.8453 359.459 17.019 360.16 16.3948C360.862 15.7706 361.141 15.1103 361.44 13.5253C361.739 11.9404 364.893 11.015 367.17 11.015C369.447 11.015 371.32 10.9171 371.783 10.0662C372.246 9.21532 372.456 8.01043 372.122 7.38452C371.787 6.75861 370.575 2.6812 372.746 2.23463C374.918 1.78806 376.886 0.136375 376.886 0.136375L378.217 0.040802C378.217 0.040802 377.353 2.63078 374.801 3.02168C372.248 3.41257 372.746 6.21368 372.746 6.21368Z" fill="#9CD7E6"/>
</g>
<g id="Cat">
<path id="Path_2" opacity="0.6" d="M177.625 103.308C194.775 103.308 186.023 129.505 185.973 137.024C185.927 144.062 189.467 147 189.467 147C198.263 148.871 193.62 133.134 199.59 117.477C206.032 100.581 202.746 98.0274 207.433 96.775C207.433 96.775 231.822 96.0115 248.267 96.775C265.147 97.5588 289.1 105.911 289.1 105.911C290.938 119.398 294.893 150.553 271.942 166.352C259.221 175.108 246.536 155.342 215.506 167.081C175.492 182.219 199.471 219.501 228.098 219.689C256.725 219.877 289.27 207.166 299.95 176.986C306.455 158.601 309.4 147.802 302.575 112.7C301.456 106.943 300.942 105.758 298.492 99.225L220.281 71.818L148.307 94.8652C148.307 94.8652 147.564 102.161 149.069 105.911C150.713 110.006 156.405 111.241 163.742 108.208C171.078 105.176 173.482 105.372 177.625 103.308Z" fill="#464547"/>
<path id="Path_3" d="M183.695 133.99C183.695 126.616 188.81 92.0803 173.197 100.01C169.16 102.061 165.278 104.701 158.123 107.722C148.163 111.927 143.049 103.946 138.742 94.6169C136.03 88.7424 131.395 77.026 130.667 72.9333L144.636 79.4308C145.443 76.6246 154.849 72.9333 159.156 72.9333C160.771 67.27 161.548 65.4092 164.314 58.101C164.314 58.101 169.429 68.6184 173.197 75.7394C237.262 14.9527 285.984 41.1114 295.406 84.799C306.014 133.99 302.674 151.409 295.406 172.444C285.156 202.109 253.413 214.783 225.419 214.783C197.424 214.783 173.736 178.377 212.767 163.275C243.035 151.564 255.567 170.865 267.949 162.196C290.291 146.555 286.792 111.337 284.908 98.1227C284.908 98.1227 259.427 93.5493 242.915 92.8894C226.83 92.2466 201.731 94.6169 201.731 94.6169C197.154 95.8752 203.076 98.1227 196.885 114.733C191.148 130.125 197.424 148.443 188.81 146.665C188.81 146.665 183.695 140.892 183.695 133.99Z" fill="#464547"/>
<path id="Path 2" d="M270.317 60.7318C270.317 60.7318 256.437 53.3857 245.853 60.7318C235.268 68.0779 245.853 83.9279 245.853 83.9279C245.853 83.9279 231.334 80.5354 229.587 83.9279C227.839 87.3205 228.861 91.4048 228.861 91.4048" stroke="#8B878D"/>
<path id="Oval_20" d="M151.207 91.9119C151.245 91.9802 151.273 92.1505 151.1 92.4417C150.934 92.7208 150.624 93.0271 150.194 93.2651C149.765 93.5032 149.34 93.6043 149.016 93.597C148.677 93.5893 148.548 93.475 148.51 93.4067C148.472 93.3385 148.444 93.1682 148.617 92.877C148.783 92.5979 149.093 92.2916 149.523 92.0535C149.952 91.8154 150.376 91.7144 150.701 91.7217C151.04 91.7293 151.169 91.8437 151.207 91.9119Z" fill="#D8D8D8" stroke="#979797"/>
<path id="Oval_21" d="M165.944 83.8169C165.978 83.887 165.998 84.0586 165.81 84.3403C165.629 84.6104 165.303 84.9 164.862 85.1152C164.421 85.3305 163.992 85.4092 163.668 85.3849C163.33 85.3596 163.207 85.2386 163.173 85.1685C163.138 85.0984 163.119 84.9268 163.307 84.645C163.487 84.375 163.813 84.0854 164.255 83.8701C164.696 83.6549 165.125 83.5761 165.449 83.6004C165.786 83.6258 165.91 83.7467 165.944 83.8169Z" fill="#D8D8D8" stroke="#979797"/>
</g>
<g id="Satellite 2">
<g id="Group 3">
<circle id="Oval_22" cx="30.1301" cy="333.411" r="15.8026" fill="#008BB5"/>
<path id="Subtract_3" fill-rule="evenodd" clip-rule="evenodd" d="M26.5 346.223C35.8172 346.223 43.3703 338.67 43.3703 329.353C43.3703 327.2 42.9668 325.141 42.2314 323.247C44.5414 325.995 45.9328 329.54 45.9328 333.411C45.9328 342.138 38.8578 349.213 30.1302 349.213C25.6281 349.213 21.5657 347.33 18.6874 344.309C21.0232 345.532 23.6808 346.223 26.5 346.223Z" fill="#017292"/>
</g>
<path id="Subtract_4" fill-rule="evenodd" clip-rule="evenodd" d="M56.945 316.473C59.3653 320.98 48.6561 331.438 33.0255 339.831C17.3948 348.224 2.76162 351.374 0.341339 346.866C-1.55642 343.332 4.61811 336.139 14.908 329.152C14.736 329.768 14.6004 330.4 14.5037 331.044C8.11937 336.024 4.61514 341.003 6.10238 343.773C8.23792 347.75 19.8565 345.665 32.0531 339.116C44.2497 332.567 52.4059 324.034 50.2703 320.057C48.9335 317.567 43.8806 317.453 37.2961 319.322C36.6072 318.971 35.8892 318.669 35.1466 318.421C46.19 314.047 55.1033 313.043 56.945 316.473Z" fill="#9CD7E6"/>
</g>
</g>
<defs>
<linearGradient id="paint0_linear_3621_56682" x1="252.874" y1="323.02" x2="288.082" y2="349.443" gradientUnits="userSpaceOnUse">
<stop stop-color="#019DC4"/>
<stop offset="1" stop-color="#008BB5"/>
</linearGradient>
<linearGradient id="paint1_linear_3621_56682" x1="131.524" y1="164.779" x2="168.26" y2="189.145" gradientUnits="userSpaceOnUse">
<stop stop-color="#01B6CF"/>
<stop offset="1" stop-color="#009DC4"/>
</linearGradient>
<linearGradient id="paint2_linear_3621_56682" x1="117.936" y1="288.889" x2="139.56" y2="290.241" gradientUnits="userSpaceOnUse">
<stop stop-color="#009DC4"/>
<stop offset="1" stop-color="#01B6CF"/>
</linearGradient>
<linearGradient id="paint3_linear_3621_56682" x1="215.439" y1="111.616" x2="228.14" y2="120.483" gradientUnits="userSpaceOnUse">
<stop stop-color="#009DC4"/>
<stop offset="1" stop-color="#01B6CF"/>
</linearGradient>
<linearGradient id="paint4_linear_3621_56682" x1="320.083" y1="261.743" x2="326.465" y2="280.448" gradientUnits="userSpaceOnUse">
<stop stop-color="#009DC4"/>
<stop offset="1" stop-color="#01B6CF"/>
</linearGradient>
<linearGradient id="paint5_linear_3621_56682" x1="215.721" y1="234.638" x2="245.897" y2="254.653" gradientUnits="userSpaceOnUse">
<stop stop-color="#009DC4"/>
<stop offset="1" stop-color="#01B6CF"/>
</linearGradient>
<linearGradient id="paint6_linear_3621_56682" x1="282.747" y1="154.952" x2="325.873" y2="185.791" gradientUnits="userSpaceOnUse">
<stop stop-color="#009DC4"/>
<stop offset="1" stop-color="#01B6CF"/>
</linearGradient>
</defs>
</svg>
