<svg width="1613" height="1169" viewBox="0 0 1613 1169" fill="none" xmlns="http://www.w3.org/2000/svg">
<g clip-path="url(#clip0_1097_3559)">
<rect width="1613" height="1169" fill="url(#paint0_linear_1097_3559)"/>
<g opacity="0.4">
<path opacity="0.05" d="M1570.75 1172.07C1572.58 1174.64 1576.49 1174.64 1578.32 1172.07L1589.9 1155.75C1590.99 1154.22 1590.99 1152.18 1589.9 1150.64L1578.32 1134.33C1576.49 1131.75 1572.58 1131.75 1570.75 1134.33L1559.18 1150.64C1558.09 1152.18 1558.09 1154.22 1559.18 1155.75L1570.75 1172.07Z" fill="#009DC4"/>
<path opacity="0.05" d="M1570.75 1112.07C1572.58 1114.64 1576.49 1114.64 1578.32 1112.07L1589.9 1095.75C1590.99 1094.22 1590.99 1092.18 1589.9 1090.64L1578.32 1074.33C1576.49 1071.75 1572.58 1071.75 1570.75 1074.33L1559.18 1090.64C1558.09 1092.18 1558.09 1094.22 1559.18 1095.75L1570.75 1112.07Z" fill="#009DC4"/>
<path opacity="0.05" d="M1570.75 1052.07C1572.58 1054.64 1576.49 1054.64 1578.32 1052.07L1589.9 1035.75C1590.99 1034.22 1590.99 1032.18 1589.9 1030.64L1578.32 1014.33C1576.49 1011.75 1572.58 1011.75 1570.75 1014.33L1559.18 1030.64C1558.09 1032.18 1558.09 1034.22 1559.18 1035.75L1570.75 1052.07Z" fill="#009DC4"/>
<path opacity="0.05" d="M1570.75 992.066C1572.58 994.645 1576.49 994.645 1578.32 992.066L1589.9 975.754C1590.99 974.216 1590.99 972.18 1589.9 970.643L1578.32 954.33C1576.49 951.752 1572.58 951.752 1570.75 954.33L1559.18 970.643C1558.09 972.18 1558.09 974.216 1559.18 975.754L1570.75 992.066Z" fill="#009DC4"/>
<path opacity="0.05" d="M1570.75 932.066C1572.58 934.645 1576.49 934.645 1578.32 932.066L1589.9 915.754C1590.99 914.216 1590.99 912.18 1589.9 910.643L1578.32 894.33C1576.49 891.752 1572.58 891.752 1570.75 894.33L1559.18 910.643C1558.09 912.18 1558.09 914.216 1559.18 915.754L1570.75 932.066Z" fill="#009DC4"/>
<path opacity="0.05" d="M1570.75 872.066C1572.58 874.645 1576.49 874.645 1578.32 872.066L1589.9 855.754C1590.99 854.216 1590.99 852.18 1589.9 850.643L1578.32 834.33C1576.49 831.752 1572.58 831.752 1570.75 834.33L1559.18 850.643C1558.09 852.18 1558.09 854.216 1559.18 855.754L1570.75 872.066Z" fill="#009DC4"/>
<path opacity="0.05" d="M1570.75 812.066C1572.58 814.645 1576.49 814.645 1578.32 812.066L1589.9 795.754C1590.99 794.216 1590.99 792.18 1589.9 790.643L1578.32 774.33C1576.49 771.752 1572.58 771.752 1570.75 774.33L1559.18 790.643C1558.09 792.18 1558.09 794.216 1559.18 795.754L1570.75 812.066Z" fill="#009DC4"/>
<path opacity="0.05" d="M1570.75 752.066C1572.58 754.645 1576.49 754.645 1578.32 752.066L1589.9 735.754C1590.99 734.216 1590.99 732.18 1589.9 730.643L1578.32 714.33C1576.49 711.752 1572.58 711.752 1570.75 714.33L1559.18 730.643C1558.09 732.18 1558.09 734.216 1559.18 735.754L1570.75 752.066Z" fill="#009DC4"/>
<path opacity="0.05" d="M1570.75 692.066C1572.58 694.645 1576.49 694.645 1578.32 692.066L1589.9 675.754C1590.99 674.216 1590.99 672.18 1589.9 670.643L1578.32 654.33C1576.49 651.752 1572.58 651.752 1570.75 654.33L1559.18 670.643C1558.09 672.18 1558.09 674.216 1559.18 675.754L1570.75 692.066Z" fill="#009DC4"/>
<path opacity="0.05" d="M1570.75 632.066C1572.58 634.645 1576.49 634.645 1578.32 632.066L1589.9 615.754C1590.99 614.216 1590.99 612.18 1589.9 610.643L1578.32 594.33C1576.49 591.752 1572.58 591.752 1570.75 594.33L1559.18 610.643C1558.09 612.18 1558.09 614.216 1559.18 615.754L1570.75 632.066Z" fill="#009DC4"/>
<path opacity="0.05" d="M1570.75 572.066C1572.58 574.645 1576.49 574.645 1578.32 572.066L1589.9 555.754C1590.99 554.216 1590.99 552.18 1589.9 550.643L1578.32 534.33C1576.49 531.752 1572.58 531.752 1570.75 534.33L1559.18 550.643C1558.09 552.18 1558.09 554.216 1559.18 555.754L1570.75 572.066Z" fill="#009DC4"/>
<path opacity="0.05" d="M1570.75 512.066C1572.58 514.645 1576.49 514.645 1578.32 512.066L1589.9 495.754C1590.99 494.216 1590.99 492.18 1589.9 490.643L1578.32 474.33C1576.49 471.752 1572.58 471.752 1570.75 474.33L1559.18 490.643C1558.09 492.18 1558.09 494.216 1559.18 495.754L1570.75 512.066Z" fill="#009DC4"/>
<path opacity="0.08" d="M1570.75 452.066C1572.58 454.645 1576.49 454.645 1578.32 452.066L1589.9 435.754C1590.99 434.216 1590.99 432.18 1589.9 430.643L1578.32 414.33C1576.49 411.752 1572.58 411.752 1570.75 414.33L1559.18 430.643C1558.09 432.18 1558.09 434.216 1559.18 435.754L1570.75 452.066Z" fill="#009DC4"/>
<path opacity="0.1" d="M1570.75 392.066C1572.58 394.645 1576.49 394.645 1578.32 392.066L1589.9 375.754C1590.99 374.216 1590.99 372.18 1589.9 370.643L1578.32 354.33C1576.49 351.752 1572.58 351.752 1570.75 354.33L1559.18 370.643C1558.09 372.18 1558.09 374.216 1559.18 375.754L1570.75 392.066Z" fill="#009DC4"/>
<path opacity="0.1" d="M1570.75 332.066C1572.58 334.645 1576.49 334.645 1578.32 332.066L1589.9 315.754C1590.99 314.216 1590.99 312.18 1589.9 310.643L1578.32 294.33C1576.49 291.752 1572.58 291.752 1570.75 294.33L1559.18 310.643C1558.09 312.18 1558.09 314.216 1559.18 315.754L1570.75 332.066Z" fill="#009DC4"/>
<path opacity="0.3" d="M1570.75 272.066C1572.58 274.645 1576.49 274.645 1578.32 272.066L1589.9 255.754C1590.99 254.216 1590.99 252.18 1589.9 250.643L1578.32 234.33C1576.49 231.752 1572.58 231.752 1570.75 234.33L1559.18 250.643C1558.09 252.18 1558.09 254.216 1559.18 255.754L1570.75 272.066Z" fill="#009DC4"/>
<path opacity="0.5" d="M1570.75 212.066C1572.58 214.645 1576.49 214.645 1578.32 212.066L1589.9 195.754C1590.99 194.216 1590.99 192.18 1589.9 190.643L1578.32 174.33C1576.49 171.752 1572.58 171.752 1570.75 174.33L1559.18 190.643C1558.09 192.18 1558.09 194.216 1559.18 195.754L1570.75 212.066Z" fill="#009DC4"/>
<path opacity="0.6" d="M1570.75 152.066C1572.58 154.645 1576.49 154.645 1578.32 152.066L1589.9 135.754C1590.99 134.216 1590.99 132.18 1589.9 130.643L1578.32 114.33C1576.49 111.752 1572.58 111.752 1570.75 114.33L1559.18 130.643C1558.09 132.18 1558.09 134.216 1559.18 135.754L1570.75 152.066Z" fill="#009DC4"/>
<path opacity="0.8" d="M1570.75 92.0659C1572.58 94.6447 1576.49 94.6447 1578.32 92.0659L1589.9 75.7537C1590.99 74.2162 1590.99 72.18 1589.9 70.6426L1578.32 54.3303C1576.49 51.7515 1572.58 51.7515 1570.75 54.3303L1559.18 70.6426C1558.09 72.18 1558.09 74.2162 1559.18 75.7537L1570.75 92.0659Z" fill="#009DC4"/>
<path d="M1570.75 32.6694C1572.58 35.2482 1576.49 35.2482 1578.32 32.6694L1589.9 16.3572C1590.99 14.8197 1590.99 12.7835 1589.9 11.2461L1578.32 -5.06616C1576.49 -7.64495 1572.58 -7.64495 1570.75 -5.06616L1559.18 11.2461C1558.09 12.7835 1558.09 14.8197 1559.18 16.3572L1570.75 32.6694Z" fill="#009DC4"/>
<path opacity="0.05" d="M1235.4 1172.07C1237.23 1174.64 1241.13 1174.64 1242.96 1172.07L1254.54 1155.75C1255.63 1154.22 1255.63 1152.18 1254.54 1150.64L1242.96 1134.33C1241.13 1131.75 1237.23 1131.75 1235.4 1134.33L1223.82 1150.64C1222.73 1152.18 1222.73 1154.22 1223.82 1155.75L1235.4 1172.07Z" fill="#009DC4"/>
<path opacity="0.05" d="M1235.4 1112.07C1237.23 1114.64 1241.13 1114.64 1242.96 1112.07L1254.54 1095.75C1255.63 1094.22 1255.63 1092.18 1254.54 1090.64L1242.96 1074.33C1241.13 1071.75 1237.23 1071.75 1235.4 1074.33L1223.82 1090.64C1222.73 1092.18 1222.73 1094.22 1223.82 1095.75L1235.4 1112.07Z" fill="#009DC4"/>
<path opacity="0.05" d="M1235.4 1052.07C1237.23 1054.64 1241.13 1054.64 1242.96 1052.07L1254.54 1035.75C1255.63 1034.22 1255.63 1032.18 1254.54 1030.64L1242.96 1014.33C1241.13 1011.75 1237.23 1011.75 1235.4 1014.33L1223.82 1030.64C1222.73 1032.18 1222.73 1034.22 1223.82 1035.75L1235.4 1052.07Z" fill="#009DC4"/>
<path opacity="0.05" d="M1235.4 992.066C1237.23 994.645 1241.13 994.645 1242.96 992.066L1254.54 975.754C1255.63 974.216 1255.63 972.18 1254.54 970.643L1242.96 954.33C1241.13 951.752 1237.23 951.752 1235.4 954.33L1223.82 970.643C1222.73 972.18 1222.73 974.216 1223.82 975.754L1235.4 992.066Z" fill="#009DC4"/>
<path opacity="0.05" d="M1235.4 932.066C1237.23 934.645 1241.13 934.645 1242.96 932.066L1254.54 915.754C1255.63 914.216 1255.63 912.18 1254.54 910.643L1242.96 894.33C1241.13 891.752 1237.23 891.752 1235.4 894.33L1223.82 910.643C1222.73 912.18 1222.73 914.216 1223.82 915.754L1235.4 932.066Z" fill="#009DC4"/>
<path opacity="0.05" d="M1235.4 872.066C1237.23 874.645 1241.13 874.645 1242.96 872.066L1254.54 855.754C1255.63 854.216 1255.63 852.18 1254.54 850.643L1242.96 834.33C1241.13 831.752 1237.23 831.752 1235.4 834.33L1223.82 850.643C1222.73 852.18 1222.73 854.216 1223.82 855.754L1235.4 872.066Z" fill="#009DC4"/>
<path opacity="0.05" d="M1235.4 812.066C1237.23 814.645 1241.13 814.645 1242.96 812.066L1254.54 795.754C1255.63 794.216 1255.63 792.18 1254.54 790.643L1242.96 774.33C1241.13 771.752 1237.23 771.752 1235.4 774.33L1223.82 790.643C1222.73 792.18 1222.73 794.216 1223.82 795.754L1235.4 812.066Z" fill="#009DC4"/>
<path opacity="0.05" d="M1235.4 752.066C1237.23 754.645 1241.13 754.645 1242.96 752.066L1254.54 735.754C1255.63 734.216 1255.63 732.18 1254.54 730.643L1242.96 714.33C1241.13 711.752 1237.23 711.752 1235.4 714.33L1223.82 730.643C1222.73 732.18 1222.73 734.216 1223.82 735.754L1235.4 752.066Z" fill="#009DC4"/>
<path opacity="0.05" d="M1235.4 692.066C1237.23 694.645 1241.13 694.645 1242.96 692.066L1254.54 675.754C1255.63 674.216 1255.63 672.18 1254.54 670.643L1242.96 654.33C1241.13 651.752 1237.23 651.752 1235.4 654.33L1223.82 670.643C1222.73 672.18 1222.73 674.216 1223.82 675.754L1235.4 692.066Z" fill="#009DC4"/>
<path opacity="0.05" d="M1235.4 632.066C1237.23 634.645 1241.13 634.645 1242.96 632.066L1254.54 615.754C1255.63 614.216 1255.63 612.18 1254.54 610.643L1242.96 594.33C1241.13 591.752 1237.23 591.752 1235.4 594.33L1223.82 610.643C1222.73 612.18 1222.73 614.216 1223.82 615.754L1235.4 632.066Z" fill="#009DC4"/>
<path opacity="0.05" d="M1235.4 572.066C1237.23 574.645 1241.13 574.645 1242.96 572.066L1254.54 555.754C1255.63 554.216 1255.63 552.18 1254.54 550.643L1242.96 534.33C1241.13 531.752 1237.23 531.752 1235.4 534.33L1223.82 550.643C1222.73 552.18 1222.73 554.216 1223.82 555.754L1235.4 572.066Z" fill="#009DC4"/>
<path opacity="0.05" d="M1235.4 512.066C1237.23 514.645 1241.13 514.645 1242.96 512.066L1254.54 495.754C1255.63 494.216 1255.63 492.18 1254.54 490.643L1242.96 474.33C1241.13 471.752 1237.23 471.752 1235.4 474.33L1223.82 490.643C1222.73 492.18 1222.73 494.216 1223.82 495.754L1235.4 512.066Z" fill="#009DC4"/>
<path opacity="0.08" d="M1235.4 452.066C1237.23 454.645 1241.13 454.645 1242.96 452.066L1254.54 435.754C1255.63 434.216 1255.63 432.18 1254.54 430.643L1242.96 414.33C1241.13 411.752 1237.23 411.752 1235.4 414.33L1223.82 430.643C1222.73 432.18 1222.73 434.216 1223.82 435.754L1235.4 452.066Z" fill="#009DC4"/>
<path opacity="0.1" d="M1235.4 392.066C1237.23 394.645 1241.13 394.645 1242.96 392.066L1254.54 375.754C1255.63 374.216 1255.63 372.18 1254.54 370.643L1242.96 354.33C1241.13 351.752 1237.23 351.752 1235.4 354.33L1223.82 370.643C1222.73 372.18 1222.73 374.216 1223.82 375.754L1235.4 392.066Z" fill="#009DC4"/>
<path opacity="0.05" d="M1235.4 332.066C1237.23 334.645 1241.13 334.645 1242.96 332.066L1254.54 315.754C1255.63 314.216 1255.63 312.18 1254.54 310.643L1242.96 294.33C1241.13 291.752 1237.23 291.752 1235.4 294.33L1223.82 310.643C1222.73 312.18 1222.73 314.216 1223.82 315.754L1235.4 332.066Z" fill="#009DC4"/>
<path opacity="0.1" d="M1235.4 272.066C1237.23 274.645 1241.13 274.645 1242.96 272.066L1254.54 255.754C1255.63 254.216 1255.63 252.18 1254.54 250.643L1242.96 234.33C1241.13 231.752 1237.23 231.752 1235.4 234.33L1223.82 250.643C1222.73 252.18 1222.73 254.216 1223.82 255.754L1235.4 272.066Z" fill="#009DC4"/>
<path opacity="0.05" d="M1235.4 212.066C1237.23 214.645 1241.13 214.645 1242.96 212.066L1254.54 195.754C1255.63 194.216 1255.63 192.18 1254.54 190.643L1242.96 174.33C1241.13 171.752 1237.23 171.752 1235.4 174.33L1223.82 190.643C1222.73 192.18 1222.73 194.216 1223.82 195.754L1235.4 212.066Z" fill="#009DC4"/>
<path opacity="0.1" d="M1235.4 152.066C1237.23 154.645 1241.13 154.645 1242.96 152.066L1254.54 135.754C1255.63 134.216 1255.63 132.18 1254.54 130.643L1242.96 114.33C1241.13 111.752 1237.23 111.752 1235.4 114.33L1223.82 130.643C1222.73 132.18 1222.73 134.216 1223.82 135.754L1235.4 152.066Z" fill="#009DC4"/>
<path opacity="0.7" d="M1235.4 92.0659C1237.23 94.6447 1241.13 94.6447 1242.96 92.0659L1254.54 75.7537C1255.63 74.2162 1255.63 72.18 1254.54 70.6426L1242.96 54.3303C1241.13 51.7515 1237.23 51.7515 1235.4 54.3303L1223.82 70.6426C1222.73 72.18 1222.73 74.2162 1223.82 75.7537L1235.4 92.0659Z" fill="#009DC4"/>
<path opacity="0.5" d="M1235.4 32.6694C1237.23 35.2482 1241.13 35.2482 1242.96 32.6694L1254.54 16.3572C1255.63 14.8197 1255.63 12.7835 1254.54 11.2461L1242.96 -5.06616C1241.13 -7.64495 1237.23 -7.64495 1235.4 -5.06616L1223.82 11.2461C1222.73 12.7835 1222.73 14.8197 1223.82 16.3572L1235.4 32.6694Z" fill="#009DC4"/>
<path opacity="0.05" d="M431.395 1172.07C433.225 1174.64 437.133 1174.64 438.963 1172.07L450.54 1155.75C451.631 1154.22 451.631 1152.18 450.54 1150.64L438.963 1134.33C437.133 1131.75 433.225 1131.75 431.395 1134.33L419.818 1150.64C418.727 1152.18 418.727 1154.22 419.818 1155.75L431.395 1172.07Z" fill="#009DC4"/>
<path opacity="0.05" d="M431.395 1112.07C433.225 1114.64 437.133 1114.64 438.963 1112.07L450.54 1095.75C451.631 1094.22 451.631 1092.18 450.54 1090.64L438.963 1074.33C437.133 1071.75 433.225 1071.75 431.395 1074.33L419.818 1090.64C418.727 1092.18 418.727 1094.22 419.818 1095.75L431.395 1112.07Z" fill="#009DC4"/>
<path opacity="0.05" d="M431.395 1052.07C433.225 1054.64 437.133 1054.64 438.963 1052.07L450.54 1035.75C451.631 1034.22 451.631 1032.18 450.54 1030.64L438.963 1014.33C437.133 1011.75 433.225 1011.75 431.395 1014.33L419.818 1030.64C418.727 1032.18 418.727 1034.22 419.818 1035.75L431.395 1052.07Z" fill="#009DC4"/>
<path opacity="0.05" d="M431.395 992.066C433.225 994.645 437.133 994.645 438.963 992.066L450.54 975.754C451.631 974.216 451.631 972.18 450.54 970.643L438.963 954.33C437.133 951.752 433.225 951.752 431.395 954.33L419.818 970.643C418.727 972.18 418.727 974.216 419.818 975.754L431.395 992.066Z" fill="#009DC4"/>
<path opacity="0.05" d="M431.395 932.066C433.225 934.645 437.133 934.645 438.963 932.066L450.54 915.754C451.631 914.216 451.631 912.18 450.54 910.643L438.963 894.33C437.133 891.752 433.225 891.752 431.395 894.33L419.818 910.643C418.727 912.18 418.727 914.216 419.818 915.754L431.395 932.066Z" fill="#009DC4"/>
<path opacity="0.05" d="M431.395 872.066C433.225 874.645 437.133 874.645 438.963 872.066L450.54 855.754C451.631 854.216 451.631 852.18 450.54 850.643L438.963 834.33C437.133 831.752 433.225 831.752 431.395 834.33L419.818 850.643C418.727 852.18 418.727 854.216 419.818 855.754L431.395 872.066Z" fill="#009DC4"/>
<path opacity="0.05" d="M431.395 812.066C433.225 814.645 437.133 814.645 438.963 812.066L450.54 795.754C451.631 794.216 451.631 792.18 450.54 790.643L438.963 774.33C437.133 771.752 433.225 771.752 431.395 774.33L419.818 790.643C418.727 792.18 418.727 794.216 419.818 795.754L431.395 812.066Z" fill="#009DC4"/>
<path opacity="0.05" d="M431.395 752.066C433.225 754.645 437.133 754.645 438.963 752.066L450.54 735.754C451.631 734.216 451.631 732.18 450.54 730.643L438.963 714.33C437.133 711.752 433.225 711.752 431.395 714.33L419.818 730.643C418.727 732.18 418.727 734.216 419.818 735.754L431.395 752.066Z" fill="#009DC4"/>
<path opacity="0.05" d="M431.395 692.066C433.225 694.645 437.133 694.645 438.963 692.066L450.54 675.754C451.631 674.216 451.631 672.18 450.54 670.643L438.963 654.33C437.133 651.752 433.225 651.752 431.395 654.33L419.818 670.643C418.727 672.18 418.727 674.216 419.818 675.754L431.395 692.066Z" fill="#009DC4"/>
<path opacity="0.1" d="M431.395 632.066C433.225 634.645 437.133 634.645 438.963 632.066L450.54 615.754C451.631 614.216 451.631 612.18 450.54 610.643L438.963 594.33C437.133 591.752 433.225 591.752 431.395 594.33L419.818 610.643C418.727 612.18 418.727 614.216 419.818 615.754L431.395 632.066Z" fill="#009DC4"/>
<path opacity="0.1" d="M431.395 572.066C433.225 574.645 437.133 574.645 438.963 572.066L450.54 555.754C451.631 554.216 451.631 552.18 450.54 550.643L438.963 534.33C437.133 531.752 433.225 531.752 431.395 534.33L419.818 550.643C418.727 552.18 418.727 554.216 419.818 555.754L431.395 572.066Z" fill="#009DC4"/>
<path opacity="0.1" d="M431.395 512.066C433.225 514.645 437.133 514.645 438.963 512.066L450.54 495.754C451.631 494.216 451.631 492.18 450.54 490.643L438.963 474.33C437.133 471.752 433.225 471.752 431.395 474.33L419.818 490.643C418.727 492.18 418.727 494.216 419.818 495.754L431.395 512.066Z" fill="#009DC4"/>
<path d="M431.395 452.066C433.225 454.645 437.133 454.645 438.963 452.066L450.54 435.754C451.631 434.216 451.631 432.18 450.54 430.643L438.963 414.33C437.133 411.752 433.225 411.752 431.395 414.33L419.818 430.643C418.727 432.18 418.727 434.216 419.818 435.754L431.395 452.066Z" fill="#009DC4"/>
<path opacity="0.9" d="M431.395 392.066C433.225 394.645 437.133 394.645 438.963 392.066L450.54 375.754C451.631 374.216 451.631 372.18 450.54 370.643L438.963 354.33C437.133 351.752 433.225 351.752 431.395 354.33L419.818 370.643C418.727 372.18 418.727 374.216 419.818 375.754L431.395 392.066Z" fill="#009DC4"/>
<path opacity="0.8" d="M431.395 332.066C433.225 334.645 437.133 334.645 438.963 332.066L450.54 315.754C451.631 314.216 451.631 312.18 450.54 310.643L438.963 294.33C437.133 291.752 433.225 291.752 431.395 294.33L419.818 310.643C418.727 312.18 418.727 314.216 419.818 315.754L431.395 332.066Z" fill="#009DC4"/>
<path opacity="0.6" d="M431.395 272.066C433.225 274.645 437.133 274.645 438.963 272.066L450.54 255.754C451.631 254.216 451.631 252.18 450.54 250.643L438.963 234.33C437.133 231.752 433.225 231.752 431.395 234.33L419.818 250.643C418.727 252.18 418.727 254.216 419.818 255.754L431.395 272.066Z" fill="#009DC4"/>
<path opacity="0.4" d="M431.395 212.066C433.225 214.645 437.133 214.645 438.963 212.066L450.54 195.754C451.631 194.216 451.631 192.18 450.54 190.643L438.963 174.33C437.133 171.752 433.225 171.752 431.395 174.33L419.818 190.643C418.727 192.18 418.727 194.216 419.818 195.754L431.395 212.066Z" fill="#009DC4"/>
<path opacity="0.2" d="M431.395 152.066C433.225 154.645 437.133 154.645 438.963 152.066L450.54 135.754C451.631 134.216 451.631 132.18 450.54 130.643L438.963 114.33C437.133 111.752 433.225 111.752 431.395 114.33L419.818 130.643C418.727 132.18 418.727 134.216 419.818 135.754L431.395 152.066Z" fill="#009DC4"/>
<path opacity="0.1" d="M431.395 92.0659C433.225 94.6447 437.133 94.6447 438.963 92.0659L450.54 75.7537C451.631 74.2162 451.631 72.18 450.54 70.6426L438.963 54.3303C437.133 51.7515 433.225 51.7515 431.395 54.3303L419.818 70.6426C418.727 72.18 418.727 74.2162 419.818 75.7537L431.395 92.0659Z" fill="#009DC4"/>
<path opacity="0.1" d="M431.395 32.6694C433.225 35.2482 437.133 35.2482 438.963 32.6694L450.54 16.3572C451.631 14.8197 451.631 12.7835 450.54 11.2461L438.963 -5.06616C437.133 -7.64495 433.225 -7.64495 431.395 -5.06616L419.818 11.2461C418.727 12.7835 418.727 14.8197 419.818 16.3572L431.395 32.6694Z" fill="#009DC4"/>
<path opacity="0.05" d="M841.395 1172.07C843.225 1174.64 847.133 1174.64 848.963 1172.07L860.54 1155.75C861.631 1154.22 861.631 1152.18 860.54 1150.64L848.963 1134.33C847.133 1131.75 843.225 1131.75 841.395 1134.33L829.818 1150.64C828.727 1152.18 828.727 1154.22 829.818 1155.75L841.395 1172.07Z" fill="#009DC4"/>
<path opacity="0.05" d="M841.395 1112.07C843.225 1114.64 847.133 1114.64 848.963 1112.07L860.54 1095.75C861.631 1094.22 861.631 1092.18 860.54 1090.64L848.963 1074.33C847.133 1071.75 843.225 1071.75 841.395 1074.33L829.818 1090.64C828.727 1092.18 828.727 1094.22 829.818 1095.75L841.395 1112.07Z" fill="#009DC4"/>
<path opacity="0.05" d="M841.395 1052.07C843.225 1054.64 847.133 1054.64 848.963 1052.07L860.54 1035.75C861.631 1034.22 861.631 1032.18 860.54 1030.64L848.963 1014.33C847.133 1011.75 843.225 1011.75 841.395 1014.33L829.818 1030.64C828.727 1032.18 828.727 1034.22 829.818 1035.75L841.395 1052.07Z" fill="#009DC4"/>
<path opacity="0.05" d="M841.395 992.066C843.225 994.645 847.133 994.645 848.963 992.066L860.54 975.754C861.631 974.216 861.631 972.18 860.54 970.643L848.963 954.33C847.133 951.752 843.225 951.752 841.395 954.33L829.818 970.643C828.727 972.18 828.727 974.216 829.818 975.754L841.395 992.066Z" fill="#009DC4"/>
<path opacity="0.05" d="M841.395 932.066C843.225 934.645 847.133 934.645 848.963 932.066L860.54 915.754C861.631 914.216 861.631 912.18 860.54 910.643L848.963 894.33C847.133 891.752 843.225 891.752 841.395 894.33L829.818 910.643C828.727 912.18 828.727 914.216 829.818 915.754L841.395 932.066Z" fill="#009DC4"/>
<path opacity="0.05" d="M841.395 872.066C843.225 874.645 847.133 874.645 848.963 872.066L860.54 855.754C861.631 854.216 861.631 852.18 860.54 850.643L848.963 834.33C847.133 831.752 843.225 831.752 841.395 834.33L829.818 850.643C828.727 852.18 828.727 854.216 829.818 855.754L841.395 872.066Z" fill="#009DC4"/>
<path opacity="0.05" d="M841.395 812.066C843.225 814.645 847.133 814.645 848.963 812.066L860.54 795.754C861.631 794.216 861.631 792.18 860.54 790.643L848.963 774.33C847.133 771.752 843.225 771.752 841.395 774.33L829.818 790.643C828.727 792.18 828.727 794.216 829.818 795.754L841.395 812.066Z" fill="#009DC4"/>
<path opacity="0.05" d="M841.395 752.066C843.225 754.645 847.133 754.645 848.963 752.066L860.54 735.754C861.631 734.216 861.631 732.18 860.54 730.643L848.963 714.33C847.133 711.752 843.225 711.752 841.395 714.33L829.818 730.643C828.727 732.18 828.727 734.216 829.818 735.754L841.395 752.066Z" fill="#009DC4"/>
<path opacity="0.05" d="M841.395 692.066C843.225 694.645 847.133 694.645 848.963 692.066L860.54 675.754C861.631 674.216 861.631 672.18 860.54 670.643L848.963 654.33C847.133 651.752 843.225 651.752 841.395 654.33L829.818 670.643C828.727 672.18 828.727 674.216 829.818 675.754L841.395 692.066Z" fill="#009DC4"/>
<path opacity="0.05" d="M841.395 632.066C843.225 634.645 847.133 634.645 848.963 632.066L860.54 615.754C861.631 614.216 861.631 612.18 860.54 610.643L848.963 594.33C847.133 591.752 843.225 591.752 841.395 594.33L829.818 610.643C828.727 612.18 828.727 614.216 829.818 615.754L841.395 632.066Z" fill="#009DC4"/>
<path opacity="0.1" d="M841.395 572.066C843.225 574.645 847.133 574.645 848.963 572.066L860.54 555.754C861.631 554.216 861.631 552.18 860.54 550.643L848.963 534.33C847.133 531.752 843.225 531.752 841.395 534.33L829.818 550.643C828.727 552.18 828.727 554.216 829.818 555.754L841.395 572.066Z" fill="#009DC4"/>
<path opacity="0.1" d="M841.395 512.066C843.225 514.645 847.133 514.645 848.963 512.066L860.54 495.754C861.631 494.216 861.631 492.18 860.54 490.643L848.963 474.33C847.133 471.752 843.225 471.752 841.395 474.33L829.818 490.643C828.727 492.18 828.727 494.216 829.818 495.754L841.395 512.066Z" fill="#009DC4"/>
<path opacity="0.1" d="M841.395 452.066C843.225 454.645 847.133 454.645 848.963 452.066L860.54 435.754C861.631 434.216 861.631 432.18 860.54 430.643L848.963 414.33C847.133 411.752 843.225 411.752 841.395 414.33L829.818 430.643C828.727 432.18 828.727 434.216 829.818 435.754L841.395 452.066Z" fill="#009DC4"/>
<path opacity="0.1" d="M841.395 392.066C843.225 394.645 847.133 394.645 848.963 392.066L860.54 375.754C861.631 374.216 861.631 372.18 860.54 370.643L848.963 354.33C847.133 351.752 843.225 351.752 841.395 354.33L829.818 370.643C828.727 372.18 828.727 374.216 829.818 375.754L841.395 392.066Z" fill="#009DC4"/>
<path opacity="0.9" d="M841.395 332.066C843.225 334.645 847.133 334.645 848.963 332.066L860.54 315.754C861.631 314.216 861.631 312.18 860.54 310.643L848.963 294.33C847.133 291.752 843.225 291.752 841.395 294.33L829.818 310.643C828.727 312.18 828.727 314.216 829.818 315.754L841.395 332.066Z" fill="#009DC4"/>
<path opacity="0.7" d="M841.395 272.066C843.225 274.645 847.133 274.645 848.963 272.066L860.54 255.754C861.631 254.216 861.631 252.18 860.54 250.643L848.963 234.33C847.133 231.752 843.225 231.752 841.395 234.33L829.818 250.643C828.727 252.18 828.727 254.216 829.818 255.754L841.395 272.066Z" fill="#009DC4"/>
<path opacity="0.5" d="M841.395 212.066C843.225 214.645 847.133 214.645 848.963 212.066L860.54 195.754C861.631 194.216 861.631 192.18 860.54 190.643L848.963 174.33C847.133 171.752 843.225 171.752 841.395 174.33L829.818 190.643C828.727 192.18 828.727 194.216 829.818 195.754L841.395 212.066Z" fill="#009DC4"/>
<path opacity="0.3" d="M841.395 152.066C843.225 154.645 847.133 154.645 848.963 152.066L860.54 135.754C861.631 134.216 861.631 132.18 860.54 130.643L848.963 114.33C847.133 111.752 843.225 111.752 841.395 114.33L829.818 130.643C828.727 132.18 828.727 134.216 829.818 135.754L841.395 152.066Z" fill="#009DC4"/>
<path opacity="0.2" d="M841.395 92.0659C843.225 94.6447 847.133 94.6447 848.963 92.0659L860.54 75.7537C861.631 74.2162 861.631 72.18 860.54 70.6426L848.963 54.3303C847.133 51.7515 843.225 51.7515 841.395 54.3303L829.818 70.6426C828.727 72.18 828.727 74.2162 829.818 75.7537L841.395 92.0659Z" fill="#009DC4"/>
<path opacity="0.1" d="M841.395 32.6694C843.225 35.2482 847.133 35.2482 848.963 32.6694L860.54 16.3572C861.631 14.8197 861.631 12.7835 860.54 11.2461L848.963 -5.06616C847.133 -7.64495 843.225 -7.64495 841.395 -5.06616L829.818 11.2461C828.727 12.7835 828.727 14.8197 829.818 16.3572L841.395 32.6694Z" fill="#009DC4"/>
<path opacity="0.7" d="M1389.4 1172.07C1391.23 1174.64 1395.13 1174.64 1396.96 1172.07L1408.54 1155.75C1409.63 1154.22 1409.63 1152.18 1408.54 1150.64L1396.96 1134.33C1395.13 1131.75 1391.23 1131.75 1389.4 1134.33L1377.82 1150.64C1376.73 1152.18 1376.73 1154.22 1377.82 1155.75L1389.4 1172.07Z" fill="#009DC4"/>
<path d="M1389.4 1112.07C1391.23 1114.64 1395.13 1114.64 1396.96 1112.07L1408.54 1095.75C1409.63 1094.22 1409.63 1092.18 1408.54 1090.64L1396.96 1074.33C1395.13 1071.75 1391.23 1071.75 1389.4 1074.33L1377.82 1090.64C1376.73 1092.18 1376.73 1094.22 1377.82 1095.75L1389.4 1112.07Z" fill="#009DC4"/>
<path opacity="0.1" d="M1389.4 1052.07C1391.23 1054.64 1395.13 1054.64 1396.96 1052.07L1408.54 1035.75C1409.63 1034.22 1409.63 1032.18 1408.54 1030.64L1396.96 1014.33C1395.13 1011.75 1391.23 1011.75 1389.4 1014.33L1377.82 1030.64C1376.73 1032.18 1376.73 1034.22 1377.82 1035.75L1389.4 1052.07Z" fill="#009DC4"/>
<path opacity="0.1" d="M1389.4 992.066C1391.23 994.645 1395.13 994.645 1396.96 992.066L1408.54 975.754C1409.63 974.216 1409.63 972.18 1408.54 970.643L1396.96 954.33C1395.13 951.752 1391.23 951.752 1389.4 954.33L1377.82 970.643C1376.73 972.18 1376.73 974.216 1377.82 975.754L1389.4 992.066Z" fill="#009DC4"/>
<path opacity="0.1" d="M1389.4 932.066C1391.23 934.645 1395.13 934.645 1396.96 932.066L1408.54 915.754C1409.63 914.216 1409.63 912.18 1408.54 910.643L1396.96 894.33C1395.13 891.752 1391.23 891.752 1389.4 894.33L1377.82 910.643C1376.73 912.18 1376.73 914.216 1377.82 915.754L1389.4 932.066Z" fill="#009DC4"/>
<path opacity="0.1" d="M1389.4 872.066C1391.23 874.645 1395.13 874.645 1396.96 872.066L1408.54 855.754C1409.63 854.216 1409.63 852.18 1408.54 850.643L1396.96 834.33C1395.13 831.752 1391.23 831.752 1389.4 834.33L1377.82 850.643C1376.73 852.18 1376.73 854.216 1377.82 855.754L1389.4 872.066Z" fill="#009DC4"/>
<path opacity="0.1" d="M1389.4 812.066C1391.23 814.645 1395.13 814.645 1396.96 812.066L1408.54 795.754C1409.63 794.216 1409.63 792.18 1408.54 790.643L1396.96 774.33C1395.13 771.752 1391.23 771.752 1389.4 774.33L1377.82 790.643C1376.73 792.18 1376.73 794.216 1377.82 795.754L1389.4 812.066Z" fill="#009DC4"/>
<path opacity="0.1" d="M1389.4 752.066C1391.23 754.645 1395.13 754.645 1396.96 752.066L1408.54 735.754C1409.63 734.216 1409.63 732.18 1408.54 730.643L1396.96 714.33C1395.13 711.752 1391.23 711.752 1389.4 714.33L1377.82 730.643C1376.73 732.18 1376.73 734.216 1377.82 735.754L1389.4 752.066Z" fill="#009DC4"/>
<path d="M1389.4 692.066C1391.23 694.645 1395.13 694.645 1396.96 692.066L1408.54 675.754C1409.63 674.216 1409.63 672.18 1408.54 670.643L1396.96 654.33C1395.13 651.752 1391.23 651.752 1389.4 654.33L1377.82 670.643C1376.73 672.18 1376.73 674.216 1377.82 675.754L1389.4 692.066Z" fill="#009DC4"/>
<path opacity="0.8" d="M1389.4 632.066C1391.23 634.645 1395.13 634.645 1396.96 632.066L1408.54 615.754C1409.63 614.216 1409.63 612.18 1408.54 610.643L1396.96 594.33C1395.13 591.752 1391.23 591.752 1389.4 594.33L1377.82 610.643C1376.73 612.18 1376.73 614.216 1377.82 615.754L1389.4 632.066Z" fill="#009DC4"/>
<path opacity="0.7" d="M1389.4 572.066C1391.23 574.645 1395.13 574.645 1396.96 572.066L1408.54 555.754C1409.63 554.216 1409.63 552.18 1408.54 550.643L1396.96 534.33C1395.13 531.752 1391.23 531.752 1389.4 534.33L1377.82 550.643C1376.73 552.18 1376.73 554.216 1377.82 555.754L1389.4 572.066Z" fill="#009DC4"/>
<path opacity="0.5" d="M1389.4 512.066C1391.23 514.645 1395.13 514.645 1396.96 512.066L1408.54 495.754C1409.63 494.216 1409.63 492.18 1408.54 490.643L1396.96 474.33C1395.13 471.752 1391.23 471.752 1389.4 474.33L1377.82 490.643C1376.73 492.18 1376.73 494.216 1377.82 495.754L1389.4 512.066Z" fill="#009DC4"/>
<path opacity="0.4" d="M1389.4 452.066C1391.23 454.645 1395.13 454.645 1396.96 452.066L1408.54 435.754C1409.63 434.216 1409.63 432.18 1408.54 430.643L1396.96 414.33C1395.13 411.752 1391.23 411.752 1389.4 414.33L1377.82 430.643C1376.73 432.18 1376.73 434.216 1377.82 435.754L1389.4 452.066Z" fill="#009DC4"/>
<path opacity="0.3" d="M1389.4 392.066C1391.23 394.645 1395.13 394.645 1396.96 392.066L1408.54 375.754C1409.63 374.216 1409.63 372.18 1408.54 370.643L1396.96 354.33C1395.13 351.752 1391.23 351.752 1389.4 354.33L1377.82 370.643C1376.73 372.18 1376.73 374.216 1377.82 375.754L1389.4 392.066Z" fill="#009DC4"/>
<path opacity="0.2" d="M1389.4 332.066C1391.23 334.645 1395.13 334.645 1396.96 332.066L1408.54 315.754C1409.63 314.216 1409.63 312.18 1408.54 310.643L1396.96 294.33C1395.13 291.752 1391.23 291.752 1389.4 294.33L1377.82 310.643C1376.73 312.18 1376.73 314.216 1377.82 315.754L1389.4 332.066Z" fill="#009DC4"/>
<path opacity="0.2" d="M1389.4 272.066C1391.23 274.645 1395.13 274.645 1396.96 272.066L1408.54 255.754C1409.63 254.216 1409.63 252.18 1408.54 250.643L1396.96 234.33C1395.13 231.752 1391.23 231.752 1389.4 234.33L1377.82 250.643C1376.73 252.18 1376.73 254.216 1377.82 255.754L1389.4 272.066Z" fill="#009DC4"/>
<path opacity="0.05" d="M1389.4 212.066C1391.23 214.645 1395.13 214.645 1396.96 212.066L1408.54 195.754C1409.63 194.216 1409.63 192.18 1408.54 190.643L1396.96 174.33C1395.13 171.752 1391.23 171.752 1389.4 174.33L1377.82 190.643C1376.73 192.18 1376.73 194.216 1377.82 195.754L1389.4 212.066Z" fill="#009DC4"/>
<path opacity="0.05" d="M1389.4 152.066C1391.23 154.645 1395.13 154.645 1396.96 152.066L1408.54 135.754C1409.63 134.216 1409.63 132.18 1408.54 130.643L1396.96 114.33C1395.13 111.752 1391.23 111.752 1389.4 114.33L1377.82 130.643C1376.73 132.18 1376.73 134.216 1377.82 135.754L1389.4 152.066Z" fill="#009DC4"/>
<path opacity="0.05" d="M1389.4 92.0659C1391.23 94.6447 1395.13 94.6447 1396.96 92.0659L1408.54 75.7537C1409.63 74.2162 1409.63 72.18 1408.54 70.6426L1396.96 54.3303C1395.13 51.7515 1391.23 51.7515 1389.4 54.3303L1377.82 70.6426C1376.73 72.18 1376.73 74.2162 1377.82 75.7537L1389.4 92.0659Z" fill="#009DC4"/>
<path opacity="0.05" d="M1389.4 32.6694C1391.23 35.2482 1395.13 35.2482 1396.96 32.6694L1408.54 16.3572C1409.63 14.8197 1409.63 12.7835 1408.54 11.2461L1396.96 -5.06616C1395.13 -7.64495 1391.23 -7.64495 1389.4 -5.06616L1377.82 11.2461C1376.73 12.7835 1376.73 14.8197 1377.82 16.3572L1389.4 32.6694Z" fill="#009DC4"/>
<path d="M38.9632 -5.0659C37.1331 -7.6447 33.2252 -7.6447 31.3951 -5.06591L19.8183 11.2463C18.7271 12.7838 18.7271 14.82 19.8182 16.3574L31.3951 32.6697C33.2252 35.2485 37.1331 35.2485 38.9632 32.6697L50.5401 16.3574C51.6312 14.82 51.6312 12.7838 50.5401 11.2463L38.9632 -5.0659Z" fill="#009DC4"/>
<path opacity="0.9" d="M38.9632 54.9341C37.1331 52.3553 33.2252 52.3553 31.3951 54.9341L19.8183 71.2463C18.7271 72.7838 18.7271 74.82 19.8182 76.3574L31.3951 92.6697C33.2252 95.2485 37.1331 95.2485 38.9632 92.6697L50.5401 76.3574C51.6312 74.82 51.6312 72.7838 50.5401 71.2463L38.9632 54.9341Z" fill="#009DC4"/>
<path opacity="0.8" d="M38.9632 114.934C37.1331 112.355 33.2252 112.355 31.3951 114.934L19.8183 131.246C18.7271 132.784 18.7271 134.82 19.8182 136.357L31.3951 152.67C33.2252 155.248 37.1331 155.248 38.9632 152.67L50.5401 136.357C51.6312 134.82 51.6312 132.784 50.5401 131.246L38.9632 114.934Z" fill="#009DC4"/>
<path opacity="0.7" d="M38.9632 174.934C37.1331 172.355 33.2252 172.355 31.3951 174.934L19.8183 191.246C18.7271 192.784 18.7271 194.82 19.8182 196.357L31.3951 212.67C33.2252 215.248 37.1331 215.248 38.9632 212.67L50.5401 196.357C51.6312 194.82 51.6312 192.784 50.5401 191.246L38.9632 174.934Z" fill="#009DC4"/>
<path opacity="0.6" d="M38.9632 234.934C37.1331 232.355 33.2252 232.355 31.3951 234.934L19.8183 251.246C18.7271 252.784 18.7271 254.82 19.8182 256.357L31.3951 272.67C33.2252 275.248 37.1331 275.248 38.9632 272.67L50.5401 256.357C51.6312 254.82 51.6312 252.784 50.5401 251.246L38.9632 234.934Z" fill="#009DC4"/>
<path opacity="0.5" d="M38.9632 294.934C37.1331 292.355 33.2252 292.355 31.3951 294.934L19.8183 311.246C18.7271 312.784 18.7271 314.82 19.8182 316.357L31.3951 332.67C33.2252 335.248 37.1331 335.248 38.9632 332.67L50.5401 316.357C51.6312 314.82 51.6312 312.784 50.5401 311.246L38.9632 294.934Z" fill="#009DC4"/>
<path opacity="0.4" d="M38.9632 354.934C37.1331 352.355 33.2252 352.355 31.3951 354.934L19.8183 371.246C18.7271 372.784 18.7271 374.82 19.8182 376.357L31.3951 392.67C33.2252 395.248 37.1331 395.248 38.9632 392.67L50.5401 376.357C51.6312 374.82 51.6312 372.784 50.5401 371.246L38.9632 354.934Z" fill="#009DC4"/>
<path opacity="0.2" d="M38.9632 414.934C37.1331 412.355 33.2252 412.355 31.3951 414.934L19.8183 431.246C18.7271 432.784 18.7271 434.82 19.8182 436.357L31.3951 452.67C33.2252 455.248 37.1331 455.248 38.9632 452.67L50.5401 436.357C51.6312 434.82 51.6312 432.784 50.5401 431.246L38.9632 414.934Z" fill="#009DC4"/>
<path opacity="0.1" d="M38.9632 474.934C37.1331 472.355 33.2252 472.355 31.3951 474.934L19.8183 491.246C18.7271 492.784 18.7271 494.82 19.8182 496.357L31.3951 512.67C33.2252 515.248 37.1331 515.248 38.9632 512.67L50.5401 496.357C51.6312 494.82 51.6312 492.784 50.5401 491.246L38.9632 474.934Z" fill="#009DC4"/>
<path opacity="0.1" d="M38.9632 534.934C37.1331 532.355 33.2252 532.355 31.3951 534.934L19.8183 551.246C18.7271 552.784 18.7271 554.82 19.8182 556.357L31.3951 572.67C33.2252 575.248 37.1331 575.248 38.9632 572.67L50.5401 556.357C51.6312 554.82 51.6312 552.784 50.5401 551.246L38.9632 534.934Z" fill="#009DC4"/>
<path opacity="0.1" d="M38.9632 594.934C37.1331 592.355 33.2252 592.355 31.3951 594.934L19.8183 611.246C18.7271 612.784 18.7271 614.82 19.8182 616.357L31.3951 632.67C33.2252 635.248 37.1331 635.248 38.9632 632.67L50.5401 616.357C51.6312 614.82 51.6312 612.784 50.5401 611.246L38.9632 594.934Z" fill="#009DC4"/>
<path opacity="0.1" d="M38.9632 654.934C37.1331 652.355 33.2252 652.355 31.3951 654.934L19.8183 671.246C18.7271 672.784 18.7271 674.82 19.8182 676.357L31.3951 692.67C33.2252 695.248 37.1331 695.248 38.9632 692.67L50.5401 676.357C51.6312 674.82 51.6312 672.784 50.5401 671.246L38.9632 654.934Z" fill="#009DC4"/>
<path opacity="0.1" d="M38.9632 714.934C37.1331 712.355 33.2252 712.355 31.3951 714.934L19.8183 731.246C18.7271 732.784 18.7271 734.82 19.8182 736.357L31.3951 752.67C33.2252 755.248 37.1331 755.248 38.9632 752.67L50.5401 736.357C51.6312 734.82 51.6312 732.784 50.5401 731.246L38.9632 714.934Z" fill="#009DC4"/>
<path opacity="0.1" d="M38.9632 774.934C37.1331 772.355 33.2252 772.355 31.3951 774.934L19.8183 791.246C18.7271 792.784 18.7271 794.82 19.8182 796.357L31.3951 812.67C33.2252 815.248 37.1331 815.248 38.9632 812.67L50.5401 796.357C51.6312 794.82 51.6312 792.784 50.5401 791.246L38.9632 774.934Z" fill="#009DC4"/>
<path opacity="0.1" d="M38.9632 834.934C37.1331 832.355 33.2252 832.355 31.3951 834.934L19.8183 851.246C18.7271 852.784 18.7271 854.82 19.8182 856.357L31.3951 872.67C33.2252 875.248 37.1331 875.248 38.9632 872.67L50.5401 856.357C51.6312 854.82 51.6312 852.784 50.5401 851.246L38.9632 834.934Z" fill="#009DC4"/>
<path opacity="0.1" d="M38.9632 894.934C37.1331 892.355 33.2252 892.355 31.3951 894.934L19.8183 911.246C18.7271 912.784 18.7271 914.82 19.8182 916.357L31.3951 932.67C33.2252 935.248 37.1331 935.248 38.9632 932.67L50.5401 916.357C51.6312 914.82 51.6312 912.784 50.5401 911.246L38.9632 894.934Z" fill="#009DC4"/>
<path opacity="0.1" d="M38.9632 954.934C37.1331 952.355 33.2252 952.355 31.3951 954.934L19.8183 971.246C18.7271 972.784 18.7271 974.82 19.8182 976.357L31.3951 992.67C33.2252 995.248 37.1331 995.248 38.9632 992.67L50.5401 976.357C51.6312 974.82 51.6312 972.784 50.5401 971.246L38.9632 954.934Z" fill="#009DC4"/>
<path opacity="0.1" d="M38.9632 1014.93C37.1331 1012.36 33.2252 1012.36 31.3951 1014.93L19.8183 1031.25C18.7271 1032.78 18.7271 1034.82 19.8182 1036.36L31.3951 1052.67C33.2252 1055.25 37.1331 1055.25 38.9632 1052.67L50.5401 1036.36C51.6312 1034.82 51.6312 1032.78 50.5401 1031.25L38.9632 1014.93Z" fill="#009DC4"/>
<path opacity="0.1" d="M38.9632 1074.93C37.1331 1072.36 33.2252 1072.36 31.3951 1074.93L19.8183 1091.25C18.7271 1092.78 18.7271 1094.82 19.8182 1096.36L31.3951 1112.67C33.2252 1115.25 37.1331 1115.25 38.9632 1112.67L50.5401 1096.36C51.6312 1094.82 51.6312 1092.78 50.5401 1091.25L38.9632 1074.93Z" fill="#009DC4"/>
<path opacity="0.1" d="M38.9632 1134.33C37.1331 1131.75 33.2252 1131.75 31.3951 1134.33L19.8183 1150.64C18.7271 1152.18 18.7271 1154.22 19.8182 1155.75L31.3951 1172.07C33.2252 1174.64 37.1331 1174.64 38.9632 1172.07L50.5401 1155.75C51.6312 1154.22 51.6312 1152.18 50.5401 1150.64L38.9632 1134.33Z" fill="#009DC4"/>
<path opacity="0.1" d="M188.395 1172.07C190.225 1174.64 194.133 1174.64 195.963 1172.07L207.54 1155.75C208.631 1154.22 208.631 1152.18 207.54 1150.64L195.963 1134.33C194.133 1131.75 190.225 1131.75 188.395 1134.33L176.818 1150.64C175.727 1152.18 175.727 1154.22 176.818 1155.75L188.395 1172.07Z" fill="#009DC4"/>
<path opacity="0.1" d="M188.395 1112.07C190.225 1114.64 194.133 1114.64 195.963 1112.07L207.54 1095.75C208.631 1094.22 208.631 1092.18 207.54 1090.64L195.963 1074.33C194.133 1071.75 190.225 1071.75 188.395 1074.33L176.818 1090.64C175.727 1092.18 175.727 1094.22 176.818 1095.75L188.395 1112.07Z" fill="#009DC4"/>
<path d="M188.395 1052.07C190.225 1054.64 194.133 1054.64 195.963 1052.07L207.54 1035.75C208.631 1034.22 208.631 1032.18 207.54 1030.64L195.963 1014.33C194.133 1011.75 190.225 1011.75 188.395 1014.33L176.818 1030.64C175.727 1032.18 175.727 1034.22 176.818 1035.75L188.395 1052.07Z" fill="#009DC4"/>
<path opacity="0.9" d="M188.395 992.066C190.225 994.645 194.133 994.645 195.963 992.066L207.54 975.754C208.631 974.216 208.631 972.18 207.54 970.643L195.963 954.33C194.133 951.752 190.225 951.752 188.395 954.33L176.818 970.643C175.727 972.18 175.727 974.216 176.818 975.754L188.395 992.066Z" fill="#009DC4"/>
<path opacity="0.7" d="M188.395 932.066C190.225 934.645 194.133 934.645 195.963 932.066L207.54 915.754C208.631 914.216 208.631 912.18 207.54 910.643L195.963 894.33C194.133 891.752 190.225 891.752 188.395 894.33L176.818 910.643C175.727 912.18 175.727 914.216 176.818 915.754L188.395 932.066Z" fill="#009DC4"/>
<path opacity="0.6" d="M188.395 872.066C190.225 874.645 194.133 874.645 195.963 872.066L207.54 855.754C208.631 854.216 208.631 852.18 207.54 850.643L195.963 834.33C194.133 831.752 190.225 831.752 188.395 834.33L176.818 850.643C175.727 852.18 175.727 854.216 176.818 855.754L188.395 872.066Z" fill="#009DC4"/>
<path opacity="0.5" d="M188.395 812.066C190.225 814.645 194.133 814.645 195.963 812.066L207.54 795.754C208.631 794.216 208.631 792.18 207.54 790.643L195.963 774.33C194.133 771.752 190.225 771.752 188.395 774.33L176.818 790.643C175.727 792.18 175.727 794.216 176.818 795.754L188.395 812.066Z" fill="#009DC4"/>
<path opacity="0.4" d="M188.395 752.066C190.225 754.645 194.133 754.645 195.963 752.066L207.54 735.754C208.631 734.216 208.631 732.18 207.54 730.643L195.963 714.33C194.133 711.752 190.225 711.752 188.395 714.33L176.818 730.643C175.727 732.18 175.727 734.216 176.818 735.754L188.395 752.066Z" fill="#009DC4"/>
<path opacity="0.3" d="M188.395 692.066C190.225 694.645 194.133 694.645 195.963 692.066L207.54 675.754C208.631 674.216 208.631 672.18 207.54 670.643L195.963 654.33C194.133 651.752 190.225 651.752 188.395 654.33L176.818 670.643C175.727 672.18 175.727 674.216 176.818 675.754L188.395 692.066Z" fill="#009DC4"/>
<path opacity="0.2" d="M188.395 632.066C190.225 634.645 194.133 634.645 195.963 632.066L207.54 615.754C208.631 614.216 208.631 612.18 207.54 610.643L195.963 594.33C194.133 591.752 190.225 591.752 188.395 594.33L176.818 610.643C175.727 612.18 175.727 614.216 176.818 615.754L188.395 632.066Z" fill="#009DC4"/>
<path opacity="0.1" d="M188.395 572.066C190.225 574.645 194.133 574.645 195.963 572.066L207.54 555.754C208.631 554.216 208.631 552.18 207.54 550.643L195.963 534.33C194.133 531.752 190.225 531.752 188.395 534.33L176.818 550.643C175.727 552.18 175.727 554.216 176.818 555.754L188.395 572.066Z" fill="#009DC4"/>
<path opacity="0.05" d="M188.395 512.066C190.225 514.645 194.133 514.645 195.963 512.066L207.54 495.754C208.631 494.216 208.631 492.18 207.54 490.643L195.963 474.33C194.133 471.752 190.225 471.752 188.395 474.33L176.818 490.643C175.727 492.18 175.727 494.216 176.818 495.754L188.395 512.066Z" fill="#009DC4"/>
<path opacity="0.05" d="M188.395 452.066C190.225 454.645 194.133 454.645 195.963 452.066L207.54 435.754C208.631 434.216 208.631 432.18 207.54 430.643L195.963 414.33C194.133 411.752 190.225 411.752 188.395 414.33L176.818 430.643C175.727 432.18 175.727 434.216 176.818 435.754L188.395 452.066Z" fill="#009DC4"/>
<path opacity="0.05" d="M188.395 392.066C190.225 394.645 194.133 394.645 195.963 392.066L207.54 375.754C208.631 374.216 208.631 372.18 207.54 370.643L195.963 354.33C194.133 351.752 190.225 351.752 188.395 354.33L176.818 370.643C175.727 372.18 175.727 374.216 176.818 375.754L188.395 392.066Z" fill="#009DC4"/>
<path opacity="0.05" d="M188.395 332.066C190.225 334.645 194.133 334.645 195.963 332.066L207.54 315.754C208.631 314.216 208.631 312.18 207.54 310.643L195.963 294.33C194.133 291.752 190.225 291.752 188.395 294.33L176.818 310.643C175.727 312.18 175.727 314.216 176.818 315.754L188.395 332.066Z" fill="#009DC4"/>
<path opacity="0.05" d="M188.395 272.066C190.225 274.645 194.133 274.645 195.963 272.066L207.54 255.754C208.631 254.216 208.631 252.18 207.54 250.643L195.963 234.33C194.133 231.752 190.225 231.752 188.395 234.33L176.818 250.643C175.727 252.18 175.727 254.216 176.818 255.754L188.395 272.066Z" fill="#009DC4"/>
<path opacity="0.05" d="M188.395 212.066C190.225 214.645 194.133 214.645 195.963 212.066L207.54 195.754C208.631 194.216 208.631 192.18 207.54 190.643L195.963 174.33C194.133 171.752 190.225 171.752 188.395 174.33L176.818 190.643C175.727 192.18 175.727 194.216 176.818 195.754L188.395 212.066Z" fill="#009DC4"/>
<path opacity="0.1" d="M188.395 152.066C190.225 154.645 194.133 154.645 195.963 152.066L207.54 135.754C208.631 134.216 208.631 132.18 207.54 130.643L195.963 114.33C194.133 111.752 190.225 111.752 188.395 114.33L176.818 130.643C175.727 132.18 175.727 134.216 176.818 135.754L188.395 152.066Z" fill="#009DC4"/>
<path opacity="0.1" d="M188.395 92.0659C190.225 94.6447 194.133 94.6447 195.963 92.0659L207.54 75.7537C208.631 74.2162 208.631 72.18 207.54 70.6426L195.963 54.3303C194.133 51.7515 190.225 51.7515 188.395 54.3303L176.818 70.6426C175.727 72.18 175.727 74.2162 176.818 75.7537L188.395 92.0659Z" fill="#009DC4"/>
<path opacity="0.1" d="M188.395 32.6694C190.225 35.2482 194.133 35.2482 195.963 32.6694L207.54 16.3572C208.631 14.8197 208.631 12.7835 207.54 11.2461L195.963 -5.06616C194.133 -7.64495 190.225 -7.64495 188.395 -5.06616L176.818 11.2461C175.727 12.7835 175.727 14.8197 176.818 16.3572L188.395 32.6694Z" fill="#009DC4"/>
<path opacity="0.1" d="M993.037 1172.07C994.867 1174.64 998.775 1174.64 1000.6 1172.07L1012.18 1155.75C1013.27 1154.22 1013.27 1152.18 1012.18 1150.64L1000.6 1134.33C998.775 1131.75 994.867 1131.75 993.037 1134.33L981.46 1150.64C980.369 1152.18 980.369 1154.22 981.46 1155.75L993.037 1172.07Z" fill="#009DC4"/>
<path opacity="0.1" d="M993.037 1112.07C994.867 1114.64 998.775 1114.64 1000.6 1112.07L1012.18 1095.75C1013.27 1094.22 1013.27 1092.18 1012.18 1090.64L1000.6 1074.33C998.775 1071.75 994.867 1071.75 993.037 1074.33L981.46 1090.64C980.369 1092.18 980.369 1094.22 981.46 1095.75L993.037 1112.07Z" fill="#009DC4"/>
<path opacity="0.1" d="M993.037 1052.07C994.867 1054.64 998.775 1054.64 1000.6 1052.07L1012.18 1035.75C1013.27 1034.22 1013.27 1032.18 1012.18 1030.64L1000.6 1014.33C998.775 1011.75 994.867 1011.75 993.037 1014.33L981.46 1030.64C980.369 1032.18 980.369 1034.22 981.46 1035.75L993.037 1052.07Z" fill="#009DC4"/>
<path opacity="0.1" d="M993.037 992.066C994.867 994.645 998.775 994.645 1000.6 992.066L1012.18 975.754C1013.27 974.216 1013.27 972.18 1012.18 970.643L1000.6 954.33C998.775 951.752 994.867 951.752 993.037 954.33L981.46 970.643C980.369 972.18 980.369 974.216 981.46 975.754L993.037 992.066Z" fill="#009DC4"/>
<path opacity="0.9" d="M993.037 932.066C994.867 934.645 998.775 934.645 1000.6 932.066L1012.18 915.754C1013.27 914.216 1013.27 912.18 1012.18 910.643L1000.6 894.33C998.775 891.752 994.867 891.752 993.037 894.33L981.46 910.643C980.369 912.18 980.369 914.216 981.46 915.754L993.037 932.066Z" fill="#009DC4"/>
<path opacity="0.8" d="M993.037 872.066C994.867 874.645 998.775 874.645 1000.6 872.066L1012.18 855.754C1013.27 854.216 1013.27 852.18 1012.18 850.643L1000.6 834.33C998.775 831.752 994.867 831.752 993.037 834.33L981.46 850.643C980.369 852.18 980.369 854.216 981.46 855.754L993.037 872.066Z" fill="#009DC4"/>
<path opacity="0.7" d="M993.037 812.066C994.867 814.645 998.775 814.645 1000.6 812.066L1012.18 795.754C1013.27 794.216 1013.27 792.18 1012.18 790.643L1000.6 774.33C998.775 771.752 994.867 771.752 993.037 774.33L981.46 790.643C980.369 792.18 980.369 794.216 981.46 795.754L993.037 812.066Z" fill="#009DC4"/>
<path opacity="0.6" d="M993.037 752.066C994.867 754.645 998.775 754.645 1000.6 752.066L1012.18 735.754C1013.27 734.216 1013.27 732.18 1012.18 730.643L1000.6 714.33C998.775 711.752 994.867 711.752 993.037 714.33L981.46 730.643C980.369 732.18 980.369 734.216 981.46 735.754L993.037 752.066Z" fill="#009DC4"/>
<path opacity="0.5" d="M993.037 692.066C994.867 694.645 998.775 694.645 1000.6 692.066L1012.18 675.754C1013.27 674.216 1013.27 672.18 1012.18 670.643L1000.6 654.33C998.775 651.752 994.867 651.752 993.037 654.33L981.46 670.643C980.369 672.18 980.369 674.216 981.46 675.754L993.037 692.066Z" fill="#009DC4"/>
<path opacity="0.4" d="M993.037 632.066C994.867 634.645 998.775 634.645 1000.6 632.066L1012.18 615.754C1013.27 614.216 1013.27 612.18 1012.18 610.643L1000.6 594.33C998.775 591.752 994.867 591.752 993.037 594.33L981.46 610.643C980.369 612.18 980.369 614.216 981.46 615.754L993.037 632.066Z" fill="#009DC4"/>
<path opacity="0.3" d="M993.037 572.066C994.867 574.645 998.775 574.645 1000.6 572.066L1012.18 555.754C1013.27 554.216 1013.27 552.18 1012.18 550.643L1000.6 534.33C998.775 531.752 994.867 531.752 993.037 534.33L981.46 550.643C980.369 552.18 980.369 554.216 981.46 555.754L993.037 572.066Z" fill="#009DC4"/>
<path opacity="0.2" d="M993.037 512.066C994.867 514.645 998.775 514.645 1000.6 512.066L1012.18 495.754C1013.27 494.216 1013.27 492.18 1012.18 490.643L1000.6 474.33C998.775 471.752 994.867 471.752 993.037 474.33L981.46 490.643C980.369 492.18 980.369 494.216 981.46 495.754L993.037 512.066Z" fill="#009DC4"/>
<path opacity="0.1" d="M993.037 452.066C994.867 454.645 998.775 454.645 1000.6 452.066L1012.18 435.754C1013.27 434.216 1013.27 432.18 1012.18 430.643L1000.6 414.33C998.775 411.752 994.867 411.752 993.037 414.33L981.46 430.643C980.369 432.18 980.369 434.216 981.46 435.754L993.037 452.066Z" fill="#009DC4"/>
<path opacity="0.05" d="M993.037 392.066C994.867 394.645 998.775 394.645 1000.6 392.066L1012.18 375.754C1013.27 374.216 1013.27 372.18 1012.18 370.643L1000.6 354.33C998.775 351.752 994.867 351.752 993.037 354.33L981.46 370.643C980.369 372.18 980.369 374.216 981.46 375.754L993.037 392.066Z" fill="#009DC4"/>
<path opacity="0.05" d="M993.037 332.066C994.867 334.645 998.775 334.645 1000.6 332.066L1012.18 315.754C1013.27 314.216 1013.27 312.18 1012.18 310.643L1000.6 294.33C998.775 291.752 994.867 291.752 993.037 294.33L981.46 310.643C980.369 312.18 980.369 314.216 981.46 315.754L993.037 332.066Z" fill="#009DC4"/>
<path opacity="0.05" d="M993.037 272.066C994.867 274.645 998.775 274.645 1000.6 272.066L1012.18 255.754C1013.27 254.216 1013.27 252.18 1012.18 250.643L1000.6 234.33C998.775 231.752 994.867 231.752 993.037 234.33L981.46 250.643C980.369 252.18 980.369 254.216 981.46 255.754L993.037 272.066Z" fill="#009DC4"/>
<path opacity="0.05" d="M993.037 212.066C994.867 214.645 998.775 214.645 1000.6 212.066L1012.18 195.754C1013.27 194.216 1013.27 192.18 1012.18 190.643L1000.6 174.33C998.775 171.752 994.867 171.752 993.037 174.33L981.46 190.643C980.369 192.18 980.369 194.216 981.46 195.754L993.037 212.066Z" fill="#009DC4"/>
<path opacity="0.05" d="M993.037 152.066C994.867 154.645 998.775 154.645 1000.6 152.066L1012.18 135.754C1013.27 134.216 1013.27 132.18 1012.18 130.643L1000.6 114.33C998.775 111.752 994.867 111.752 993.037 114.33L981.46 130.643C980.369 132.18 980.369 134.216 981.46 135.754L993.037 152.066Z" fill="#009DC4"/>
<path opacity="0.05" d="M993.037 92.0659C994.867 94.6447 998.775 94.6447 1000.6 92.0659L1012.18 75.7537C1013.27 74.2162 1013.27 72.18 1012.18 70.6426L1000.6 54.3303C998.775 51.7515 994.867 51.7515 993.037 54.3303L981.46 70.6426C980.369 72.18 980.369 74.2162 981.46 75.7537L993.037 92.0659Z" fill="#009DC4"/>
<path opacity="0.05" d="M993.037 32.6694C994.867 35.2482 998.775 35.2482 1000.6 32.6694L1012.18 16.3572C1013.27 14.8197 1013.27 12.7835 1012.18 11.2461L1000.6 -5.06616C998.775 -7.64495 994.867 -7.64495 993.037 -5.06616L981.46 11.2461C980.369 12.7835 980.369 14.8197 981.46 16.3572L993.037 32.6694Z" fill="#009DC4"/>
<path opacity="0.8" d="M609.395 1172.07C611.225 1174.64 615.133 1174.64 616.963 1172.07L628.54 1155.75C629.631 1154.22 629.631 1152.18 628.54 1150.64L616.963 1134.33C615.133 1131.75 611.225 1131.75 609.395 1134.33L597.818 1150.64C596.727 1152.18 596.727 1154.22 597.818 1155.75L609.395 1172.07Z" fill="#009DC4"/>
<path opacity="0.7" d="M609.395 1112.07C611.225 1114.64 615.133 1114.64 616.963 1112.07L628.54 1095.75C629.631 1094.22 629.631 1092.18 628.54 1090.64L616.963 1074.33C615.133 1071.75 611.225 1071.75 609.395 1074.33L597.818 1090.64C596.727 1092.18 596.727 1094.22 597.818 1095.75L609.395 1112.07Z" fill="#009DC4"/>
<path opacity="0.6" d="M609.395 1052.07C611.225 1054.64 615.133 1054.64 616.963 1052.07L628.54 1035.75C629.631 1034.22 629.631 1032.18 628.54 1030.64L616.963 1014.33C615.133 1011.75 611.225 1011.75 609.395 1014.33L597.818 1030.64C596.727 1032.18 596.727 1034.22 597.818 1035.75L609.395 1052.07Z" fill="#009DC4"/>
<path opacity="0.5" d="M609.395 992.066C611.225 994.645 615.133 994.645 616.963 992.066L628.54 975.754C629.631 974.216 629.631 972.18 628.54 970.643L616.963 954.33C615.133 951.752 611.225 951.752 609.395 954.33L597.818 970.643C596.727 972.18 596.727 974.216 597.818 975.754L609.395 992.066Z" fill="#009DC4"/>
<path opacity="0.4" d="M609.395 932.066C611.225 934.645 615.133 934.645 616.963 932.066L628.54 915.754C629.631 914.216 629.631 912.18 628.54 910.643L616.963 894.33C615.133 891.752 611.225 891.752 609.395 894.33L597.818 910.643C596.727 912.18 596.727 914.216 597.818 915.754L609.395 932.066Z" fill="#009DC4"/>
<path opacity="0.3" d="M609.395 872.066C611.225 874.645 615.133 874.645 616.963 872.066L628.54 855.754C629.631 854.216 629.631 852.18 628.54 850.643L616.963 834.33C615.133 831.752 611.225 831.752 609.395 834.33L597.818 850.643C596.727 852.18 596.727 854.216 597.818 855.754L609.395 872.066Z" fill="#009DC4"/>
<path opacity="0.2" d="M609.395 812.066C611.225 814.645 615.133 814.645 616.963 812.066L628.54 795.754C629.631 794.216 629.631 792.18 628.54 790.643L616.963 774.33C615.133 771.752 611.225 771.752 609.395 774.33L597.818 790.643C596.727 792.18 596.727 794.216 597.818 795.754L609.395 812.066Z" fill="#009DC4"/>
<path opacity="0.1" d="M609.395 752.066C611.225 754.645 615.133 754.645 616.963 752.066L628.54 735.754C629.631 734.216 629.631 732.18 628.54 730.643L616.963 714.33C615.133 711.752 611.225 711.752 609.395 714.33L597.818 730.643C596.727 732.18 596.727 734.216 597.818 735.754L609.395 752.066Z" fill="#009DC4"/>
<path opacity="0.1" d="M609.395 692.066C611.225 694.645 615.133 694.645 616.963 692.066L628.54 675.754C629.631 674.216 629.631 672.18 628.54 670.643L616.963 654.33C615.133 651.752 611.225 651.752 609.395 654.33L597.818 670.643C596.727 672.18 596.727 674.216 597.818 675.754L609.395 692.066Z" fill="#009DC4"/>
<path opacity="0.1" d="M609.395 632.066C611.225 634.645 615.133 634.645 616.963 632.066L628.54 615.754C629.631 614.216 629.631 612.18 628.54 610.643L616.963 594.33C615.133 591.752 611.225 591.752 609.395 594.33L597.818 610.643C596.727 612.18 596.727 614.216 597.818 615.754L609.395 632.066Z" fill="#009DC4"/>
<path opacity="0.1" d="M609.395 572.066C611.225 574.645 615.133 574.645 616.963 572.066L628.54 555.754C629.631 554.216 629.631 552.18 628.54 550.643L616.963 534.33C615.133 531.752 611.225 531.752 609.395 534.33L597.818 550.643C596.727 552.18 596.727 554.216 597.818 555.754L609.395 572.066Z" fill="#009DC4"/>
<path opacity="0.05" d="M609.395 512.066C611.225 514.645 615.133 514.645 616.963 512.066L628.54 495.754C629.631 494.216 629.631 492.18 628.54 490.643L616.963 474.33C615.133 471.752 611.225 471.752 609.395 474.33L597.818 490.643C596.727 492.18 596.727 494.216 597.818 495.754L609.395 512.066Z" fill="#009DC4"/>
<path opacity="0.05" d="M609.395 452.066C611.225 454.645 615.133 454.645 616.963 452.066L628.54 435.754C629.631 434.216 629.631 432.18 628.54 430.643L616.963 414.33C615.133 411.752 611.225 411.752 609.395 414.33L597.818 430.643C596.727 432.18 596.727 434.216 597.818 435.754L609.395 452.066Z" fill="#009DC4"/>
<path opacity="0.05" d="M609.395 392.066C611.225 394.645 615.133 394.645 616.963 392.066L628.54 375.754C629.631 374.216 629.631 372.18 628.54 370.643L616.963 354.33C615.133 351.752 611.225 351.752 609.395 354.33L597.818 370.643C596.727 372.18 596.727 374.216 597.818 375.754L609.395 392.066Z" fill="#009DC4"/>
<path opacity="0.05" d="M609.395 332.066C611.225 334.645 615.133 334.645 616.963 332.066L628.54 315.754C629.631 314.216 629.631 312.18 628.54 310.643L616.963 294.33C615.133 291.752 611.225 291.752 609.395 294.33L597.818 310.643C596.727 312.18 596.727 314.216 597.818 315.754L609.395 332.066Z" fill="#009DC4"/>
<path opacity="0.1" d="M609.395 272.066C611.225 274.645 615.133 274.645 616.963 272.066L628.54 255.754C629.631 254.216 629.631 252.18 628.54 250.643L616.963 234.33C615.133 231.752 611.225 231.752 609.395 234.33L597.818 250.643C596.727 252.18 596.727 254.216 597.818 255.754L609.395 272.066Z" fill="#009DC4"/>
<path opacity="0.2" d="M609.395 212.066C611.225 214.645 615.133 214.645 616.963 212.066L628.54 195.754C629.631 194.216 629.631 192.18 628.54 190.643L616.963 174.33C615.133 171.752 611.225 171.752 609.395 174.33L597.818 190.643C596.727 192.18 596.727 194.216 597.818 195.754L609.395 212.066Z" fill="#009DC4"/>
<path opacity="0.5" d="M609.395 152.066C611.225 154.645 615.133 154.645 616.963 152.066L628.54 135.754C629.631 134.216 629.631 132.18 628.54 130.643L616.963 114.33C615.133 111.752 611.225 111.752 609.395 114.33L597.818 130.643C596.727 132.18 596.727 134.216 597.818 135.754L609.395 152.066Z" fill="#009DC4"/>
<path opacity="0.7" d="M609.395 92.0659C611.225 94.6447 615.133 94.6447 616.963 92.0659L628.54 75.7537C629.631 74.2162 629.631 72.18 628.54 70.6426L616.963 54.3303C615.133 51.7515 611.225 51.7515 609.395 54.3303L597.818 70.6426C596.727 72.18 596.727 74.2162 597.818 75.7537L609.395 92.0659Z" fill="#009DC4"/>
<path d="M609.395 32.6694C611.225 35.2482 615.133 35.2482 616.963 32.6694L628.54 16.3572C629.631 14.8197 629.631 12.7835 628.54 11.2461L616.963 -5.06616C615.133 -7.64495 611.225 -7.64495 609.395 -5.06616L597.818 11.2461C596.727 12.7835 596.727 14.8197 597.818 16.3572L609.395 32.6694Z" fill="#009DC4"/>
</g>
</g>
<defs>
<linearGradient id="paint0_linear_1097_3559" x1="1613" y1="0" x2="-55.0958" y2="1036.33" gradientUnits="userSpaceOnUse">
<stop stop-color="#07122F"/>
<stop offset="1" stop-color="#18181A"/>
</linearGradient>
<clipPath id="clip0_1097_3559">
<rect width="1613" height="1169" fill="white"/>
</clipPath>
</defs>
</svg>
