<svg width="204" height="80" viewBox="0 0 204 80" fill="none" xmlns="http://www.w3.org/2000/svg">
<path fill-rule="evenodd" clip-rule="evenodd" d="M54.9998 13.9991C54.9998 11.7899 56.7907 9.99905 58.9998 9.99909L78.9998 9.99926L78.9998 13.9993L58.9998 13.9991V35.9991H101V39.9991H58.9998V62.7493H54.9998V39.9991H13.9998V62.7493H9.99977V39.9991C9.99977 37.7899 11.7906 35.9991 13.9998 35.9991H23.9998V19.6087H27.9998V35.9991H54.9998V13.9991Z" fill="#464547"/>
<path d="M71.5 27.2493C71.5 26.1447 70.6046 25.2493 69.5 25.2493H44.5C43.3954 25.2493 42.5 26.1447 42.5 27.2493V47.2493C42.5 48.3539 43.3954 49.2493 44.5 49.2493H69.5C70.6046 49.2493 71.5 48.3539 71.5 47.2493V27.2493Z" fill="#35D39A"/>
<path d="M108.848 48.9024C107.637 50.3649 105.362 50.3649 104.152 48.9024L96.6759 39.8687C95.7744 38.7793 95.7744 37.2193 96.6759 36.1299L104.152 27.0962C105.362 25.6337 107.637 25.6337 108.848 27.0962L116.324 36.1299C117.225 37.2193 117.225 38.7793 116.324 39.8687L108.848 48.9024Z" fill="#85B5FF"/>
<path d="M89.848 22.9032C88.6377 24.3657 86.3623 24.3657 85.152 22.9032L77.6761 13.8694C76.7746 12.78 76.7746 11.2201 77.6761 10.1306L85.152 1.0969C86.3623 -0.365586 88.6377 -0.365587 89.848 1.0969L97.3239 10.1306C98.2254 11.2201 98.2254 12.78 97.3239 13.8694L89.848 22.9032Z" fill="#85B5FF"/>
<path d="M28.348 22.9032C27.1377 24.3657 24.8623 24.3657 23.652 22.9032L16.1761 13.8694C15.2746 12.78 15.2746 11.2201 16.1761 10.1306L23.652 1.0969C24.8623 -0.365586 27.1377 -0.365587 28.348 1.0969L35.8239 10.1306C36.7254 11.2201 36.7254 12.78 35.8239 13.8694L28.348 22.9032Z" fill="#85B5FF"/>
<path d="M14.348 78.9032C13.1377 80.3657 10.8623 80.3657 9.65199 78.9032L2.17615 69.8694C1.27462 68.78 1.27462 67.2201 2.17615 66.1307L9.65199 57.0969C10.8623 55.6344 13.1377 55.6344 14.348 57.0969L21.8239 66.1307C22.7254 67.2201 22.7254 68.78 21.8239 69.8694L14.348 78.9032Z" fill="#85B5FF"/>
<path d="M59.348 78.9032C58.1377 80.3657 55.8623 80.3657 54.652 78.9032L47.1762 69.8694C46.2746 68.78 46.2746 67.2201 47.1762 66.1307L54.652 57.0969C55.8623 55.6344 58.1377 55.6344 59.348 57.0969L66.8239 66.1307C67.7254 67.2201 67.7254 68.78 66.8239 69.8694L59.348 78.9032Z" fill="#85B5FF"/>
<path fill-rule="evenodd" clip-rule="evenodd" d="M174.332 20.3528C174.332 18.1436 176.123 16.3528 178.332 16.3528H194.763V20.3528H178.332V38.0426C178.332 40.2518 176.542 42.0426 174.332 42.0426H161.008V53.8528H157.008V42.0426H143.888C141.679 42.0426 139.888 40.2518 139.888 38.0426V19.9993H143.888V38.0426H174.332V20.3528Z" fill="#464547"/>
<path d="M143.848 22.9024C142.638 24.3649 140.363 24.3649 139.152 22.9024L131.676 13.8687C130.775 12.7793 130.775 11.2193 131.676 10.1299L139.152 1.09614C140.363 -0.366354 142.638 -0.366356 143.848 1.09613L151.324 10.1299C152.226 11.2193 152.226 12.7793 151.324 13.8687L143.848 22.9024Z" fill="#85B5FF"/>
<path d="M195.848 28.9024C194.638 30.3649 192.363 30.3649 191.152 28.9024L183.676 19.8687C182.775 18.7793 182.775 17.2193 183.676 16.1299L191.152 7.09614C192.363 5.63365 194.638 5.63364 195.848 7.09613L203.324 16.1299C204.226 17.2193 204.226 18.7793 203.324 19.8687L195.848 28.9024Z" fill="#85B5FF"/>
<path d="M144.46 55.8523C144.46 54.7477 145.355 53.8523 146.46 53.8523H171.46C172.565 53.8523 173.46 54.7477 173.46 55.8523V75.8523C173.46 76.9568 172.565 77.8523 171.46 77.8523H146.46C145.355 77.8523 144.46 76.9568 144.46 75.8523V55.8523Z" fill="#35D39A"/>
</svg>
