<svg width="56" height="56" viewBox="0 0 56 56" fill="none" xmlns="http://www.w3.org/2000/svg">
<path fill-rule="evenodd" clip-rule="evenodd" d="M19.8332 2.91667C19.8332 1.30584 21.139 0 22.7499 0C24.3607 0 25.6665 1.30584 25.6665 2.91667V9.33335H30.3332V2.91667C30.3332 1.30584 31.639 0 33.2499 0C34.8607 0 36.1665 1.30584 36.1665 2.91667V9.33335H44.6665C45.7711 9.33335 46.6665 10.2288 46.6665 11.3334V19.8334H53.0833C54.6942 19.8334 56 21.1392 56 22.75C56 24.3608 54.6942 25.6667 53.0833 25.6667L46.6665 25.6667V29.1666H53.0833C54.6942 29.1666 56 30.4725 56 32.0833C56 33.6941 54.6942 35 53.0833 35H46.6665V44.6667C46.6665 45.7713 45.7711 46.6667 44.6665 46.6667H36.1668V53.0833C36.1668 54.6942 34.861 56 33.2501 56C31.6393 56 30.3335 54.6942 30.3335 53.0833L30.3335 46.6667H25.6668L25.6668 53.0833C25.6668 54.6942 24.361 56 22.7501 56C21.1393 56 19.8335 54.6942 19.8335 53.0833L19.8335 46.6667H11.3332C10.2286 46.6667 9.33319 45.7713 9.33319 44.6667V35H2.91667C1.30584 35 0 33.6941 0 32.0833C0 30.4725 1.30584 29.1666 2.91667 29.1666H9.33319V25.6667L2.91667 25.6667C1.30584 25.6667 0 24.3608 0 22.75C0 21.1392 1.30584 19.8334 2.91667 19.8334H9.33319V11.3333C9.33319 10.2288 10.2286 9.33335 11.3332 9.33335H19.8332V2.91667ZM22.9999 21C21.8954 21 20.9999 21.8954 20.9999 23V33C20.9999 34.1045 21.8954 35 22.9999 35H32.9999C34.1045 35 34.9999 34.1045 34.9999 33V23C34.9999 21.8954 34.1045 21 32.9999 21H22.9999Z" fill="#FF6492"/>
</svg>
