<svg width="155" height="60" viewBox="0 0 155 60" fill="none" xmlns="http://www.w3.org/2000/svg">
<path d="M149 60L154.755 49.9893L143.208 50.0107L149 60ZM0 0C0 1.38999 -3.21865e-06 2.71915 0.0073871 3.98728L2.00735 3.97562C2 2.71439 2 1.39124 2 0L0 0ZM0.277256 11.9612C0.533718 15.0664 1.03199 17.7348 2.02994 19.9949L3.85951 19.187C2.99156 17.2214 2.51906 14.8065 2.27047 11.7966L0.277256 11.9612ZM7.73005 26.1574C9.77492 27.2971 12.3213 28.1535 15.472 28.8062L15.8776 26.8478C12.8452 26.2196 10.5112 25.4178 8.70372 24.4104L7.73005 26.1574ZM23.4076 29.9413C25.8044 30.1718 28.449 30.3518 31.3661 30.4926L31.4625 28.4949C28.5681 28.3552 25.9564 28.1772 23.5991 27.9505L23.4076 29.9413ZM39.2957 30.7704C41.7756 30.8309 44.4144 30.8755 47.2221 30.9083L47.2455 28.9084C44.444 28.8757 41.8139 28.8313 39.3445 28.771L39.2957 30.7704ZM55.1664 30.9711C57.6876 30.9834 60.3259 30.9904 63.0863 30.9945L63.0892 28.9945C60.3302 28.9904 57.6944 28.9834 55.1761 28.9711L55.1664 30.9711ZM70.9877 30.9998C72.3004 31 73.6377 31 75 31V29C73.6377 29 72.3005 29 70.988 28.9998L70.9877 30.9998ZM75 31C76.3623 31 77.6995 31 79.012 31.0002L79.0123 29.0002C77.6996 29 76.3623 29 75 29V31ZM86.9108 31.0055C89.6697 31.0096 92.3056 31.0166 94.8239 31.0289L94.8336 29.0289C92.3123 29.0166 89.6741 29.0096 86.9137 29.0055L86.9108 31.0055ZM102.755 31.0916C105.556 31.1243 108.186 31.1687 110.656 31.229L110.704 29.2296C108.224 29.1691 105.586 29.1245 102.778 29.0917L102.755 31.0916ZM118.537 31.5051C121.432 31.6448 124.044 31.8228 126.401 32.0495L126.592 30.0587C124.196 29.8282 121.551 29.6482 118.634 29.5074L118.537 31.5051ZM134.122 33.1522C137.155 33.7804 139.489 34.5822 141.296 35.5896L142.27 33.8426C140.225 32.7029 137.679 31.8465 134.528 31.1938L134.122 33.1522ZM146.14 40.813C147.008 42.7786 147.481 45.1935 147.73 48.2034L149.723 48.0388C149.466 44.9336 148.968 42.2651 147.97 40.0051L146.14 40.813Z" fill="url(#paint0_linear_40_4194)"/>
<defs>
<linearGradient id="paint0_linear_40_4194" x1="0.873261" y1="-3.89614" x2="155.254" y2="22.2125" gradientUnits="userSpaceOnUse">
<stop stop-color="#85B5FF"/>
<stop offset="1" stop-color="#35D39A"/>
</linearGradient>
</defs>
</svg>
