<svg width="155" height="60" viewBox="0 0 155 60" fill="none" xmlns="http://www.w3.org/2000/svg">
<path d="M6 60L0.24501 49.9893L11.792 50.0107L6 60ZM155 0C155 1.38999 155 2.71915 154.993 3.98728L152.993 3.97562C153 2.71439 153 1.39124 153 0L155 0ZM154.723 11.9612C154.466 15.0664 153.968 17.7348 152.97 19.9949L151.14 19.187C152.008 17.2214 152.481 14.8065 152.73 11.7966L154.723 11.9612ZM147.27 26.1574C145.225 27.2971 142.679 28.1535 139.528 28.8062L139.122 26.8478C142.155 26.2196 144.489 25.4178 146.296 24.4104L147.27 26.1574ZM131.592 29.9413C129.196 30.1718 126.551 30.3518 123.634 30.4926L123.537 28.4949C126.432 28.3552 129.044 28.1772 131.401 27.9505L131.592 29.9413ZM115.704 30.7704C113.224 30.8309 110.586 30.8755 107.778 30.9083L107.755 28.9084C110.556 28.8757 113.186 28.8313 115.656 28.771L115.704 30.7704ZM99.8336 30.9711C97.3124 30.9834 94.6741 30.9904 91.9137 30.9945L91.9108 28.9945C94.6698 28.9904 97.3056 28.9834 99.8239 28.9711L99.8336 30.9711ZM84.0123 30.9998C82.6996 31 81.3623 31 80 31V29C81.3623 29 82.6995 29 84.012 28.9998L84.0123 30.9998ZM80 31C78.6377 31 77.3005 31 75.988 31.0002L75.9877 29.0002C77.3004 29 78.6377 29 80 29V31ZM68.0892 31.0055C65.3303 31.0096 62.6944 31.0166 60.1761 31.0289L60.1664 29.0289C62.6877 29.0166 65.3259 29.0096 68.0863 29.0055L68.0892 31.0055ZM52.2455 31.0916C49.444 31.1243 46.8139 31.1687 44.3445 31.229L44.2957 29.2296C46.7756 29.1691 49.4144 29.1245 52.2221 29.0917L52.2455 31.0916ZM36.4625 31.5051C33.5681 31.6448 30.9564 31.8228 28.5991 32.0495L28.4076 30.0587C30.8045 29.8282 33.449 29.6482 36.3662 29.5074L36.4625 31.5051ZM20.8777 33.1522C17.8453 33.7804 15.5112 34.5822 13.7037 35.5896L12.7301 33.8426C14.7749 32.7029 17.3213 31.8465 20.472 31.1938L20.8777 33.1522ZM8.85951 40.813C7.99156 42.7786 7.51906 45.1935 7.27046 48.2034L5.27725 48.0388C5.53372 44.9336 6.03198 42.2651 7.02995 40.0051L8.85951 40.813Z" fill="url(#paint0_linear_40_4195)"/>
<defs>
<linearGradient id="paint0_linear_40_4195" x1="154.127" y1="-3.89614" x2="-0.253658" y2="22.2125" gradientUnits="userSpaceOnUse">
<stop stop-color="#FF82A7"/>
<stop offset="1" stop-color="#85B5FF"/>
</linearGradient>
</defs>
</svg>
