<svg width="310" height="297" viewBox="0 0 310 297" fill="none" xmlns="http://www.w3.org/2000/svg">
<rect width="309" height="296" transform="translate(0.566406 0.366699)" fill="#EDF0F7"/>
<path d="M49.0952 92.8355C48.3493 93.7368 46.9471 93.7368 46.2013 92.8355L41.5944 87.2686C41.0388 86.5973 41.0388 85.636 41.5944 84.9646L46.2013 79.3977C46.9471 78.4965 48.3493 78.4965 49.0952 79.3977L53.702 84.9646C54.2576 85.636 54.2576 86.5973 53.702 87.2686L49.0952 92.8355Z" fill="#7B9ED3"/>
<circle cx="54.1187" cy="154.367" r="5.98586" stroke="#85B5FF" stroke-width="3" fill="#edf0f7"/>
<circle cx="224.321" cy="180.196" r="3.5" stroke="#7B9ED3" stroke-width="3" fill="#edf0f7"/>
<circle cx="104.575" cy="33.3936" r="3.5" stroke="#85B5FF" stroke-width="3" fill="#edf0f7"/>
<path d="M234.801 252.889C248.79 265.393 226.439 279.542 169.971 279.542C110.385 279.542 47.6482 273.606 47.6482 256.501C47.6482 239.395 93.7972 250.631 150.293 242.749C206.79 234.866 220.811 240.384 234.801 252.889Z" fill="#CFD6E2"/>
<path d="M204.022 138.193L163.301 170.893C163.301 170.893 154.914 191.269 148.802 199C148.582 199.278 148.364 199.547 148.148 199.808C149.327 200.021 150.643 200.406 152.114 201C176.077 210.687 152.114 252 152.114 252L144.805 268.615L123.426 182.027L151.632 116.84C151.632 116.84 156.736 128.115 156.907 133.068C156.966 134.766 157.816 139.139 159.992 139.139C164.07 139.139 174.22 133.965 182.615 128.927C187.343 126.091 192.349 117.84 193.412 113.219C196.516 99.7379 212.138 112.911 202.305 114.583C192.608 116.232 204.022 138.193 204.022 138.193Z" fill="#54606A"/>
<path d="M124.188 72.2413C124.188 72.2413 136.235 71.71 145.81 88.439C142.158 93.1562 136.983 94.8195 131.266 93.1141C123.018 90.6536 124.188 72.2413 124.188 72.2413Z" fill="#54606A"/>
<path d="M124.85 123.151C124.85 157.491 75.0969 162.413 69.7708 213.396C68.9151 221.588 69.8849 238.902 69.7708 246.543C69.6633 253.745 97.5727 259.709 97.3034 263.201L113.024 268.292L158.573 273L153.213 268.292V246.543C153.213 246.543 168.924 211.996 149.933 203C147.159 201.686 144.488 201.058 141.98 200.932C151.758 189.23 158.573 173.73 158.573 173.73C175.407 169.908 197.327 148.792 201.656 144.468C204.717 141.41 208.167 128.75 208.152 126.12C208.115 119.583 213.509 112.579 209.683 109.302C205.857 106.025 200.653 106.118 196.398 120.775C194.624 126.884 190.079 131.852 187.469 133.068C172.096 140.233 165.11 140.95 164.262 136.378C162.859 128.813 161.111 126.12 161.111 117.401C161.111 117.401 168.941 113.261 175.342 107.081C175.724 106.712 175.934 106.203 175.933 105.672C175.929 99.3712 175.832 92.2823 173.537 87.3409C172.155 84.3668 169.023 88.2713 166.185 87.866C163.347 87.4607 161.175 80.6649 157.472 78.536C154.163 76.6328 147.431 75.8884 132.623 82.5822C123.623 86.6504 128.221 79.5441 106.995 74.8381C107.52 81.1398 108.045 83.2403 111.461 89.2015C119.056 102.456 124.85 107.874 124.85 123.151Z" fill="url(#paint0_linear_4605_7896)"/>
<path d="M212.817 192.37C236.912 194.909 268.908 274.985 159.866 274.985C50.8234 274.985 69.5858 233.083 69.5858 233.083C72.1948 250.394 94.2193 250.76 112.713 250.76C133.91 250.76 185.331 254.623 177.072 236.351C168.812 218.079 188.721 189.832 212.817 192.37Z" fill="url(#paint1_linear_4605_7896)"/>
<path d="M163.252 97.7656C163.252 97.7656 160.202 99.0917 157.22 101.318C154.237 103.543 151.951 106.26 151.951 106.26" stroke="#85939E" stroke-width="2" stroke-linecap="round"/>
<path d="M164.989 102.013C164.989 102.013 162.105 104.683 159.275 109.887C156.912 114.229 155.739 119.088 155.739 119.088" stroke="#85939E" stroke-width="2" stroke-linecap="round"/>
<path d="M130.821 201.768C130.821 201.768 126.123 201.292 120.919 204.123C116.576 206.486 114.088 210.606 114.088 210.606" stroke="#85939E" stroke-width="2" stroke-linecap="round"/>
<path d="M156.942 89.7723C155.575 86.2622 147.244 85.5194 146.786 93.1932C149.067 98.343 158.386 96.4094 156.942 89.7723Z" fill="#DCE4EB"/>
<path d="M154.124 88.9897C152.791 86.9178 147.733 85.7509 144.735 92.2365" stroke="#54606A" stroke-width="2" stroke-linecap="round"/>
<ellipse cx="153.712" cy="90.8889" rx="4.11104" ry="4.1599" transform="rotate(-21.2759 153.712 90.8889)" fill="#54606A"/>
<path fill-rule="evenodd" clip-rule="evenodd" d="M168.66 87.4116C168.815 87.9443 168.934 88.4877 168.934 88.9999C168.934 91.209 170.224 91.4999 172.434 91.4999C172.869 91.4999 173.605 92.0065 174.365 92.5299C174.688 92.7521 175.016 92.9774 175.326 93.1682C174.848 90.9136 174.255 88.8873 173.537 87.3408C172.718 85.5776 171.283 86.2321 169.66 86.9729C169.333 87.1219 168.998 87.2745 168.66 87.4116Z" fill="#54606A"/>
<path d="M248.168 20.4329C246.516 28.4189 252.074 45.6265 254.511 54.1385L272.915 50.8125C270.025 51.0278 256.824 31.4216 249.709 20.233C249.282 19.5614 248.329 19.6535 248.168 20.4329Z" fill="url(#paint2_linear_4605_7896)"/>
<path d="M233.286 22.467C238.462 28.3522 251.138 41.0238 262.24 43.2507L271.973 39.2505C277.036 37.4824 279.665 38.4803 281.737 41.9548L287.64 44.1488L279.665 48.964C279.072 52.1545 276.723 57.8228 267.709 62.3825C255.592 68.5108 248.337 56.7273 237.519 64.3898C230.42 69.418 220.93 69.726 214.976 69.0071C213.985 68.8875 213.866 67.5695 214.786 67.1861C222.605 63.9302 239.032 56.2499 245.75 51.9677C234.634 42.1881 231.69 28.68 231.804 22.9234C231.82 22.1079 232.748 21.8545 233.286 22.467Z" fill="url(#paint3_linear_4605_7896)"/>
<path d="M213.952 50.4288L205.318 49.399" stroke="#CED6E2" stroke-width="2" stroke-linecap="round"/>
<path d="M213.483 40.445L205.319 37.4555" stroke="#CED6E2" stroke-width="2" stroke-linecap="round"/>
<path d="M263.482 61.3494L259.311 69.0488" stroke="#687783" stroke-width="2" stroke-linecap="round"/>
<path d="M269.38 85.1043L249.895 93.8523C249.234 94.1494 248.486 93.6653 248.486 92.94V71.8433C248.486 71.4178 248.755 71.0389 249.157 70.8989L268.642 64.1132C269.292 63.8868 269.971 64.3694 269.971 65.0576V84.192C269.971 84.5858 269.74 84.943 269.38 85.1043Z" fill="#85B5FF"/>
<path fill-rule="evenodd" clip-rule="evenodd" d="M248.84 71.0795L262.113 81.2167L269.902 64.6897C269.812 64.4624 269.642 64.2796 269.432 64.17L262.256 66.3369L249.157 70.8988C249.039 70.9399 248.932 71.0018 248.84 71.0795Z" fill="#7B9ED3"/>
<path d="M283.575 156.202C282.769 157.266 281.255 157.266 280.449 156.202L275.474 149.626C274.874 148.833 274.874 147.697 275.474 146.904L280.449 140.329C281.255 139.264 282.769 139.264 283.575 140.329L288.55 146.904C289.15 147.697 289.15 148.833 288.55 149.626L283.575 156.202Z" fill="#85B5FF"/>
<defs>
<linearGradient id="paint0_linear_4605_7896" x1="168.192" y1="89.498" x2="103.248" y2="259.907" gradientUnits="userSpaceOnUse">
<stop stop-color="#7B8895"/>
<stop offset="1" stop-color="#687783"/>
</linearGradient>
<linearGradient id="paint1_linear_4605_7896" x1="207.554" y1="202.656" x2="152.471" y2="274.985" gradientUnits="userSpaceOnUse">
<stop stop-color="#54606A"/>
<stop offset="1" stop-color="#4B565F"/>
</linearGradient>
<linearGradient id="paint2_linear_4605_7896" x1="246.837" y1="24.5767" x2="262.496" y2="23.6484" gradientUnits="userSpaceOnUse">
<stop stop-color="#54606A"/>
<stop offset="1" stop-color="#4B565F"/>
</linearGradient>
<linearGradient id="paint3_linear_4605_7896" x1="229.009" y1="24.9937" x2="243.307" y2="68.6491" gradientUnits="userSpaceOnUse">
<stop stop-color="#7B8895"/>
<stop offset="1" stop-color="#687783"/>
</linearGradient>
</defs>
</svg>
