<svg width="32" height="32" viewBox="0 0 32 32" fill="none" xmlns="http://www.w3.org/2000/svg">
<path d="M7.06043 22.9394C6.47465 23.5252 6.47465 24.4749 7.06043 25.0607C7.64622 25.6465 8.59597 25.6465 9.18175 25.0607L16.0604 18.182L23.3239 25.4455C23.9097 26.0312 24.8594 26.0312 25.4452 25.4455C26.031 24.8597 26.031 23.9099 25.4452 23.3241L18.1818 16.0607L25.4452 8.79723C26.031 8.21145 26.031 7.2617 25.4452 6.67591C24.8594 6.09013 23.9097 6.09013 23.3239 6.67591L16.0604 13.9394L9.18176 7.06069C8.59597 6.4749 7.64622 6.4749 7.06044 7.06069C6.47465 7.64647 6.47465 8.59622 7.06044 9.18201L13.9391 16.0607L7.06043 22.9394Z" fill="#18181A"/>
</svg>
