<svg width="20" height="20" viewBox="0 0 20 20" fill="none" xmlns="http://www.w3.org/2000/svg">
<path d="M16.3562 4.35123C16.5515 4.15597 16.5515 3.83939 16.3562 3.64413C16.161 3.44887 15.8444 3.44887 15.6491 3.64413L10.0004 9.29289L4.3516 3.64413C4.15634 3.44887 3.83976 3.44887 3.64449 3.64413C3.44923 3.83939 3.44923 4.15597 3.64449 4.35123L9.29326 10L3.64449 15.6488C3.44923 15.844 3.44923 16.1606 3.64449 16.3559C3.83976 16.5511 4.15634 16.5511 4.3516 16.3559L10.0004 10.7071L15.6491 16.3559C15.8444 16.5511 16.161 16.5511 16.3562 16.3559C16.5515 16.1606 16.5515 15.844 16.3562 15.6488L10.7075 10L16.3562 4.35123Z" fill="white"/>
</svg>
