<svg width="25" height="24" viewBox="0 0 25 24" fill="none" xmlns="http://www.w3.org/2000/svg">
<path fill-rule="evenodd" clip-rule="evenodd" d="M7.5 5.5C6.67157 5.5 6 6.17157 6 7V17C6 17.8284 6.67157 18.5 7.5 18.5H17.5C18.3284 18.5 19 17.8284 19 17V13.5C19 13.2239 19.2239 13 19.5 13C19.7761 13 20 13.2239 20 13.5V17C20 18.3807 18.8807 19.5 17.5 19.5H7.5C6.11929 19.5 5 18.3807 5 17V7C5 5.61929 6.11929 4.5 7.5 4.5H11C11.2761 4.5 11.5 4.72386 11.5 5C11.5 5.27614 11.2761 5.5 11 5.5H7.5ZM14 5C14 4.72386 14.2239 4.5 14.5 4.5H19.5C19.7761 4.5 20 4.72386 20 5V10C20 10.2761 19.7761 10.5 19.5 10.5C19.2239 10.5 19 10.2761 19 10V6.20711L11.3536 13.8536C11.1583 14.0488 10.8417 14.0488 10.6464 13.8536C10.4512 13.6583 10.4512 13.3417 10.6464 13.1464L18.2929 5.5H14.5C14.2239 5.5 14 5.27614 14 5Z" fill="#009DC4"/>
</svg>
