<svg width="20" height="20" viewBox="0 0 20 20" fill="none" xmlns="http://www.w3.org/2000/svg">
<path fill-rule="evenodd" clip-rule="evenodd" d="M16.4261 6.40966L11.7084 1.55723C11.3608 1.19967 10.8976 1 10.4157 1H4.86667C3.83574 1 3 1.89543 3 3V17C3 18.1046 3.83574 19 4.86667 19H15.1333C16.1643 19 17 18.1046 17 17V7.85244C17 7.30785 16.7927 6.78681 16.4261 6.40966ZM15.1333 18H4.86667C4.3512 18 3.93333 17.5523 3.93333 17V3C3.93333 2.44772 4.3512 2 4.86667 2H10.4157C10.4327 2 10.4497 2.0005 10.4667 2.00149V6.5C10.4667 7.32843 11.0935 8 11.8667 8H16.0667V17C16.0667 17.5523 15.6488 18 15.1333 18ZM15.6523 7L11.4 2.62622V6.5C11.4 6.77614 11.6089 7 11.8667 7H15.6523Z" fill="#464547"/>
<path d="M5.5 13H14.5M5.5 15H14.5M5.5 11H14.5" stroke="#464547"/>
</svg>
