<svg width="32" height="32" viewBox="0 0 32 32" fill="none" xmlns="http://www.w3.org/2000/svg">
<path fill-rule="evenodd" clip-rule="evenodd" d="M16 32C24.8366 32 32 24.8366 32 16C32 7.16344 24.8366 0 16 0C7.16344 0 0 7.16344 0 16C0 24.8366 7.16344 32 16 32ZM24.7618 10.3111C25.2097 9.61428 25.008 8.68621 24.3111 8.23823C23.6143 7.79025 22.6862 7.99201 22.2382 8.68886L14.4581 20.7913L10.2361 14.6502C9.76674 13.9675 8.83287 13.7946 8.15021 14.2639C7.46755 14.7333 7.29461 15.6671 7.76394 16.3498L12.8379 23.7302C13.6476 24.9079 15.3955 24.8808 16.1684 23.6786L24.7618 10.3111Z" fill="#0DAD73"/>
</svg>
