<svg width="32" height="32" viewBox="0 0 32 32" fill="none" xmlns="http://www.w3.org/2000/svg">
<path fill-rule="evenodd" clip-rule="evenodd" d="M16 32C24.8366 32 32 24.8366 32 16C32 7.16344 24.8366 0 16 0C7.16344 0 0 7.16344 0 16C0 24.8366 7.16344 32 16 32ZM21.948 7.93785C22.5318 7.35406 23.4784 7.35406 24.0622 7.93785C24.646 8.52165 24.646 9.46816 24.0622 10.052L18.1141 16L24.0622 21.9481C24.646 22.5318 24.646 23.4784 24.0622 24.0622C23.4784 24.646 22.5319 24.646 21.9481 24.0622L16 18.1141L10.052 24.0622C9.46816 24.646 8.52165 24.646 7.93785 24.0622C7.35405 23.4784 7.35405 22.5318 7.93785 21.948L13.8859 16L7.93786 10.052C7.35406 9.46817 7.35406 8.52165 7.93786 7.93785C8.52165 7.35406 9.46817 7.35406 10.052 7.93785L16 13.8859L21.948 7.93785Z" fill="#CC324E"/>
</svg>
