<svg width="24" height="24" viewBox="0 0 24 24" fill="none" xmlns="http://www.w3.org/2000/svg">
<path fill-rule="evenodd" clip-rule="evenodd" d="M8.00002 4.5C8.27616 4.5 8.50002 4.72386 8.50002 5L8.49986 7.133L10.3481 6.06699C10.5872 5.92892 10.893 6.01085 11.0311 6.25C11.1692 6.48915 11.0872 6.79494 10.8481 6.93301L9.00086 7.999L10.8481 9.06699C11.0872 9.20506 11.1692 9.51085 11.0311 9.75C10.893 9.98915 10.5872 10.0711 10.3481 9.93301L8.49986 8.866L8.50002 11C8.50002 11.2761 8.27616 11.5 8.00002 11.5C7.72387 11.5 7.50002 11.2761 7.50002 11L7.49986 8.866L5.65194 9.93301C5.41279 10.0711 5.107 9.98915 4.96893 9.75C4.83086 9.51085 4.91279 9.20506 5.15194 9.06699L6.99886 8L5.15194 6.93301C4.91279 6.79494 4.83086 6.48915 4.96893 6.25C5.107 6.01085 5.41279 5.92892 5.65194 6.06699L7.49986 7.133L7.50002 5C7.50002 4.72386 7.72387 4.5 8.00002 4.5Z" fill="#CC324E"/>
</svg>
