<svg width="2792" height="980" viewBox="0 0 2792 980" fill="none" xmlns="http://www.w3.org/2000/svg">
<rect width="2792" height="980" fill="url(#paint0_linear_1130_4308)"/>
<g opacity="0.4">
<path opacity="0.1" d="M140.395 20.4263C142.225 17.8475 146.133 17.8475 147.963 20.4263L159.54 36.7385C160.631 38.276 160.631 40.3122 159.54 41.8496L147.963 58.1619C146.133 60.7407 142.225 60.7407 140.395 58.1619L128.818 41.8496C127.727 40.3122 127.727 38.276 128.818 36.7385L140.395 20.4263Z" fill="#009DC4"/>
<path opacity="0.1" d="M140.395 80.5205C142.225 77.9417 146.133 77.9417 147.963 80.5205L159.54 96.8328C160.631 98.3702 160.631 100.406 159.54 101.944L147.963 118.256C146.133 120.835 142.225 120.835 140.395 118.256L128.818 101.944C127.727 100.406 127.727 98.3702 128.818 96.8328L140.395 80.5205Z" fill="#009DC4"/>
<path opacity="0.1" d="M140.395 140.615C142.225 138.036 146.133 138.036 147.963 140.615L159.54 156.927C160.631 158.464 160.631 160.501 159.54 162.038L147.963 178.35C146.133 180.929 142.225 180.929 140.395 178.35L128.818 162.038C127.727 160.501 127.727 158.464 128.818 156.927L140.395 140.615Z" fill="#009DC4"/>
<path opacity="0.1" d="M140.395 200.709C142.225 198.13 146.133 198.13 147.963 200.709L159.54 217.021C160.631 218.559 160.631 220.595 159.54 222.132L147.963 238.445C146.133 241.023 142.225 241.023 140.395 238.445L128.818 222.132C127.727 220.595 127.727 218.559 128.818 217.021L140.395 200.709Z" fill="#009DC4"/>
<path opacity="0.1" d="M140.395 260.803C142.225 258.224 146.133 258.224 147.963 260.803L159.54 277.115C160.631 278.653 160.631 280.689 159.54 282.227L147.963 298.539C146.133 301.118 142.225 301.118 140.395 298.539L128.818 282.227C127.727 280.689 127.727 278.653 128.818 277.115L140.395 260.803Z" fill="#009DC4"/>
<path opacity="0.1" d="M140.395 320.897C142.225 318.319 146.133 318.319 147.963 320.897L159.54 337.21C160.631 338.747 160.631 340.783 159.54 342.321L147.963 358.633C146.133 361.212 142.225 361.212 140.395 358.633L128.818 342.321C127.727 340.783 127.727 338.747 128.818 337.21L140.395 320.897Z" fill="#009DC4"/>
<path opacity="0.1" d="M140.395 380.992C142.225 378.413 146.133 378.413 147.963 380.992L159.54 397.304C160.631 398.842 160.631 400.878 159.54 402.416L147.963 418.728C146.133 421.307 142.225 421.307 140.395 418.728L128.818 402.416C127.727 400.878 127.727 398.842 128.818 397.304L140.395 380.992Z" fill="#009DC4"/>
<path opacity="0.1" d="M140.395 441.086C142.225 438.508 146.133 438.508 147.963 441.086L159.54 457.399C160.631 458.936 160.631 460.972 159.54 462.51L147.963 478.822C146.133 481.401 142.225 481.401 140.395 478.822L128.818 462.51C127.727 460.972 127.727 458.936 128.818 457.399L140.395 441.086Z" fill="#009DC4"/>
<path opacity="0.1" d="M140.395 501.181C142.225 498.602 146.133 498.602 147.963 501.181L159.54 517.493C160.631 519.03 160.631 521.067 159.54 522.604L147.963 538.916C146.133 541.495 142.225 541.495 140.395 538.916L128.818 522.604C127.727 521.067 127.727 519.03 128.818 517.493L140.395 501.181Z" fill="#009DC4"/>
<path opacity="0.1" d="M140.395 561.275C142.225 558.696 146.133 558.696 147.963 561.275L159.54 577.587C160.631 579.125 160.631 581.161 159.54 582.698L147.963 599.01C146.133 601.589 142.225 601.589 140.395 599.01L128.818 582.698C127.727 581.161 127.727 579.125 128.818 577.587L140.395 561.275Z" fill="#009DC4"/>
<path opacity="0.1" d="M140.395 621.37C142.225 618.791 146.133 618.791 147.963 621.37L159.54 637.682C160.631 639.219 160.631 641.256 159.54 642.793L147.963 659.105C146.133 661.684 142.225 661.684 140.395 659.105L128.818 642.793C127.727 641.256 127.727 639.219 128.818 637.682L140.395 621.37Z" fill="#009DC4"/>
<path opacity="0.3" d="M140.395 681.464C142.225 678.885 146.133 678.885 147.963 681.464L159.54 697.776C160.631 699.314 160.631 701.35 159.54 702.887L147.963 719.199C146.133 721.778 142.225 721.778 140.395 719.199L128.818 702.887C127.727 701.35 127.727 699.314 128.818 697.776L140.395 681.464Z" fill="#009DC4"/>
<path opacity="0.5" d="M140.395 741.558C142.225 738.979 146.133 738.979 147.963 741.558L159.54 757.87C160.631 759.408 160.631 761.444 159.54 762.981L147.963 779.294C146.133 781.872 142.225 781.872 140.395 779.294L128.818 762.981C127.727 761.444 127.727 759.408 128.818 757.87L140.395 741.558Z" fill="#009DC4"/>
<path opacity="0.6" d="M140.395 801.652C142.225 799.074 146.133 799.074 147.963 801.652L159.54 817.965C160.631 819.502 160.631 821.538 159.54 823.076L147.963 839.388C146.133 841.967 142.225 841.967 140.395 839.388L128.818 823.076C127.727 821.538 127.727 819.502 128.818 817.965L140.395 801.652Z" fill="#009DC4"/>
<path opacity="0.7" d="M140.395 861.747C142.225 859.168 146.133 859.168 147.963 861.747L159.54 878.059C160.631 879.596 160.631 881.632 159.54 883.17L147.963 899.482C146.133 902.061 142.225 902.061 140.395 899.482L128.818 883.17C127.727 881.632 127.727 879.596 128.818 878.059L140.395 861.747Z" fill="#009DC4"/>
<path opacity="0.9" d="M140.395 921.841C142.225 919.263 146.133 919.263 147.963 921.841L159.54 938.154C160.631 939.691 160.631 941.727 159.54 943.265L147.963 959.577C146.133 962.156 142.225 962.156 140.395 959.577L128.818 943.265C127.727 941.727 127.727 939.691 128.818 938.154L140.395 921.841Z" fill="#009DC4"/>
<path d="M722.847 22.7378C724.677 20.159 728.585 20.159 730.415 22.7378L741.992 39.0501C743.083 40.5875 743.083 42.6237 741.992 44.1611L730.415 60.4734C728.585 63.0522 724.677 63.0522 722.847 60.4734L711.27 44.1611C710.179 42.6237 710.179 40.5875 711.27 39.0501L722.847 22.7378Z" fill="#009DC4"/>
<path opacity="0.9" d="M722.847 82.832C724.677 80.2533 728.585 80.2532 730.415 82.832L741.992 99.1443C743.083 100.682 743.083 102.718 741.992 104.255L730.415 120.568C728.585 123.146 724.677 123.146 722.847 120.568L711.27 104.255C710.179 102.718 710.179 100.682 711.27 99.1443L722.847 82.832Z" fill="#009DC4"/>
<path opacity="0.6" d="M722.847 142.926C724.677 140.347 728.585 140.347 730.415 142.926L741.992 159.239C743.083 160.776 743.083 162.812 741.992 164.35L730.415 180.662C728.585 183.241 724.677 183.241 722.847 180.662L711.27 164.35C710.179 162.812 710.179 160.776 711.27 159.239L722.847 142.926Z" fill="#009DC4"/>
<path opacity="0.4" d="M722.847 203.021C724.677 200.442 728.585 200.442 730.415 203.021L741.992 219.333C743.083 220.87 743.083 222.906 741.992 224.444L730.415 240.756C728.585 243.335 724.677 243.335 722.847 240.756L711.27 224.444C710.179 222.906 710.179 220.87 711.27 219.333L722.847 203.021Z" fill="#009DC4"/>
<path opacity="0.3" d="M722.847 263.115C724.677 260.536 728.585 260.536 730.415 263.115L741.992 279.427C743.083 280.964 743.083 283.001 741.992 284.538L730.415 300.85C728.585 303.429 724.677 303.429 722.847 300.85L711.27 284.538C710.179 283.001 710.179 280.964 711.27 279.427L722.847 263.115Z" fill="#009DC4"/>
<path opacity="0.1" d="M722.847 323.209C724.677 320.63 728.585 320.63 730.415 323.209L741.992 339.521C743.083 341.059 743.083 343.095 741.992 344.632L730.415 360.945C728.585 363.523 724.677 363.523 722.847 360.945L711.27 344.632C710.179 343.095 710.179 341.059 711.27 339.521L722.847 323.209Z" fill="#009DC4"/>
<path opacity="0.1" d="M722.847 383.303C724.677 380.724 728.585 380.724 730.415 383.303L741.992 399.615C743.083 401.153 743.083 403.189 741.992 404.727L730.415 421.039C728.585 423.618 724.677 423.618 722.847 421.039L711.27 404.727C710.179 403.189 710.179 401.153 711.27 399.615L722.847 383.303Z" fill="#009DC4"/>
<path opacity="0.1" d="M722.847 443.397C724.677 440.819 728.585 440.819 730.415 443.397L741.992 459.71C743.083 461.247 743.083 463.283 741.992 464.821L730.415 481.133C728.585 483.712 724.677 483.712 722.847 481.133L711.27 464.821C710.179 463.283 710.179 461.247 711.27 459.71L722.847 443.397Z" fill="#009DC4"/>
<path opacity="0.1" d="M722.847 503.492C724.677 500.913 728.585 500.913 730.415 503.492L741.992 519.804C743.083 521.342 743.083 523.378 741.992 524.916L730.415 541.228C728.585 543.807 724.677 543.807 722.847 541.228L711.27 524.916C710.179 523.378 710.179 521.342 711.27 519.804L722.847 503.492Z" fill="#009DC4"/>
<path opacity="0.1" d="M722.847 563.586C724.677 561.008 728.585 561.008 730.415 563.586L741.992 579.899C743.083 581.436 743.083 583.472 741.992 585.01L730.415 601.322C728.585 603.901 724.677 603.901 722.847 601.322L711.27 585.01C710.179 583.472 710.179 581.436 711.27 579.899L722.847 563.586Z" fill="#009DC4"/>
<path opacity="0.1" d="M722.847 623.681C724.677 621.102 728.585 621.102 730.415 623.681L741.992 639.993C743.083 641.53 743.083 643.567 741.992 645.104L730.415 661.416C728.585 663.995 724.677 663.995 722.847 661.416L711.27 645.104C710.179 643.567 710.179 641.53 711.27 639.993L722.847 623.681Z" fill="#009DC4"/>
<path opacity="0.1" d="M722.847 683.775C724.677 681.196 728.585 681.196 730.415 683.775L741.992 700.087C743.083 701.625 743.083 703.661 741.992 705.198L730.415 721.51C728.585 724.089 724.677 724.089 722.847 721.51L711.27 705.198C710.179 703.661 710.179 701.625 711.27 700.087L722.847 683.775Z" fill="#009DC4"/>
<path opacity="0.1" d="M722.847 743.87C724.677 741.291 728.585 741.291 730.415 743.87L741.992 760.182C743.083 761.719 743.083 763.756 741.992 765.293L730.415 781.605C728.585 784.184 724.677 784.184 722.847 781.605L711.27 765.293C710.179 763.756 710.179 761.719 711.27 760.182L722.847 743.87Z" fill="#009DC4"/>
<path opacity="0.1" d="M722.847 803.964C724.677 801.385 728.585 801.385 730.415 803.964L741.992 820.276C743.083 821.814 743.083 823.85 741.992 825.387L730.415 841.699C728.585 844.278 724.677 844.278 722.847 841.699L711.27 825.387C710.179 823.85 710.179 821.814 711.27 820.276L722.847 803.964Z" fill="#009DC4"/>
<path opacity="0.1" d="M722.847 864.058C724.677 861.479 728.585 861.479 730.415 864.058L741.992 880.37C743.083 881.908 743.083 883.944 741.992 885.481L730.415 901.794C728.585 904.372 724.677 904.372 722.847 901.794L711.27 885.481C710.179 883.944 710.179 881.908 711.27 880.37L722.847 864.058Z" fill="#009DC4"/>
<path opacity="0.1" d="M722.847 924.152C724.677 921.574 728.585 921.574 730.415 924.152L741.992 940.465C743.083 942.002 743.083 944.038 741.992 945.576L730.415 961.888C728.585 964.467 724.677 964.467 722.847 961.888L711.27 945.576C710.179 944.038 710.179 942.002 711.27 940.465L722.847 924.152Z" fill="#009DC4"/>
<path opacity="0.7" d="M376.15 959.577C377.98 962.155 381.888 962.155 383.718 959.577L395.295 943.264C396.386 941.727 396.386 939.691 395.295 938.153L383.718 921.841C381.888 919.262 377.98 919.262 376.15 921.841L364.573 938.153C363.482 939.691 363.482 941.727 364.573 943.264L376.15 959.577Z" fill="#009DC4"/>
<path opacity="0.4" d="M376.15 899.482C377.98 902.061 381.888 902.061 383.718 899.482L395.295 883.17C396.386 881.633 396.386 879.597 395.295 878.059L383.718 861.747C381.888 859.168 377.98 859.168 376.15 861.747L364.573 878.059C363.482 879.597 363.482 881.633 364.573 883.17L376.15 899.482Z" fill="#009DC4"/>
<path opacity="0.1" d="M376.15 839.388C377.98 841.967 381.888 841.967 383.718 839.388L395.295 823.076C396.386 821.538 396.386 819.502 395.295 817.965L383.718 801.653C381.888 799.074 377.98 799.074 376.15 801.653L364.573 817.965C363.482 819.502 363.482 821.538 364.573 823.076L376.15 839.388Z" fill="#009DC4"/>
<path opacity="0.1" d="M376.15 779.293C377.98 781.872 381.888 781.872 383.718 779.293L395.295 762.981C396.386 761.444 396.386 759.408 395.295 757.87L383.718 741.558C381.888 738.979 377.98 738.979 376.15 741.558L364.573 757.87C363.482 759.408 363.482 761.444 364.573 762.981L376.15 779.293Z" fill="#009DC4"/>
<path opacity="0.1" d="M376.15 719.199C377.98 721.778 381.888 721.778 383.718 719.199L395.295 702.887C396.386 701.35 396.386 699.313 395.295 697.776L383.718 681.464C381.888 678.885 377.98 678.885 376.15 681.464L364.573 697.776C363.482 699.313 363.482 701.35 364.573 702.887L376.15 719.199Z" fill="#009DC4"/>
<path opacity="0.1" d="M376.15 659.105C377.98 661.684 381.888 661.684 383.718 659.105L395.295 642.793C396.386 641.255 396.386 639.219 395.295 637.682L383.718 621.369C381.888 618.791 377.98 618.791 376.15 621.369L364.573 637.682C363.482 639.219 363.482 641.255 364.573 642.793L376.15 659.105Z" fill="#009DC4"/>
<path opacity="0.1" d="M376.15 599.011C377.98 601.59 381.888 601.59 383.718 599.011L395.295 582.698C396.386 581.161 396.386 579.125 395.295 577.587L383.718 561.275C381.888 558.696 377.98 558.696 376.15 561.275L364.573 577.587C363.482 579.125 363.482 581.161 364.573 582.698L376.15 599.011Z" fill="#009DC4"/>
<path opacity="0.1" d="M376.15 538.916C377.98 541.495 381.888 541.495 383.718 538.916L395.295 522.604C396.386 521.067 396.386 519.031 395.295 517.493L383.718 501.181C381.888 498.602 377.98 498.602 376.15 501.181L364.573 517.493C363.482 519.031 363.482 521.067 364.573 522.604L376.15 538.916Z" fill="#009DC4"/>
<path opacity="0.1" d="M376.15 478.822C377.98 481.401 381.888 481.401 383.718 478.822L395.295 462.51C396.386 460.972 396.386 458.936 395.295 457.398L383.718 441.086C381.888 438.507 377.98 438.507 376.15 441.086L364.573 457.398C363.482 458.936 363.482 460.972 364.573 462.51L376.15 478.822Z" fill="#009DC4"/>
<path opacity="0.1" d="M376.15 418.728C377.98 421.306 381.888 421.306 383.718 418.728L395.295 402.415C396.386 400.878 396.386 398.842 395.295 397.304L383.718 380.992C381.888 378.413 377.98 378.413 376.15 380.992L364.573 397.304C363.482 398.842 363.482 400.878 364.573 402.415L376.15 418.728Z" fill="#009DC4"/>
<path opacity="0.1" d="M376.15 358.633C377.98 361.212 381.888 361.212 383.718 358.633L395.295 342.321C396.386 340.784 396.386 338.747 395.295 337.21L383.718 320.898C381.888 318.319 377.98 318.319 376.15 320.898L364.573 337.21C363.482 338.747 363.482 340.784 364.573 342.321L376.15 358.633Z" fill="#009DC4"/>
<path opacity="0.1" d="M376.15 298.539C377.98 301.118 381.888 301.118 383.718 298.539L395.295 282.227C396.386 280.689 396.386 278.653 395.295 277.116L383.718 260.803C381.888 258.225 377.98 258.225 376.15 260.803L364.573 277.116C363.482 278.653 363.482 280.689 364.573 282.227L376.15 298.539Z" fill="#009DC4"/>
<path opacity="0.1" d="M376.15 238.444C377.98 241.023 381.888 241.023 383.718 238.444L395.295 222.132C396.386 220.595 396.386 218.558 395.295 217.021L383.718 200.709C381.888 198.13 377.98 198.13 376.15 200.709L364.573 217.021C363.482 218.558 363.482 220.595 364.573 222.132L376.15 238.444Z" fill="#009DC4"/>
<path opacity="0.1" d="M376.15 178.351C377.98 180.929 381.888 180.929 383.718 178.351L395.295 162.038C396.386 160.501 396.386 158.465 395.295 156.927L383.718 140.615C381.888 138.036 377.98 138.036 376.15 140.615L364.573 156.927C363.482 158.465 363.482 160.501 364.573 162.038L376.15 178.351Z" fill="#009DC4"/>
<path opacity="0.9" d="M376.15 118.256C377.98 120.835 381.888 120.835 383.718 118.256L395.295 101.944C396.386 100.407 396.386 98.3705 395.295 96.833L383.718 80.5208C381.888 77.942 377.98 77.942 376.15 80.5208L364.573 96.833C363.482 98.3705 363.482 100.407 364.573 101.944L376.15 118.256Z" fill="#009DC4"/>
<path opacity="0.7" d="M376.15 58.1621C377.98 60.7409 381.888 60.7409 383.718 58.1621L395.295 41.8498C396.386 40.3124 396.386 38.2762 395.295 36.7388L383.718 20.4265C381.888 17.8477 377.98 17.8477 376.15 20.4265L364.573 36.7388C363.482 38.2762 363.482 40.3124 364.573 41.8498L376.15 58.1621Z" fill="#009DC4"/>
<path opacity="0.1" d="M1014.07 959.577C1015.91 962.155 1019.81 962.155 1021.64 959.577L1033.22 943.264C1034.31 941.727 1034.31 939.691 1033.22 938.153L1021.64 921.841C1019.81 919.262 1015.91 919.262 1014.07 921.841L1002.5 938.153C1001.41 939.691 1001.41 941.727 1002.5 943.264L1014.07 959.577Z" fill="#009DC4"/>
<path d="M1014.07 899.482C1015.91 902.061 1019.81 902.061 1021.64 899.482L1033.22 883.17C1034.31 881.633 1034.31 879.597 1033.22 878.059L1021.64 861.747C1019.81 859.168 1015.91 859.168 1014.07 861.747L1002.5 878.059C1001.41 879.597 1001.41 881.633 1002.5 883.17L1014.07 899.482Z" fill="#009DC4"/>
<path opacity="0.9" d="M1014.07 839.388C1015.91 841.967 1019.81 841.967 1021.64 839.388L1033.22 823.076C1034.31 821.538 1034.31 819.502 1033.22 817.965L1021.64 801.653C1019.81 799.074 1015.91 799.074 1014.07 801.653L1002.5 817.965C1001.41 819.502 1001.41 821.538 1002.5 823.076L1014.07 839.388Z" fill="#009DC4"/>
<path opacity="0.8" d="M1014.07 779.293C1015.91 781.872 1019.81 781.872 1021.64 779.293L1033.22 762.981C1034.31 761.444 1034.31 759.408 1033.22 757.87L1021.64 741.558C1019.81 738.979 1015.91 738.979 1014.07 741.558L1002.5 757.87C1001.41 759.408 1001.41 761.444 1002.5 762.981L1014.07 779.293Z" fill="#009DC4"/>
<path opacity="0.7" d="M1014.07 719.199C1015.91 721.778 1019.81 721.778 1021.64 719.199L1033.22 702.887C1034.31 701.35 1034.31 699.313 1033.22 697.776L1021.64 681.464C1019.81 678.885 1015.91 678.885 1014.07 681.464L1002.5 697.776C1001.41 699.313 1001.41 701.35 1002.5 702.887L1014.07 719.199Z" fill="#009DC4"/>
<path opacity="0.6" d="M1014.07 659.105C1015.91 661.684 1019.81 661.684 1021.64 659.105L1033.22 642.793C1034.31 641.255 1034.31 639.219 1033.22 637.682L1021.64 621.369C1019.81 618.791 1015.91 618.791 1014.07 621.369L1002.5 637.682C1001.41 639.219 1001.41 641.255 1002.5 642.793L1014.07 659.105Z" fill="#009DC4"/>
<path opacity="0.4" d="M1014.07 599.011C1015.91 601.59 1019.81 601.59 1021.64 599.011L1033.22 582.698C1034.31 581.161 1034.31 579.125 1033.22 577.587L1021.64 561.275C1019.81 558.696 1015.91 558.696 1014.07 561.275L1002.5 577.587C1001.41 579.125 1001.41 581.161 1002.5 582.698L1014.07 599.011Z" fill="#009DC4"/>
<path opacity="0.2" d="M1014.07 538.916C1015.91 541.495 1019.81 541.495 1021.64 538.916L1033.22 522.604C1034.31 521.067 1034.31 519.031 1033.22 517.493L1021.64 501.181C1019.81 498.602 1015.91 498.602 1014.07 501.181L1002.5 517.493C1001.41 519.031 1001.41 521.067 1002.5 522.604L1014.07 538.916Z" fill="#009DC4"/>
<path opacity="0.1" d="M1014.07 478.822C1015.91 481.401 1019.81 481.401 1021.64 478.822L1033.22 462.51C1034.31 460.972 1034.31 458.936 1033.22 457.398L1021.64 441.086C1019.81 438.507 1015.91 438.507 1014.07 441.086L1002.5 457.398C1001.41 458.936 1001.41 460.972 1002.5 462.51L1014.07 478.822Z" fill="#009DC4"/>
<path opacity="0.1" d="M1014.07 418.728C1015.91 421.306 1019.81 421.306 1021.64 418.728L1033.22 402.415C1034.31 400.878 1034.31 398.842 1033.22 397.304L1021.64 380.992C1019.81 378.413 1015.91 378.413 1014.07 380.992L1002.5 397.304C1001.41 398.842 1001.41 400.878 1002.5 402.415L1014.07 418.728Z" fill="#009DC4"/>
<path opacity="0.1" d="M1014.07 358.633C1015.91 361.212 1019.81 361.212 1021.64 358.633L1033.22 342.321C1034.31 340.784 1034.31 338.747 1033.22 337.21L1021.64 320.898C1019.81 318.319 1015.91 318.319 1014.07 320.898L1002.5 337.21C1001.41 338.747 1001.41 340.784 1002.5 342.321L1014.07 358.633Z" fill="#009DC4"/>
<path opacity="0.1" d="M1014.07 298.539C1015.91 301.118 1019.81 301.118 1021.64 298.539L1033.22 282.227C1034.31 280.689 1034.31 278.653 1033.22 277.116L1021.64 260.803C1019.81 258.225 1015.91 258.225 1014.07 260.803L1002.5 277.116C1001.41 278.653 1001.41 280.689 1002.5 282.227L1014.07 298.539Z" fill="#009DC4"/>
<path opacity="0.1" d="M1014.07 238.444C1015.91 241.023 1019.81 241.023 1021.64 238.444L1033.22 222.132C1034.31 220.595 1034.31 218.558 1033.22 217.021L1021.64 200.709C1019.81 198.13 1015.91 198.13 1014.07 200.709L1002.5 217.021C1001.41 218.558 1001.41 220.595 1002.5 222.132L1014.07 238.444Z" fill="#009DC4"/>
<path opacity="0.1" d="M1014.07 178.351C1015.91 180.929 1019.81 180.929 1021.64 178.351L1033.22 162.038C1034.31 160.501 1034.31 158.465 1033.22 156.927L1021.64 140.615C1019.81 138.036 1015.91 138.036 1014.07 140.615L1002.5 156.927C1001.41 158.465 1001.41 160.501 1002.5 162.038L1014.07 178.351Z" fill="#009DC4"/>
<path opacity="0.1" d="M1014.07 118.256C1015.91 120.835 1019.81 120.835 1021.64 118.256L1033.22 101.944C1034.31 100.407 1034.31 98.3705 1033.22 96.833L1021.64 80.5208C1019.81 77.942 1015.91 77.942 1014.07 80.5208L1002.5 96.833C1001.41 98.3705 1001.41 100.407 1002.5 101.944L1014.07 118.256Z" fill="#009DC4"/>
<path opacity="0.1" d="M1014.07 58.1621C1015.91 60.7409 1019.81 60.7409 1021.64 58.1621L1033.22 41.8498C1034.31 40.3124 1034.31 38.2762 1033.22 36.7388L1021.64 20.4265C1019.81 17.8477 1015.91 17.8477 1014.07 20.4265L1002.5 36.7388C1001.41 38.2762 1001.41 40.3124 1002.5 41.8498L1014.07 58.1621Z" fill="#009DC4"/>
<path opacity="0.1" d="M1679.73 22.7378C1681.57 20.159 1685.47 20.159 1687.3 22.7378L1698.88 39.0501C1699.97 40.5875 1699.97 42.6237 1698.88 44.1611L1687.3 60.4734C1685.47 63.0522 1681.57 63.0522 1679.73 60.4734L1668.16 44.1611C1667.07 42.6237 1667.07 40.5875 1668.16 39.0501L1679.73 22.7378Z" fill="#009DC4"/>
<path opacity="0.1" d="M1679.73 82.832C1681.57 80.2533 1685.47 80.2532 1687.3 82.832L1698.88 99.1443C1699.97 100.682 1699.97 102.718 1698.88 104.255L1687.3 120.568C1685.47 123.146 1681.57 123.146 1679.73 120.568L1668.16 104.255C1667.07 102.718 1667.07 100.682 1668.16 99.1443L1679.73 82.832Z" fill="#009DC4"/>
<path opacity="0.1" d="M1679.73 142.926C1681.57 140.347 1685.47 140.347 1687.3 142.926L1698.88 159.239C1699.97 160.776 1699.97 162.812 1698.88 164.35L1687.3 180.662C1685.47 183.241 1681.57 183.241 1679.73 180.662L1668.16 164.35C1667.07 162.812 1667.07 160.776 1668.16 159.239L1679.73 142.926Z" fill="#009DC4"/>
<path opacity="0.1" d="M1679.73 203.021C1681.57 200.442 1685.47 200.442 1687.3 203.021L1698.88 219.333C1699.97 220.87 1699.97 222.906 1698.88 224.444L1687.3 240.756C1685.47 243.335 1681.57 243.335 1679.73 240.756L1668.16 224.444C1667.07 222.906 1667.07 220.87 1668.16 219.333L1679.73 203.021Z" fill="#009DC4"/>
<path opacity="0.1" d="M1679.73 263.115C1681.57 260.536 1685.47 260.536 1687.3 263.115L1698.88 279.427C1699.97 280.964 1699.97 283.001 1698.88 284.538L1687.3 300.85C1685.47 303.429 1681.57 303.429 1679.73 300.85L1668.16 284.538C1667.07 283.001 1667.07 280.964 1668.16 279.427L1679.73 263.115Z" fill="#009DC4"/>
<path opacity="0.1" d="M1679.73 323.209C1681.57 320.63 1685.47 320.63 1687.3 323.209L1698.88 339.521C1699.97 341.059 1699.97 343.095 1698.88 344.632L1687.3 360.945C1685.47 363.523 1681.57 363.523 1679.73 360.945L1668.16 344.632C1667.07 343.095 1667.07 341.059 1668.16 339.521L1679.73 323.209Z" fill="#009DC4"/>
<path opacity="0.1" d="M1679.73 383.303C1681.57 380.724 1685.47 380.724 1687.3 383.303L1698.88 399.615C1699.97 401.153 1699.97 403.189 1698.88 404.727L1687.3 421.039C1685.47 423.618 1681.57 423.618 1679.73 421.039L1668.16 404.727C1667.07 403.189 1667.07 401.153 1668.16 399.615L1679.73 383.303Z" fill="#009DC4"/>
<path opacity="0.1" d="M1679.73 443.397C1681.57 440.819 1685.47 440.819 1687.3 443.397L1698.88 459.71C1699.97 461.247 1699.97 463.283 1698.88 464.821L1687.3 481.133C1685.47 483.712 1681.57 483.712 1679.73 481.133L1668.16 464.821C1667.07 463.283 1667.07 461.247 1668.16 459.71L1679.73 443.397Z" fill="#009DC4"/>
<path opacity="0.1" d="M1679.73 503.492C1681.57 500.913 1685.47 500.913 1687.3 503.492L1698.88 519.804C1699.97 521.342 1699.97 523.378 1698.88 524.916L1687.3 541.228C1685.47 543.807 1681.57 543.807 1679.73 541.228L1668.16 524.916C1667.07 523.378 1667.07 521.342 1668.16 519.804L1679.73 503.492Z" fill="#009DC4"/>
<path opacity="0.15" d="M1679.73 563.586C1681.57 561.008 1685.47 561.008 1687.3 563.586L1698.88 579.899C1699.97 581.436 1699.97 583.472 1698.88 585.01L1687.3 601.322C1685.47 603.901 1681.57 603.901 1679.73 601.322L1668.16 585.01C1667.07 583.472 1667.07 581.436 1668.16 579.899L1679.73 563.586Z" fill="#009DC4"/>
<path opacity="0.2" d="M1679.73 623.681C1681.57 621.102 1685.47 621.102 1687.3 623.681L1698.88 639.993C1699.97 641.53 1699.97 643.567 1698.88 645.104L1687.3 661.416C1685.47 663.995 1681.57 663.995 1679.73 661.416L1668.16 645.104C1667.07 643.567 1667.07 641.53 1668.16 639.993L1679.73 623.681Z" fill="#009DC4"/>
<path opacity="0.3" d="M1679.73 683.775C1681.57 681.196 1685.47 681.196 1687.3 683.775L1698.88 700.087C1699.97 701.625 1699.97 703.661 1698.88 705.198L1687.3 721.51C1685.47 724.089 1681.57 724.089 1679.73 721.51L1668.16 705.198C1667.07 703.661 1667.07 701.625 1668.16 700.087L1679.73 683.775Z" fill="#009DC4"/>
<path opacity="0.4" d="M1679.73 743.87C1681.57 741.291 1685.47 741.291 1687.3 743.87L1698.88 760.182C1699.97 761.719 1699.97 763.756 1698.88 765.293L1687.3 781.605C1685.47 784.184 1681.57 784.184 1679.73 781.605L1668.16 765.293C1667.07 763.756 1667.07 761.719 1668.16 760.182L1679.73 743.87Z" fill="#009DC4"/>
<path opacity="0.5" d="M1679.73 803.964C1681.57 801.385 1685.47 801.385 1687.3 803.964L1698.88 820.276C1699.97 821.814 1699.97 823.85 1698.88 825.387L1687.3 841.699C1685.47 844.278 1681.57 844.278 1679.73 841.699L1668.16 825.387C1667.07 823.85 1667.07 821.814 1668.16 820.276L1679.73 803.964Z" fill="#009DC4"/>
<path opacity="0.7" d="M1679.73 864.058C1681.57 861.479 1685.47 861.479 1687.3 864.058L1698.88 880.37C1699.97 881.908 1699.97 883.944 1698.88 885.481L1687.3 901.794C1685.47 904.372 1681.57 904.372 1679.73 901.794L1668.16 885.481C1667.07 883.944 1667.07 881.908 1668.16 880.37L1679.73 864.058Z" fill="#009DC4"/>
<path opacity="0.9" d="M1679.73 924.152C1681.57 921.574 1685.47 921.574 1687.3 924.152L1698.88 940.465C1699.97 942.002 1699.97 944.038 1698.88 945.576L1687.3 961.888C1685.47 964.467 1681.57 964.467 1679.73 961.888L1668.16 945.576C1667.07 944.038 1667.07 942.002 1668.16 940.465L1679.73 924.152Z" fill="#009DC4"/>
<path opacity="0.1" d="M1333.04 959.577C1334.87 962.155 1338.78 962.155 1340.61 959.577L1352.18 943.264C1353.27 941.727 1353.27 939.691 1352.18 938.153L1340.61 921.841C1338.78 919.262 1334.87 919.262 1333.04 921.841L1321.46 938.153C1320.37 939.691 1320.37 941.727 1321.46 943.264L1333.04 959.577Z" fill="#009DC4"/>
<path opacity="0.1" d="M1333.04 899.483C1334.87 902.062 1338.78 902.062 1340.61 899.483L1352.18 883.171C1353.27 881.633 1353.27 879.597 1352.18 878.06L1340.61 861.747C1338.78 859.169 1334.87 859.169 1333.04 861.747L1321.46 878.06C1320.37 879.597 1320.37 881.633 1321.46 883.171L1333.04 899.483Z" fill="#009DC4"/>
<path opacity="0.1" d="M1333.04 839.388C1334.87 841.967 1338.78 841.967 1340.61 839.388L1352.18 823.076C1353.27 821.538 1353.27 819.502 1352.18 817.965L1340.61 801.653C1338.78 799.074 1334.87 799.074 1333.04 801.653L1321.46 817.965C1320.37 819.502 1320.37 821.538 1321.46 823.076L1333.04 839.388Z" fill="#009DC4"/>
<path opacity="0.1" d="M1333.04 779.294C1334.87 781.873 1338.78 781.873 1340.61 779.294L1352.18 762.982C1353.27 761.444 1353.27 759.408 1352.18 757.871L1340.61 741.558C1338.78 738.98 1334.87 738.98 1333.04 741.558L1321.46 757.871C1320.37 759.408 1320.37 761.444 1321.46 762.982L1333.04 779.294Z" fill="#009DC4"/>
<path opacity="0.1" d="M1333.04 719.2C1334.87 721.778 1338.78 721.778 1340.61 719.2L1352.18 702.887C1353.27 701.35 1353.27 699.314 1352.18 697.776L1340.61 681.464C1338.78 678.885 1334.87 678.885 1333.04 681.464L1321.46 697.776C1320.37 699.314 1320.37 701.35 1321.46 702.887L1333.04 719.2Z" fill="#009DC4"/>
<path opacity="0.1" d="M1333.04 659.105C1334.87 661.684 1338.78 661.684 1340.61 659.105L1352.18 642.793C1353.27 641.255 1353.27 639.219 1352.18 637.682L1340.61 621.369C1338.78 618.791 1334.87 618.791 1333.04 621.369L1321.46 637.682C1320.37 639.219 1320.37 641.255 1321.46 642.793L1333.04 659.105Z" fill="#009DC4"/>
<path opacity="0.1" d="M1333.04 599.011C1334.87 601.59 1338.78 601.59 1340.61 599.011L1352.18 582.698C1353.27 581.161 1353.27 579.125 1352.18 577.587L1340.61 561.275C1338.78 558.696 1334.87 558.696 1333.04 561.275L1321.46 577.587C1320.37 579.125 1320.37 581.161 1321.46 582.698L1333.04 599.011Z" fill="#009DC4"/>
<path opacity="0.1" d="M1333.04 538.916C1334.87 541.495 1338.78 541.495 1340.61 538.916L1352.18 522.604C1353.27 521.067 1353.27 519.031 1352.18 517.493L1340.61 501.181C1338.78 498.602 1334.87 498.602 1333.04 501.181L1321.46 517.493C1320.37 519.031 1320.37 521.067 1321.46 522.604L1333.04 538.916Z" fill="#009DC4"/>
<path opacity="0.1" d="M1333.04 478.822C1334.87 481.401 1338.78 481.401 1340.61 478.822L1352.18 462.51C1353.27 460.973 1353.27 458.936 1352.18 457.399L1340.61 441.087C1338.78 438.508 1334.87 438.508 1333.04 441.087L1321.46 457.399C1320.37 458.936 1320.37 460.973 1321.46 462.51L1333.04 478.822Z" fill="#009DC4"/>
<path opacity="0.1" d="M1333.04 418.728C1334.87 421.306 1338.78 421.306 1340.61 418.728L1352.18 402.415C1353.27 400.878 1353.27 398.842 1352.18 397.304L1340.61 380.992C1338.78 378.413 1334.87 378.413 1333.04 380.992L1321.46 397.304C1320.37 398.842 1320.37 400.878 1321.46 402.415L1333.04 418.728Z" fill="#009DC4"/>
<path opacity="0.1" d="M1333.04 358.633C1334.87 361.212 1338.78 361.212 1340.61 358.633L1352.18 342.321C1353.27 340.784 1353.27 338.747 1352.18 337.21L1340.61 320.898C1338.78 318.319 1334.87 318.319 1333.04 320.898L1321.46 337.21C1320.37 338.747 1320.37 340.784 1321.46 342.321L1333.04 358.633Z" fill="#009DC4"/>
<path opacity="0.1" d="M1333.04 298.539C1334.87 301.118 1338.78 301.118 1340.61 298.539L1352.18 282.227C1353.27 280.689 1353.27 278.653 1352.18 277.116L1340.61 260.803C1338.78 258.225 1334.87 258.225 1333.04 260.803L1321.46 277.116C1320.37 278.653 1320.37 280.689 1321.46 282.227L1333.04 298.539Z" fill="#009DC4"/>
<path opacity="0.1" d="M1333.04 238.445C1334.87 241.024 1338.78 241.024 1340.61 238.445L1352.18 222.133C1353.27 220.595 1353.27 218.559 1352.18 217.021L1340.61 200.709C1338.78 198.13 1334.87 198.13 1333.04 200.709L1321.46 217.021C1320.37 218.559 1320.37 220.595 1321.46 222.133L1333.04 238.445Z" fill="#009DC4"/>
<path opacity="0.1" d="M1333.04 178.351C1334.87 180.929 1338.78 180.929 1340.61 178.351L1352.18 162.038C1353.27 160.501 1353.27 158.465 1352.18 156.927L1340.61 140.615C1338.78 138.036 1334.87 138.036 1333.04 140.615L1321.46 156.927C1320.37 158.465 1320.37 160.501 1321.46 162.038L1333.04 178.351Z" fill="#009DC4"/>
<path opacity="0.7" d="M1333.04 118.256C1334.87 120.835 1338.78 120.835 1340.61 118.256L1352.18 101.944C1353.27 100.407 1353.27 98.3705 1352.18 96.833L1340.61 80.5208C1338.78 77.942 1334.87 77.942 1333.04 80.5208L1321.46 96.833C1320.37 98.3705 1320.37 100.407 1321.46 101.944L1333.04 118.256Z" fill="#009DC4"/>
<path opacity="0.5" d="M1333.04 58.1621C1334.87 60.7409 1338.78 60.7409 1340.61 58.1621L1352.18 41.8498C1353.27 40.3124 1353.27 38.2762 1352.18 36.7388L1340.61 20.4265C1338.78 17.8477 1334.87 17.8477 1333.04 20.4265L1321.46 36.7388C1320.37 38.2762 1320.37 40.3124 1321.46 41.8498L1333.04 58.1621Z" fill="#009DC4"/>
<path opacity="0.1" d="M1897 959.577C1898.83 962.155 1902.74 962.155 1904.57 959.577L1916.14 943.264C1917.24 941.727 1917.24 939.691 1916.14 938.153L1904.57 921.841C1902.74 919.262 1898.83 919.262 1897 921.841L1885.42 938.153C1884.33 939.691 1884.33 941.727 1885.42 943.264L1897 959.577Z" fill="#009DC4"/>
<path opacity="0.1" d="M1897 899.483C1898.83 902.062 1902.74 902.062 1904.57 899.483L1916.14 883.171C1917.24 881.633 1917.24 879.597 1916.14 878.06L1904.57 861.747C1902.74 859.169 1898.83 859.169 1897 861.747L1885.42 878.06C1884.33 879.597 1884.33 881.633 1885.42 883.171L1897 899.483Z" fill="#009DC4"/>
<path opacity="0.1" d="M1897 839.388C1898.83 841.967 1902.74 841.967 1904.57 839.388L1916.14 823.076C1917.24 821.538 1917.24 819.502 1916.14 817.965L1904.57 801.653C1902.74 799.074 1898.83 799.074 1897 801.653L1885.42 817.965C1884.33 819.502 1884.33 821.538 1885.42 823.076L1897 839.388Z" fill="#009DC4"/>
<path opacity="0.1" d="M1897 779.294C1898.83 781.873 1902.74 781.873 1904.57 779.294L1916.14 762.982C1917.24 761.444 1917.24 759.408 1916.14 757.871L1904.57 741.558C1902.74 738.98 1898.83 738.98 1897 741.558L1885.42 757.871C1884.33 759.408 1884.33 761.444 1885.42 762.982L1897 779.294Z" fill="#009DC4"/>
<path opacity="0.1" d="M1897 719.2C1898.83 721.778 1902.74 721.778 1904.57 719.2L1916.14 702.887C1917.24 701.35 1917.24 699.314 1916.14 697.776L1904.57 681.464C1902.74 678.885 1898.83 678.885 1897 681.464L1885.42 697.776C1884.33 699.314 1884.33 701.35 1885.42 702.887L1897 719.2Z" fill="#009DC4"/>
<path opacity="0.1" d="M1897 659.105C1898.83 661.684 1902.74 661.684 1904.57 659.105L1916.14 642.793C1917.24 641.255 1917.24 639.219 1916.14 637.682L1904.57 621.369C1902.74 618.791 1898.83 618.791 1897 621.369L1885.42 637.682C1884.33 639.219 1884.33 641.255 1885.42 642.793L1897 659.105Z" fill="#009DC4"/>
<path opacity="0.1" d="M1897 599.011C1898.83 601.59 1902.74 601.59 1904.57 599.011L1916.14 582.698C1917.24 581.161 1917.24 579.125 1916.14 577.587L1904.57 561.275C1902.74 558.696 1898.83 558.696 1897 561.275L1885.42 577.587C1884.33 579.125 1884.33 581.161 1885.42 582.698L1897 599.011Z" fill="#009DC4"/>
<path opacity="0.1" d="M1897 538.916C1898.83 541.495 1902.74 541.495 1904.57 538.916L1916.14 522.604C1917.24 521.067 1917.24 519.031 1916.14 517.493L1904.57 501.181C1902.74 498.602 1898.83 498.602 1897 501.181L1885.42 517.493C1884.33 519.031 1884.33 521.067 1885.42 522.604L1897 538.916Z" fill="#009DC4"/>
<path opacity="0.1" d="M1897 478.822C1898.83 481.401 1902.74 481.401 1904.57 478.822L1916.14 462.51C1917.24 460.973 1917.24 458.936 1916.14 457.399L1904.57 441.087C1902.74 438.508 1898.83 438.508 1897 441.087L1885.42 457.399C1884.33 458.936 1884.33 460.973 1885.42 462.51L1897 478.822Z" fill="#009DC4"/>
<path opacity="0.1" d="M1897 418.728C1898.83 421.306 1902.74 421.306 1904.57 418.728L1916.14 402.415C1917.24 400.878 1917.24 398.842 1916.14 397.304L1904.57 380.992C1902.74 378.413 1898.83 378.413 1897 380.992L1885.42 397.304C1884.33 398.842 1884.33 400.878 1885.42 402.415L1897 418.728Z" fill="#009DC4"/>
<path opacity="0.1" d="M1897 358.633C1898.83 361.212 1902.74 361.212 1904.57 358.633L1916.14 342.321C1917.24 340.784 1917.24 338.747 1916.14 337.21L1904.57 320.898C1902.74 318.319 1898.83 318.319 1897 320.898L1885.42 337.21C1884.33 338.747 1884.33 340.784 1885.42 342.321L1897 358.633Z" fill="#009DC4"/>
<path opacity="0.6" d="M1897 298.539C1898.83 301.118 1902.74 301.118 1904.57 298.539L1916.14 282.227C1917.24 280.689 1917.24 278.653 1916.14 277.116L1904.57 260.803C1902.74 258.225 1898.83 258.225 1897 260.803L1885.42 277.116C1884.33 278.653 1884.33 280.689 1885.42 282.227L1897 298.539Z" fill="#009DC4"/>
<path opacity="0.5" d="M1897 238.445C1898.83 241.024 1902.74 241.024 1904.57 238.445L1916.14 222.133C1917.24 220.595 1917.24 218.559 1916.14 217.021L1904.57 200.709C1902.74 198.13 1898.83 198.13 1897 200.709L1885.42 217.021C1884.33 218.559 1884.33 220.595 1885.42 222.133L1897 238.445Z" fill="#009DC4"/>
<path opacity="0.3" d="M1897 178.351C1898.83 180.929 1902.74 180.929 1904.57 178.351L1916.14 162.038C1917.24 160.501 1917.24 158.465 1916.14 156.927L1904.57 140.615C1902.74 138.036 1898.83 138.036 1897 140.615L1885.42 156.927C1884.33 158.465 1884.33 160.501 1885.42 162.038L1897 178.351Z" fill="#009DC4"/>
<path opacity="0.1" d="M1897 118.256C1898.83 120.835 1902.74 120.835 1904.57 118.256L1916.14 101.944C1917.24 100.407 1917.24 98.3705 1916.14 96.833L1904.57 80.5208C1902.74 77.942 1898.83 77.942 1897 80.5208L1885.42 96.833C1884.33 98.3705 1884.33 100.407 1885.42 101.944L1897 118.256Z" fill="#009DC4"/>
<path opacity="0.1" d="M1897 58.1621C1898.83 60.7409 1902.74 60.7409 1904.57 58.1621L1916.14 41.8498C1917.24 40.3124 1917.24 38.2762 1916.14 36.7388L1904.57 20.4265C1902.74 17.8477 1898.83 17.8477 1897 20.4265L1885.42 36.7388C1884.33 38.2762 1884.33 40.3124 1885.42 41.8498L1897 58.1621Z" fill="#009DC4"/>
<path opacity="0.1" d="M2211.34 959.577C2213.17 962.155 2217.08 962.155 2218.91 959.577L2230.48 943.264C2231.58 941.727 2231.58 939.691 2230.48 938.153L2218.91 921.841C2217.08 919.262 2213.17 919.262 2211.34 921.841L2199.76 938.153C2198.67 939.691 2198.67 941.727 2199.76 943.264L2211.34 959.577Z" fill="#009DC4"/>
<path opacity="0.1" d="M2211.34 899.483C2213.17 902.062 2217.08 902.062 2218.91 899.483L2230.48 883.171C2231.58 881.633 2231.58 879.597 2230.48 878.06L2218.91 861.747C2217.08 859.169 2213.17 859.169 2211.34 861.747L2199.76 878.06C2198.67 879.597 2198.67 881.633 2199.76 883.171L2211.34 899.483Z" fill="#009DC4"/>
<path opacity="0.1" d="M2211.34 839.388C2213.17 841.967 2217.08 841.967 2218.91 839.388L2230.48 823.076C2231.58 821.538 2231.58 819.502 2230.48 817.965L2218.91 801.653C2217.08 799.074 2213.17 799.074 2211.34 801.653L2199.76 817.965C2198.67 819.502 2198.67 821.538 2199.76 823.076L2211.34 839.388Z" fill="#009DC4"/>
<path opacity="0.1" d="M2211.34 779.294C2213.17 781.873 2217.08 781.873 2218.91 779.294L2230.48 762.982C2231.58 761.444 2231.58 759.408 2230.48 757.871L2218.91 741.558C2217.08 738.98 2213.17 738.98 2211.34 741.558L2199.76 757.871C2198.67 759.408 2198.67 761.444 2199.76 762.982L2211.34 779.294Z" fill="#009DC4"/>
<path opacity="0.1" d="M2211.34 719.2C2213.17 721.778 2217.08 721.778 2218.91 719.2L2230.48 702.887C2231.58 701.35 2231.58 699.314 2230.48 697.776L2218.91 681.464C2217.08 678.885 2213.17 678.885 2211.34 681.464L2199.76 697.776C2198.67 699.314 2198.67 701.35 2199.76 702.887L2211.34 719.2Z" fill="#009DC4"/>
<path opacity="0.1" d="M2211.34 659.105C2213.17 661.684 2217.08 661.684 2218.91 659.105L2230.48 642.793C2231.58 641.255 2231.58 639.219 2230.48 637.682L2218.91 621.369C2217.08 618.791 2213.17 618.791 2211.34 621.369L2199.76 637.682C2198.67 639.219 2198.67 641.255 2199.76 642.793L2211.34 659.105Z" fill="#009DC4"/>
<path opacity="0.1" d="M2211.34 599.011C2213.17 601.59 2217.08 601.59 2218.91 599.011L2230.48 582.698C2231.58 581.161 2231.58 579.125 2230.48 577.587L2218.91 561.275C2217.08 558.696 2213.17 558.696 2211.34 561.275L2199.76 577.587C2198.67 579.125 2198.67 581.161 2199.76 582.698L2211.34 599.011Z" fill="#009DC4"/>
<path opacity="0.3" d="M2211.34 538.916C2213.17 541.495 2217.08 541.495 2218.91 538.916L2230.48 522.604C2231.58 521.067 2231.58 519.031 2230.48 517.493L2218.91 501.181C2217.08 498.602 2213.17 498.602 2211.34 501.181L2199.76 517.493C2198.67 519.031 2198.67 521.067 2199.76 522.604L2211.34 538.916Z" fill="#009DC4"/>
<path opacity="0.5" d="M2211.34 478.822C2213.17 481.401 2217.08 481.401 2218.91 478.822L2230.48 462.51C2231.58 460.973 2231.58 458.936 2230.48 457.399L2218.91 441.087C2217.08 438.508 2213.17 438.508 2211.34 441.087L2199.76 457.399C2198.67 458.936 2198.67 460.973 2199.76 462.51L2211.34 478.822Z" fill="#009DC4"/>
<path opacity="0.7" d="M2211.34 418.728C2213.17 421.306 2217.08 421.306 2218.91 418.728L2230.48 402.415C2231.58 400.878 2231.58 398.842 2230.48 397.304L2218.91 380.992C2217.08 378.413 2213.17 378.413 2211.34 380.992L2199.76 397.304C2198.67 398.842 2198.67 400.878 2199.76 402.415L2211.34 418.728Z" fill="#009DC4"/>
<path opacity="0.8" d="M2211.34 358.633C2213.17 361.212 2217.08 361.212 2218.91 358.633L2230.48 342.321C2231.58 340.784 2231.58 338.747 2230.48 337.21L2218.91 320.898C2217.08 318.319 2213.17 318.319 2211.34 320.898L2199.76 337.21C2198.67 338.747 2198.67 340.784 2199.76 342.321L2211.34 358.633Z" fill="#009DC4"/>
<path opacity="0.9" d="M2211.34 298.539C2213.17 301.118 2217.08 301.118 2218.91 298.539L2230.48 282.227C2231.58 280.689 2231.58 278.653 2230.48 277.116L2218.91 260.803C2217.08 258.225 2213.17 258.225 2211.34 260.803L2199.76 277.116C2198.67 278.653 2198.67 280.689 2199.76 282.227L2211.34 298.539Z" fill="#009DC4"/>
<path d="M2211.34 238.445C2213.17 241.024 2217.08 241.024 2218.91 238.445L2230.48 222.133C2231.58 220.595 2231.58 218.559 2230.48 217.021L2218.91 200.709C2217.08 198.13 2213.17 198.13 2211.34 200.709L2199.76 217.021C2198.67 218.559 2198.67 220.595 2199.76 222.133L2211.34 238.445Z" fill="#009DC4"/>
<path opacity="0.1" d="M2211.34 178.351C2213.17 180.929 2217.08 180.929 2218.91 178.351L2230.48 162.038C2231.58 160.501 2231.58 158.465 2230.48 156.927L2218.91 140.615C2217.08 138.036 2213.17 138.036 2211.34 140.615L2199.76 156.927C2198.67 158.465 2198.67 160.501 2199.76 162.038L2211.34 178.351Z" fill="#009DC4"/>
<path opacity="0.1" d="M2211.34 118.256C2213.17 120.835 2217.08 120.835 2218.91 118.256L2230.48 101.944C2231.58 100.407 2231.58 98.3705 2230.48 96.833L2218.91 80.5208C2217.08 77.942 2213.17 77.942 2211.34 80.5208L2199.76 96.833C2198.67 98.3705 2198.67 100.407 2199.76 101.944L2211.34 118.256Z" fill="#009DC4"/>
<path opacity="0.1" d="M2211.34 58.1621C2213.17 60.7409 2217.08 60.7409 2218.91 58.1621L2230.48 41.8498C2231.58 40.3124 2231.58 38.2762 2230.48 36.7388L2218.91 20.4265C2217.08 17.8477 2213.17 17.8477 2211.34 20.4265L2199.76 36.7388C2198.67 38.2762 2198.67 40.3124 2199.76 41.8498L2211.34 58.1621Z" fill="#009DC4"/>
<path opacity="0.1" d="M2692.09 959.577C2693.92 962.155 2697.83 962.155 2699.66 959.577L2711.24 943.264C2712.33 941.727 2712.33 939.691 2711.24 938.153L2699.66 921.841C2697.83 919.262 2693.92 919.262 2692.09 921.841L2680.52 938.153C2679.43 939.691 2679.43 941.727 2680.52 943.264L2692.09 959.577Z" fill="#009DC4"/>
<path opacity="0.1" d="M2692.09 899.482C2693.92 902.061 2697.83 902.061 2699.66 899.482L2711.24 883.17C2712.33 881.633 2712.33 879.597 2711.24 878.059L2699.66 861.747C2697.83 859.168 2693.92 859.168 2692.09 861.747L2680.52 878.059C2679.43 879.597 2679.43 881.633 2680.52 883.17L2692.09 899.482Z" fill="#009DC4"/>
<path opacity="0.1" d="M2692.09 839.388C2693.92 841.967 2697.83 841.967 2699.66 839.388L2711.24 823.076C2712.33 821.538 2712.33 819.502 2711.24 817.965L2699.66 801.653C2697.83 799.074 2693.92 799.074 2692.09 801.653L2680.52 817.965C2679.43 819.502 2679.43 821.538 2680.52 823.076L2692.09 839.388Z" fill="#009DC4"/>
<path opacity="0.1" d="M2692.09 779.294C2693.92 781.873 2697.83 781.873 2699.66 779.294L2711.24 762.982C2712.33 761.444 2712.33 759.408 2711.24 757.871L2699.66 741.558C2697.83 738.98 2693.92 738.98 2692.09 741.558L2680.52 757.871C2679.43 759.408 2679.43 761.444 2680.52 762.982L2692.09 779.294Z" fill="#009DC4"/>
<path opacity="0.1" d="M2692.09 719.2C2693.92 721.778 2697.83 721.778 2699.66 719.2L2711.24 702.887C2712.33 701.35 2712.33 699.314 2711.24 697.776L2699.66 681.464C2697.83 678.885 2693.92 678.885 2692.09 681.464L2680.52 697.776C2679.43 699.314 2679.43 701.35 2680.52 702.887L2692.09 719.2Z" fill="#009DC4"/>
<path opacity="0.1" d="M2692.09 659.105C2693.92 661.684 2697.83 661.684 2699.66 659.105L2711.24 642.793C2712.33 641.255 2712.33 639.219 2711.24 637.682L2699.66 621.369C2697.83 618.791 2693.92 618.791 2692.09 621.369L2680.52 637.682C2679.43 639.219 2679.43 641.255 2680.52 642.793L2692.09 659.105Z" fill="#009DC4"/>
<path opacity="0.1" d="M2692.09 599.011C2693.92 601.59 2697.83 601.59 2699.66 599.011L2711.24 582.698C2712.33 581.161 2712.33 579.125 2711.24 577.587L2699.66 561.275C2697.83 558.696 2693.92 558.696 2692.09 561.275L2680.52 577.587C2679.43 579.125 2679.43 581.161 2680.52 582.698L2692.09 599.011Z" fill="#009DC4"/>
<path opacity="0.1" d="M2692.09 538.916C2693.92 541.495 2697.83 541.495 2699.66 538.916L2711.24 522.604C2712.33 521.067 2712.33 519.031 2711.24 517.493L2699.66 501.181C2697.83 498.602 2693.92 498.602 2692.09 501.181L2680.52 517.493C2679.43 519.031 2679.43 521.067 2680.52 522.604L2692.09 538.916Z" fill="#009DC4"/>
<path opacity="0.1" d="M2692.09 478.822C2693.92 481.401 2697.83 481.401 2699.66 478.822L2711.24 462.51C2712.33 460.973 2712.33 458.936 2711.24 457.399L2699.66 441.087C2697.83 438.508 2693.92 438.508 2692.09 441.087L2680.52 457.399C2679.43 458.936 2679.43 460.973 2680.52 462.51L2692.09 478.822Z" fill="#009DC4"/>
<path opacity="0.1" d="M2692.09 418.728C2693.92 421.306 2697.83 421.306 2699.66 418.728L2711.24 402.415C2712.33 400.878 2712.33 398.842 2711.24 397.304L2699.66 380.992C2697.83 378.413 2693.92 378.413 2692.09 380.992L2680.52 397.304C2679.43 398.842 2679.43 400.878 2680.52 402.415L2692.09 418.728Z" fill="#009DC4"/>
<path opacity="0.1" d="M2692.09 358.633C2693.92 361.212 2697.83 361.212 2699.66 358.633L2711.24 342.321C2712.33 340.784 2712.33 338.747 2711.24 337.21L2699.66 320.898C2697.83 318.319 2693.92 318.319 2692.09 320.898L2680.52 337.21C2679.43 338.747 2679.43 340.784 2680.52 342.321L2692.09 358.633Z" fill="#009DC4"/>
<path opacity="0.1" d="M2692.09 298.539C2693.92 301.118 2697.83 301.118 2699.66 298.539L2711.24 282.227C2712.33 280.689 2712.33 278.653 2711.24 277.116L2699.66 260.803C2697.83 258.225 2693.92 258.225 2692.09 260.803L2680.52 277.116C2679.43 278.653 2679.43 280.689 2680.52 282.227L2692.09 298.539Z" fill="#009DC4"/>
<path opacity="0.1" d="M2692.09 238.445C2693.92 241.024 2697.83 241.024 2699.66 238.445L2711.24 222.133C2712.33 220.595 2712.33 218.559 2711.24 217.021L2699.66 200.709C2697.83 198.13 2693.92 198.13 2692.09 200.709L2680.52 217.021C2679.43 218.559 2679.43 220.595 2680.52 222.133L2692.09 238.445Z" fill="#009DC4"/>
<path opacity="0.1" d="M2692.09 178.351C2693.92 180.929 2697.83 180.929 2699.66 178.351L2711.24 162.038C2712.33 160.501 2712.33 158.465 2711.24 156.927L2699.66 140.615C2697.83 138.036 2693.92 138.036 2692.09 140.615L2680.52 156.927C2679.43 158.465 2679.43 160.501 2680.52 162.038L2692.09 178.351Z" fill="#009DC4"/>
<path opacity="0.7" d="M2692.09 118.256C2693.92 120.835 2697.83 120.835 2699.66 118.256L2711.24 101.944C2712.33 100.407 2712.33 98.3705 2711.24 96.833L2699.66 80.5208C2697.83 77.942 2693.92 77.942 2692.09 80.5208L2680.52 96.833C2679.43 98.3705 2679.43 100.407 2680.52 101.944L2692.09 118.256Z" fill="#009DC4"/>
<path opacity="0.4" d="M2692.09 58.1621C2693.92 60.7409 2697.83 60.7409 2699.66 58.1621L2711.24 41.8498C2712.33 40.3124 2712.33 38.2762 2711.24 36.7388L2699.66 20.4265C2697.83 17.8477 2693.92 17.8477 2692.09 20.4265L2680.52 36.7388C2679.43 38.2762 2679.43 40.3124 2680.52 41.8498L2692.09 58.1621Z" fill="#009DC4"/>
<path d="M2359.26 959.577C2361.09 962.155 2365 962.155 2366.83 959.577L2378.41 943.264C2379.5 941.727 2379.5 939.691 2378.41 938.153L2366.83 921.841C2365 919.262 2361.09 919.262 2359.26 921.841L2347.69 938.153C2346.6 939.691 2346.6 941.727 2347.69 943.264L2359.26 959.577Z" fill="#009DC4"/>
<path opacity="0.9" d="M2359.26 899.483C2361.09 902.062 2365 902.062 2366.83 899.483L2378.41 883.171C2379.5 881.633 2379.5 879.597 2378.41 878.06L2366.83 861.747C2365 859.169 2361.09 859.169 2359.26 861.747L2347.69 878.06C2346.6 879.597 2346.6 881.633 2347.69 883.171L2359.26 899.483Z" fill="#009DC4"/>
<path opacity="0.5" d="M2359.26 839.388C2361.09 841.967 2365 841.967 2366.83 839.388L2378.41 823.076C2379.5 821.538 2379.5 819.502 2378.41 817.965L2366.83 801.653C2365 799.074 2361.09 799.074 2359.26 801.653L2347.69 817.965C2346.6 819.502 2346.6 821.538 2347.69 823.076L2359.26 839.388Z" fill="#009DC4"/>
<path opacity="0.2" d="M2359.26 779.294C2361.09 781.873 2365 781.873 2366.83 779.294L2378.41 762.982C2379.5 761.444 2379.5 759.408 2378.41 757.871L2366.83 741.558C2365 738.98 2361.09 738.98 2359.26 741.558L2347.69 757.871C2346.6 759.408 2346.6 761.444 2347.69 762.982L2359.26 779.294Z" fill="#009DC4"/>
<path opacity="0.1" d="M2359.26 719.2C2361.09 721.778 2365 721.778 2366.83 719.2L2378.41 702.887C2379.5 701.35 2379.5 699.314 2378.41 697.776L2366.83 681.464C2365 678.885 2361.09 678.885 2359.26 681.464L2347.69 697.776C2346.6 699.314 2346.6 701.35 2347.69 702.887L2359.26 719.2Z" fill="#009DC4"/>
<path opacity="0.1" d="M2359.26 659.105C2361.09 661.684 2365 661.684 2366.83 659.105L2378.41 642.793C2379.5 641.255 2379.5 639.219 2378.41 637.682L2366.83 621.369C2365 618.791 2361.09 618.791 2359.26 621.369L2347.69 637.682C2346.6 639.219 2346.6 641.255 2347.69 642.793L2359.26 659.105Z" fill="#009DC4"/>
<path opacity="0.1" d="M2359.26 599.011C2361.09 601.59 2365 601.59 2366.83 599.011L2378.41 582.698C2379.5 581.161 2379.5 579.125 2378.41 577.587L2366.83 561.275C2365 558.696 2361.09 558.696 2359.26 561.275L2347.69 577.587C2346.6 579.125 2346.6 581.161 2347.69 582.698L2359.26 599.011Z" fill="#009DC4"/>
<path opacity="0.1" d="M2359.26 538.916C2361.09 541.495 2365 541.495 2366.83 538.916L2378.41 522.604C2379.5 521.067 2379.5 519.031 2378.41 517.493L2366.83 501.181C2365 498.602 2361.09 498.602 2359.26 501.181L2347.69 517.493C2346.6 519.031 2346.6 521.067 2347.69 522.604L2359.26 538.916Z" fill="#009DC4"/>
<path opacity="0.1" d="M2359.26 478.822C2361.09 481.401 2365 481.401 2366.83 478.822L2378.41 462.51C2379.5 460.973 2379.5 458.936 2378.41 457.399L2366.83 441.087C2365 438.508 2361.09 438.508 2359.26 441.087L2347.69 457.399C2346.6 458.936 2346.6 460.973 2347.69 462.51L2359.26 478.822Z" fill="#009DC4"/>
<path opacity="0.1" d="M2359.26 418.728C2361.09 421.306 2365 421.306 2366.83 418.728L2378.41 402.415C2379.5 400.878 2379.5 398.842 2378.41 397.304L2366.83 380.992C2365 378.413 2361.09 378.413 2359.26 380.992L2347.69 397.304C2346.6 398.842 2346.6 400.878 2347.69 402.415L2359.26 418.728Z" fill="#009DC4"/>
<path opacity="0.1" d="M2359.26 358.633C2361.09 361.212 2365 361.212 2366.83 358.633L2378.41 342.321C2379.5 340.784 2379.5 338.747 2378.41 337.21L2366.83 320.898C2365 318.319 2361.09 318.319 2359.26 320.898L2347.69 337.21C2346.6 338.747 2346.6 340.784 2347.69 342.321L2359.26 358.633Z" fill="#009DC4"/>
<path opacity="0.1" d="M2359.26 298.539C2361.09 301.118 2365 301.118 2366.83 298.539L2378.41 282.227C2379.5 280.689 2379.5 278.653 2378.41 277.116L2366.83 260.803C2365 258.225 2361.09 258.225 2359.26 260.803L2347.69 277.116C2346.6 278.653 2346.6 280.689 2347.69 282.227L2359.26 298.539Z" fill="#009DC4"/>
<path opacity="0.1" d="M2359.26 238.445C2361.09 241.024 2365 241.024 2366.83 238.445L2378.41 222.133C2379.5 220.595 2379.5 218.559 2378.41 217.021L2366.83 200.709C2365 198.13 2361.09 198.13 2359.26 200.709L2347.69 217.021C2346.6 218.559 2346.6 220.595 2347.69 222.133L2359.26 238.445Z" fill="#009DC4"/>
<path opacity="0.1" d="M2359.26 178.351C2361.09 180.929 2365 180.929 2366.83 178.351L2378.41 162.038C2379.5 160.501 2379.5 158.465 2378.41 156.927L2366.83 140.615C2365 138.036 2361.09 138.036 2359.26 140.615L2347.69 156.927C2346.6 158.465 2346.6 160.501 2347.69 162.038L2359.26 178.351Z" fill="#009DC4"/>
<path opacity="0.1" d="M2359.26 118.256C2361.09 120.835 2365 120.835 2366.83 118.256L2378.41 101.944C2379.5 100.407 2379.5 98.3705 2378.41 96.833L2366.83 80.5208C2365 77.942 2361.09 77.942 2359.26 80.5208L2347.69 96.833C2346.6 98.3705 2346.6 100.407 2347.69 101.944L2359.26 118.256Z" fill="#009DC4"/>
<path opacity="0.1" d="M2359.26 58.1621C2361.09 60.7409 2365 60.7409 2366.83 58.1621L2378.41 41.8498C2379.5 40.3124 2379.5 38.2762 2378.41 36.7388L2366.83 20.4265C2365 17.8477 2361.09 17.8477 2359.26 20.4265L2347.69 36.7388C2346.6 38.2762 2346.6 40.3124 2347.69 41.8498L2359.26 58.1621Z" fill="#009DC4"/>
</g>
<defs>
<linearGradient id="paint0_linear_1130_4308" x1="2792" y1="0" x2="1279.31" y2="1940.43" gradientUnits="userSpaceOnUse">
<stop stop-color="#07122F"/>
<stop offset="1" stop-color="#18181A"/>
</linearGradient>
</defs>
</svg>
