<svg width="204" height="80" viewBox="0 0 204 80" fill="none" xmlns="http://www.w3.org/2000/svg">
<path fill-rule="evenodd" clip-rule="evenodd" d="M188 4H120C118.895 4 118 4.89543 118 6V30.4557C118 31.5603 118.895 32.4557 120 32.4557H123.067C124.841 32.4557 126.525 33.2413 127.665 34.6014L132 39.7732L136.335 34.6014C137.475 33.2413 139.159 32.4557 140.933 32.4557H188C189.105 32.4557 190 31.5603 190 30.4557V6C190 4.89543 189.105 4 188 4ZM120 0C116.686 0 114 2.68629 114 6V30.4557C114 33.7694 116.686 36.4557 120 36.4557H123.067C123.658 36.4557 124.22 36.7176 124.6 37.1709L130.467 44.1713C131.267 45.125 132.733 45.125 133.533 44.1713L139.4 37.1709C139.78 36.7176 140.342 36.4557 140.933 36.4557H188C191.314 36.4557 194 33.7694 194 30.4557V6C194 2.68629 191.314 0 188 0H120Z" fill="#464547"/>
<path d="M132.812 27.2742C131.794 28.505 129.879 28.505 128.86 27.2742L122.569 19.6715C121.81 18.7547 121.81 17.4418 122.569 16.525L128.86 8.9223C129.879 7.69149 131.794 7.69149 132.812 8.9223L139.104 16.525C139.863 17.4418 139.863 18.7547 139.104 19.6715L132.812 27.2742Z" fill="#85B5FF"/>
<path d="M155.812 27.2742C154.794 28.505 152.879 28.505 151.86 27.2742L145.569 19.6715C144.81 18.7547 144.81 17.4418 145.569 16.525L151.86 8.9223C152.879 7.69149 154.794 7.69149 155.812 8.9223L162.104 16.525C162.863 17.4418 162.863 18.7547 162.104 19.6715L155.812 27.2742Z" fill="#85B5FF"/>
<path d="M178.812 27.2742C177.794 28.505 175.879 28.505 174.86 27.2742L168.569 19.6715C167.81 18.7547 167.81 17.4418 168.569 16.525L174.86 8.9223C175.879 7.69149 177.794 7.69149 178.812 8.9223L185.104 16.525C185.863 17.4418 185.863 18.7547 185.104 19.6715L178.812 27.2742Z" fill="#85B5FF"/>
<path d="M34.75 18.5C34.75 23.3325 30.8325 27.25 26 27.25C21.1675 27.25 17.25 23.3325 17.25 18.5C17.25 13.6675 21.1675 9.75 26 9.75C30.8325 9.75 34.75 13.6675 34.75 18.5Z" fill="#85B5FF"/>
<path d="M57.75 18.5C57.75 23.3325 53.8325 27.25 49 27.25C44.1675 27.25 40.25 23.3325 40.25 18.5C40.25 13.6675 44.1675 9.75 49 9.75C53.8325 9.75 57.75 13.6675 57.75 18.5Z" fill="#85B5FF"/>
<path d="M80.75 18.5C80.75 23.3325 76.8325 27.25 72 27.25C67.1675 27.25 63.25 23.3325 63.25 18.5C63.25 13.6675 67.1675 9.75 72 9.75C76.8325 9.75 80.75 13.6675 80.75 18.5Z" fill="#85B5FF"/>
<path fill-rule="evenodd" clip-rule="evenodd" d="M15 4H83C84.1046 4 85 4.89543 85 6V30.4557C85 31.5603 84.1046 32.4557 83 32.4557H79.9333C78.1586 32.4557 76.475 33.2413 75.335 34.6014L71 39.7732L66.6651 34.6014C65.525 33.2413 63.8414 32.4557 62.0667 32.4557H15C13.8954 32.4557 13 31.5603 13 30.4557V6C13 4.89543 13.8954 4 15 4ZM83 0C86.3137 0 89 2.68629 89 6V30.4557C89 33.7694 86.3137 36.4557 83 36.4557H79.9333C79.3417 36.4557 78.7805 36.7176 78.4005 37.1709L72.5328 44.1713C71.7334 45.125 70.2666 45.125 69.4672 44.1713L63.5995 37.1709C63.2195 36.7176 62.6583 36.4557 62.0667 36.4557H15C11.6863 36.4557 9 33.7694 9 30.4557V6C9 2.68629 11.6863 0 15 0H83Z" fill="#464547"/>
<path fill-rule="evenodd" clip-rule="evenodd" d="M83.5206 58.6225H120.42C120.735 58.6225 121.032 58.4739 121.22 58.2216L126.093 51.7099C126.471 51.2053 127.064 50.9082 127.695 50.9082H134.079C134.335 50.9082 134.588 50.9572 134.825 51.0524L145.121 55.1899C145.878 55.4944 146.375 56.229 146.375 57.0457V58.0133C146.375 59.307 145.165 60.2603 143.908 59.9579L138.352 58.6225L128.636 64.4082L138.352 70.1939L143.908 68.8585C145.165 68.5561 146.375 69.5094 146.375 70.8031V71.7708C146.375 72.5874 145.878 73.322 145.121 73.6265L134.825 77.764C134.588 77.8592 134.335 77.9082 134.079 77.9082H127.695C127.064 77.9082 126.471 77.6111 126.093 77.1065L121.22 70.5948C121.032 70.3425 120.735 70.1939 120.42 70.1939H83.5206C81.3375 74.7549 76.6534 77.9082 71.2273 77.9082C63.7149 77.9082 57.625 71.864 57.625 64.4082C57.625 56.9524 63.7149 50.9082 71.2273 50.9082C76.6534 50.9082 81.3375 54.0615 83.5206 58.6225ZM71.125 70.9082C74.7149 70.9082 77.625 67.9981 77.625 64.4082C77.625 60.8184 74.7149 57.9082 71.125 57.9082C67.5351 57.9082 64.625 60.8184 64.625 64.4082C64.625 67.9981 67.5351 70.9082 71.125 70.9082Z" fill="#35D39A"/>
</svg>
