<svg width="25" height="24" viewBox="0 0 25 24" fill="none" xmlns="http://www.w3.org/2000/svg">
<path d="M24.2662 9.90213C24.1995 9.84648 23.5984 9.3901 22.3072 9.3901C21.9732 9.3901 21.6282 9.4235 21.2943 9.47915C21.0494 7.7761 19.6357 6.9524 19.5801 6.90788L19.235 6.70752L19.0124 7.03032C18.7341 7.46443 18.5226 7.9542 18.4002 8.45509C18.1664 9.4235 18.3111 10.3362 18.8009 11.1154C18.211 11.4493 17.2537 11.5273 17.0533 11.5384L1.24723 11.5384C0.835384 11.5384 0.501452 11.8723 0.501452 12.2842C0.47919 13.6644 0.712942 15.0447 1.19158 16.347C1.737 17.7718 2.54956 18.8292 3.59588 19.4748C4.77577 20.1984 6.70145 20.6102 8.872 20.6102C9.85153 20.6102 10.8311 20.5212 11.7995 20.3431C13.1463 20.0982 14.4375 19.6307 15.6285 18.9517C16.6081 18.384 17.4874 17.6605 18.2332 16.8145C19.491 15.4009 20.2368 13.8203 20.7822 12.4177L21.0048 12.4177C22.374 12.4177 23.2199 11.8723 23.6874 11.4048C23.9991 11.1154 24.2329 10.7592 24.3998 10.3585L24.5 10.0691L24.2662 9.90213Z" fill="#0091E2"/>
<path d="M2.71657 11.0812L4.83147 11.0812C4.93165 11.0812 5.0207 11.0033 5.0207 10.892L5.0207 8.9997C5.0207 8.89952 4.94278 8.81047 4.83147 8.81047L2.71657 8.81047C2.61639 8.81047 2.52734 8.88839 2.52734 8.9997L2.52734 10.892C2.53847 11.0033 2.61639 11.0812 2.71657 11.0812ZM5.63291 11.0812L7.74781 11.0812C7.84799 11.0812 7.93703 11.0033 7.93703 10.892L7.93703 8.9997C7.93703 8.89952 7.85912 8.81047 7.74781 8.81047L5.63291 8.81047C5.53273 8.81047 5.44368 8.88839 5.44368 8.9997L5.44368 10.892C5.45481 11.0033 5.53273 11.0812 5.63291 11.0812ZM8.6049 11.0812L10.7198 11.0812C10.82 11.0812 10.909 11.0033 10.909 10.892L10.909 8.9997C10.909 8.89952 10.8311 8.81047 10.7198 8.81047L8.6049 8.81047C8.50472 8.81047 8.41567 8.88839 8.41567 8.9997L8.41567 10.892C8.41567 11.0033 8.49359 11.0812 8.6049 11.0812ZM11.5324 11.0812L13.6473 11.0812C13.7474 11.0812 13.8365 11.0033 13.8365 10.892L13.8365 8.9997C13.8365 8.89952 13.7586 8.81047 13.6473 8.81047L11.5324 8.81047C11.4322 8.81047 11.3431 8.88839 11.3431 8.9997L11.3431 10.892C11.3431 11.0033 11.4322 11.0812 11.5324 11.0812ZM5.63291 8.37636L7.74781 8.37636C7.84799 8.37636 7.93703 8.28731 7.93703 8.18713L7.93703 6.29485C7.93703 6.19467 7.85912 6.10562 7.74781 6.10562L5.63291 6.10562C5.53273 6.10562 5.44368 6.18354 5.44368 6.29485L5.44368 8.18713C5.45481 8.28731 5.53273 8.37636 5.63291 8.37636ZM8.6049 8.37636L10.7198 8.37636C10.82 8.37636 10.909 8.28731 10.909 8.18713L10.909 6.29485C10.909 6.19467 10.8311 6.10562 10.7198 6.10562L8.6049 6.10562C8.50472 6.10562 8.41567 6.18354 8.41567 6.29485L8.41567 8.18713C8.41567 8.28731 8.49359 8.37636 8.6049 8.37636ZM11.5324 8.37636L13.6473 8.37636C13.7474 8.37636 13.8365 8.28731 13.8365 8.18713L13.8365 6.29485C13.8365 6.19467 13.7474 6.10562 13.6473 6.10562L11.5324 6.10562C11.4322 6.10562 11.3431 6.18354 11.3431 6.29485L11.3431 8.18713C11.3431 8.28731 11.4322 8.37636 11.5324 8.37636ZM11.5324 5.66038L13.6473 5.66038C13.7474 5.66038 13.8365 5.58247 13.8365 5.47116L13.8365 3.57888C13.8365 3.4787 13.7474 3.38965 13.6473 3.38965L11.5324 3.38965C11.4322 3.38965 11.3431 3.46757 11.3431 3.57888L11.3431 5.47116C11.3431 5.57134 11.4322 5.66038 11.5324 5.66038ZM14.4821 11.0812L16.597 11.0812C16.6972 11.0812 16.7862 11.0033 16.7862 10.892L16.7862 8.9997C16.7862 8.89952 16.7083 8.81047 16.597 8.81047L14.4821 8.81047C14.3819 8.81047 14.2929 8.88839 14.2929 8.9997L14.2929 10.892C14.304 11.0033 14.3819 11.0812 14.4821 11.0812Z" fill="#0091E2"/>
</svg>
