<svg width="24" height="24" viewBox="0 0 24 24" fill="none" xmlns="http://www.w3.org/2000/svg">
<g clip-path="url(#clip0_1953_426)">
<path d="M3.62132 1.37866C3.06904 1.37866 2.62132 1.82638 2.62132 2.37866V8.37866C2.62132 8.93095 3.06904 9.37866 3.62132 9.37866H9.62132C10.1736 9.37866 10.6213 8.93095 10.6213 8.37866V2.37866C10.6213 1.82638 10.1736 1.37866 9.62132 1.37866H3.62132ZM15.6213 1.37866C15.069 1.37866 14.6213 1.82638 14.6213 2.37866V8.37866C14.6213 8.93095 15.069 9.37866 15.6213 9.37866H21.6213C22.1736 9.37866 22.6213 8.93095 22.6213 8.37866V2.37866C22.6213 1.82638 22.1736 1.37866 21.6213 1.37866H15.6213ZM1.67162 16.6716C1.28109 17.0621 1.28109 17.6952 1.67162 18.0858L5.91426 22.3284C6.30478 22.7189 6.93795 22.7189 7.32847 22.3284L11.5711 18.0858C11.9616 17.6952 11.9616 17.0621 11.5711 16.6716L7.32847 12.4289C6.93795 12.0384 6.30478 12.0384 5.91426 12.4289L1.67162 16.6716ZM15.6213 13.3787C15.069 13.3787 14.6213 13.8264 14.6213 14.3787V20.3787C14.6213 20.9309 15.069 21.3787 15.6213 21.3787H21.6213C22.1736 21.3787 22.6213 20.9309 22.6213 20.3787V14.3787C22.6213 13.8264 22.1736 13.3787 21.6213 13.3787H15.6213Z" stroke="white"/>
</g>
<defs>
<clipPath id="clip0_1953_426">
<rect width="24" height="24" fill="white"/>
</clipPath>
</defs>
</svg>
