<svg width="33" height="32" viewBox="0 0 33 32" fill="none" xmlns="http://www.w3.org/2000/svg">
<path d="M8 16C8 17.6569 6.65685 19 5 19C3.34315 19 2 17.6569 2 16C2 14.3431 3.34315 13 5 13C6.65685 13 8 14.3431 8 16Z" stroke="black" stroke-width="3"/>
<circle cx="5" cy="27.5" r="3" stroke="black" stroke-width="3"/>
<circle cx="5" cy="4.5" r="3" stroke="black" stroke-width="3"/>
<circle cx="25" cy="15.5" r="6" fill="#F59A3C" stroke="black" stroke-width="3"/>
<path d="M8.5 4H11.5C12.3284 4 13 4.67157 13 5.5V16M8.5 28H11.5C12.3284 28 13 27.3284 13 26.5V16M13 16H8.5M13 16H19.5" stroke="black" stroke-width="3"/>
</svg>
