<svg width="33" height="32" viewBox="0 0 33 32" fill="none" xmlns="http://www.w3.org/2000/svg">
<path d="M9.23125 17.9535C8.25625 17.2043 8.25625 15.7957 9.23124 15.0465L15.2537 10.4186C15.98 9.86048 17.02 9.86048 17.7463 10.4186L23.7688 15.0465C24.7437 15.7957 24.7437 17.2043 23.7688 17.9535L17.7463 22.5814C17.02 23.1395 15.98 23.1395 15.2537 22.5814L9.23125 17.9535Z" fill="#F59A3C"/>
<path d="M9.5 9L2.29038 15.541C1.86242 15.9293 1.85165 16.5984 2.26688 17.0002L9.5 24" stroke="black" stroke-width="3" stroke-linecap="round"/>
<path d="M23.5 9L30.7096 15.541C31.1376 15.9293 31.1484 16.5984 30.7331 17.0002L23.5 24" stroke="black" stroke-width="3" stroke-linecap="round"/>
<path d="M19.5001 8L13.5001 24.5" stroke="black" stroke-width="3" stroke-linecap="round"/>
</svg>
