<svg width="204" height="80" viewBox="0 0 204 80" fill="none" xmlns="http://www.w3.org/2000/svg">
<path fill-rule="evenodd" clip-rule="evenodd" d="M89 35.0684C89 32.8592 90.7909 31.0684 93 31.0684H104C106.209 31.0684 108 32.8592 108 35.0684V46.0684C108 48.2775 106.209 50.0684 104 50.0684H93C90.7909 50.0684 89 48.2775 89 46.0684V35.0684ZM93 35.0684H104V46.0684H93V35.0684Z" fill="#464547"/>
<path fill-rule="evenodd" clip-rule="evenodd" d="M108 5.5V15.5H117C120.314 15.5 123 18.1863 123 21.5V30.5H133C134.105 30.5 135 31.3954 135 32.5C135 33.6046 134.105 34.5 133 34.5H123V46.5H133C134.105 46.5 135 47.3954 135 48.5C135 49.6046 134.105 50.5 133 50.5H123V58.5C123 61.8137 120.314 64.5 117 64.5H108V74.5C108 75.6046 107.105 76.5 106 76.5C104.895 76.5 104 75.6046 104 74.5V64.5H92V74.5C92 75.6046 91.1046 76.5 90 76.5C88.8954 76.5 88 75.6046 88 74.5V64.5H80C76.6863 64.5 74 61.8137 74 58.5V50.5H64C62.8954 50.5 62 49.6046 62 48.5C62 47.3954 62.8954 46.5 64 46.5H74V34.5H64C62.8954 34.5 62 33.6046 62 32.5C62 31.3954 62.8954 30.5 64 30.5H74V21.5C74 18.1863 76.6863 15.5 80 15.5H88V5.5C88 4.39543 88.8954 3.5 90 3.5C91.1046 3.5 92 4.39543 92 5.5V15.5H104V5.5C104 4.39543 104.895 3.5 106 3.5C107.105 3.5 108 4.39543 108 5.5ZM80 19.5H117C118.105 19.5 119 20.3954 119 21.5V58.5C119 59.6046 118.105 60.5 117 60.5H80C78.8954 60.5 78 59.6046 78 58.5V21.5C78 20.3954 78.8954 19.5 80 19.5Z" fill="#464547"/>
<path d="M175.551 37.0261C174.494 38.3038 172.506 38.3038 171.448 37.0261L164.917 29.1336C164.129 28.1818 164.129 26.8189 164.917 25.8671L171.448 17.9746C172.506 16.6968 174.494 16.6968 175.551 17.9746L182.083 25.8671C182.87 26.8189 182.87 28.1818 182.083 29.1336L175.551 37.0261Z" fill="#35D39A"/>
<path d="M196.551 50.5944C195.494 51.8722 193.506 51.8722 192.448 50.5944L185.917 42.7019C185.129 41.7501 185.129 40.3872 185.917 39.4355L192.448 31.5429C193.506 30.2652 195.494 30.2652 196.551 31.5429L203.083 39.4355C203.87 40.3872 203.87 41.7501 203.083 42.7019L196.551 50.5944Z" fill="#35D39A"/>
<path d="M182.675 54.4992C182.675 59.5664 178.567 63.6742 173.5 63.6742C168.433 63.6742 164.325 59.5664 164.325 54.4992C164.325 49.432 168.433 45.3242 173.5 45.3242C178.567 45.3242 182.675 49.432 182.675 54.4992Z" fill="#35D39A"/>
<path d="M154.551 51.0261C153.494 52.3038 151.506 52.3038 150.448 51.0261L143.917 43.1336C143.129 42.1818 143.129 40.8189 143.917 39.8671L150.448 31.9746C151.506 30.6968 153.494 30.6968 154.551 31.9746L161.083 39.8671C161.87 40.8189 161.87 42.1818 161.083 43.1336L154.551 51.0261Z" fill="#85B5FF"/>
<path d="M44.6415 49.766C43.28 51.4113 40.72 51.4113 39.3585 49.766L30.9482 39.6031C29.9339 38.3775 29.9339 36.6225 30.9482 35.3969L39.3585 25.234C40.72 23.5887 43.28 23.5887 44.6415 25.234L53.0518 35.3969C54.0661 36.6225 54.0661 38.3775 53.0518 39.6031L44.6415 49.766Z" fill="#85B5FF"/>
<path d="M14.8915 49.766C13.53 51.4113 10.97 51.4113 9.60849 49.766L1.19817 39.6031C0.183945 38.3775 0.183944 36.6225 1.19817 35.3969L9.60848 25.234C10.97 23.5887 13.53 23.5887 14.8915 25.234L23.3018 35.3969C24.3161 36.6225 24.3161 38.3775 23.3018 39.6031L14.8915 49.766Z" fill="#35D39A"/>
<path d="M154.551 78.0261C153.494 79.3038 151.506 79.3038 150.448 78.0261L143.917 70.1336C143.129 69.1818 143.129 67.8189 143.917 66.8671L150.448 58.9746C151.506 57.6968 153.494 57.6968 154.551 58.9746L161.083 66.8671C161.87 67.8189 161.87 69.1818 161.083 70.1336L154.551 78.0261Z" fill="#85B5FF"/>
<path d="M161.675 14.4992C161.675 19.5664 157.567 23.6742 152.5 23.6742C147.433 23.6742 143.325 19.5664 143.325 14.4992C143.325 9.43201 147.433 5.32422 152.5 5.32422C157.567 5.32422 161.675 9.43201 161.675 14.4992Z" fill="#85B5FF"/>
</svg>
