<svg width="56" height="52" viewBox="0 0 56 52" fill="none" xmlns="http://www.w3.org/2000/svg">
<path fill-rule="evenodd" clip-rule="evenodd" d="M10.2883 23.44C4.00852 21.0866 0 17.5079 0 13.5C0 6.41234 12.536 0.666656 28 0.666656C43.464 0.666656 56 6.41234 56 13.5C56 17.5079 51.9915 21.0866 45.7117 23.44L49 43.8756C49 48.3626 39.598 52 28 52C16.402 52 7 48.3626 7 43.8756L10.2883 23.44ZM26.2758 18.133C18.7115 17.8366 12.8336 15.6142 12.8336 12.9165C12.8336 10.017 19.624 7.66653 28.0003 7.66653C36.3766 7.66653 43.167 10.017 43.167 12.9165C43.167 15.6141 37.2894 17.8365 29.7253 18.1329C29.172 18.1433 28.5972 18.1485 28 18.1485C27.4032 18.1485 26.8288 18.1433 26.2758 18.133Z" fill="#85B5FF"/>
</svg>
