<svg width="64" height="64" viewBox="0 0 64 64" fill="none" xmlns="http://www.w3.org/2000/svg">
<path d="M29.7638 21.0969C30.9164 19.6344 33.0836 19.6344 34.2362 21.0969L41.356 30.1306C42.2146 31.22 42.2146 32.78 41.356 33.8694L34.2362 42.9031C33.0836 44.3656 30.9164 44.3656 29.7638 42.9031L22.644 33.8694C21.7854 32.78 21.7853 31.22 22.6439 30.1306L29.7638 21.0969Z" fill="#85B5FF"/>
<path fill-rule="evenodd" clip-rule="evenodd" d="M37.038 2.52034C38.3655 4.18927 40.1107 6.04171 41.5303 6.84969C42.403 7.34638 43.929 7.77164 45.9622 8.0058C47.8965 8.22857 49.8503 8.23217 51.2654 8.18223C54.9931 8.05069 58.6401 10.9413 58.6229 15.2274C58.612 17.9233 58.4792 22.7602 57.7876 28.0954C57.106 33.3527 55.8355 39.4836 53.3613 44.5572C47.8809 55.7952 36.8981 62.0521 34.5793 63.2946C32.8332 64.2302 30.7518 64.2355 29.0007 63.3081C26.6633 62.0702 15.6734 55.8715 10.0345 44.6033C7.4595 39.4577 6.20274 33.2699 5.56507 27.9864C4.91795 22.6246 4.86283 17.7794 4.89912 15.0958C4.95647 10.8551 8.58192 8.04791 12.2569 8.18089C13.6672 8.23193 15.6277 8.23067 17.5718 8.00875C19.6159 7.7754 21.1519 7.34909 22.0293 6.84969C23.4489 6.0417 25.1941 4.18926 26.5217 2.52032C29.1947 -0.840118 34.3649 -0.840101 37.038 2.52034ZM12.0753 13.1982C15.178 13.3105 21.0025 13.211 24.5128 11.2131C26.8339 9.89197 29.0845 7.36353 30.4508 5.64577C31.1139 4.81224 32.4458 4.81224 33.1088 5.64577C34.4752 7.36353 36.7257 9.89197 39.0469 11.2131C42.5414 13.202 48.3295 13.3096 51.4425 13.1997C52.6034 13.1588 53.607 14.0455 53.6023 15.2072C53.5815 20.355 53.0911 33.657 48.8487 42.3565C44.1039 52.0862 34.363 57.7145 32.2081 58.8692C31.9353 59.0154 31.6239 59.0161 31.3505 58.8713C29.1905 57.7274 19.4226 52.1448 14.5243 42.3565C10.1339 33.5832 9.85024 20.2696 9.91929 15.1637C9.93478 14.0178 10.9301 13.1568 12.0753 13.1982Z" fill="#464547"/>
</svg>
