<svg width="64" height="66" viewBox="0 0 64 66" fill="none" xmlns="http://www.w3.org/2000/svg">
<path d="M30.2638 14.0969C31.4164 12.6344 33.5836 12.6344 34.7362 14.0969L41.856 23.1306C42.7146 24.22 42.7146 25.78 41.856 26.8694L34.7362 35.9031C33.5836 37.3656 31.4164 37.3656 30.2638 35.9031L23.144 26.8694C22.2854 25.78 22.2853 24.22 23.1439 23.1306L30.2638 14.0969Z" fill="#35D39A"/>
<path d="M32.5709 3.43457C20.2434 3.43457 10.25 13.428 10.25 25.7555C10.25 34.5539 15.3406 42.1633 22.7371 45.7991L19.6298 61.9637C19.5437 62.4247 20.0757 62.7456 20.4433 62.4545L32.2561 55.1319C32.4406 54.9859 32.7013 54.9859 32.8858 55.1319L44.6986 62.4545C45.0662 62.7456 45.5981 62.4247 45.5121 61.9637L43.962 53.6567L42.3608 45.8206C49.7811 42.1934 54.8919 34.5713 54.8919 25.7555C54.8919 13.428 44.8985 3.43457 32.5709 3.43457Z" stroke="#464547" stroke-width="5"/>
</svg>
