<svg width="64" height="64" viewBox="0 0 64 64" fill="none" xmlns="http://www.w3.org/2000/svg">
<path d="M29.7638 40.0969C30.9164 38.6344 33.0836 38.6344 34.2362 40.0969L41.356 49.1306C42.2146 50.22 42.2146 51.78 41.356 52.8694L34.2362 61.9031C33.0836 63.3656 30.9164 63.3656 29.7638 61.9031L22.644 52.8694C21.7854 51.78 21.7853 50.22 22.644 49.1306L29.7638 40.0969Z" fill="#FFA344"/>
<path fill-rule="evenodd" clip-rule="evenodd" d="M8.15625 2.95898C8.15625 1.57827 9.27554 0.458984 10.6562 0.458984H53.3504C54.7312 0.458984 55.8504 1.57827 55.8504 2.95898C55.8504 4.3397 54.7312 5.45898 53.3504 5.45898H52.1067V13.7452C52.1067 17.1568 50.7123 20.42 48.247 22.7782L39.7195 30.9351C39.1019 31.5258 39.1019 32.5123 39.7195 33.103L48.247 41.26C50.7123 43.6181 52.1067 46.8814 52.1067 50.2929V58.505H53.7646C55.1453 58.505 56.2646 59.6243 56.2646 61.005C56.2646 62.3857 55.1453 63.505 53.7646 63.505H49.1179C48.951 63.5294 48.7803 63.5421 48.6067 63.5421L15.3984 63.5421C15.2248 63.5421 15.0541 63.5294 14.8873 63.505H10.2344C8.85366 63.505 7.73438 62.3857 7.73438 61.005C7.73438 59.6243 8.85366 58.505 10.2344 58.505H11.8984L11.8984 50.2929C11.8984 46.8814 13.2928 43.6181 15.7581 41.26L24.2856 33.103C24.9032 32.5123 24.9032 31.5258 24.2856 30.9351L15.7581 22.7782C13.2928 20.42 11.8984 17.1567 11.8984 13.7452V5.45898H10.6562C9.27554 5.45898 8.15625 4.3397 8.15625 2.95898ZM47.1067 58.505H16.8984L16.8984 50.2929C16.8984 48.246 17.7351 46.2881 19.2142 44.8732L27.7418 36.7162C30.4178 34.1565 30.4178 29.8817 27.7418 27.322L19.2142 19.165C17.735 17.7501 16.8984 15.7921 16.8984 13.7452V5.49609H47.1067V13.7452C47.1067 15.7921 46.27 17.7501 44.7909 19.165L36.2633 27.322C33.5873 29.8817 33.5873 34.1565 36.2633 36.7162L44.7909 44.8732C46.2701 46.2881 47.1067 48.246 47.1067 50.2929V58.505Z" fill="#464547"/>
</svg>
