<svg width="168" height="38" viewBox="0 0 168 38" fill="none" xmlns="http://www.w3.org/2000/svg">
<path d="M26.1455 32.9893L40.9771 14.8187C41.4525 14.2363 40.8974 13.3876 40.1733 13.5897L35.6321 14.8572C35.4796 14.8998 35.3439 14.9884 35.2435 15.1109L21.5241 31.8478C21.4112 31.9855 21.3495 32.1581 21.3495 32.3361V35.1009C21.3495 35.3585 21.4782 35.599 21.6925 35.7418L24.7745 37.7964C25.2864 38.1377 25.972 37.7707 25.972 37.1555L25.972 33.4764C25.972 33.2989 26.0333 33.1268 26.1455 32.9893Z" fill="#18181A"/>
<path d="M15.0085 32.9893L0.176974 14.8187C-0.298427 14.2363 0.256667 13.3876 0.980805 13.5897L5.52195 14.8572C5.67449 14.8998 5.81019 14.9884 5.91059 15.1109L19.63 31.8478C19.7429 31.9855 19.8046 32.1581 19.8046 32.3361V35.1009C19.8046 35.3585 19.6758 35.599 19.4615 35.7418L16.3796 37.7964C15.8677 38.1377 15.182 37.7707 15.182 37.1555L15.1821 33.4764C15.1821 33.2989 15.1208 33.1268 15.0085 32.9893Z" fill="#18181A"/>
<path d="M19.3711 0.63758C19.9927 -0.113568 21.1614 -0.113569 21.783 0.637579L25.6227 5.27739C26.0857 5.83692 26.0857 6.63813 25.6227 7.19766L21.783 11.8375C21.1614 12.5886 19.9927 12.5886 19.3711 11.8375L15.5314 7.19766C15.0684 6.63813 15.0684 5.83692 15.5314 5.27739L19.3711 0.63758Z" fill="#18181A"/>
<path d="M19.3711 17.5867C19.9927 16.8355 21.1614 16.8355 21.783 17.5867L25.6227 22.2265C26.0857 22.786 26.0857 23.5872 25.6227 24.1468L21.783 28.7866C21.1614 29.5377 19.9927 29.5377 19.3711 28.7866L15.5314 24.1468C15.0684 23.5872 15.0684 22.786 15.5314 22.2265L19.3711 17.5867Z" fill="#18181A"/>
<path d="M26.305 9.11216C26.9266 8.36101 28.0953 8.36101 28.7169 9.11216L32.5566 13.752C33.0196 14.3115 33.0196 15.1127 32.5566 15.6722L28.7169 20.3121C28.0953 21.0632 26.9266 21.0632 26.305 20.3121L22.4653 15.6722C22.0023 15.1127 22.0023 14.3115 22.4653 13.752L26.305 9.11216Z" fill="#18181A"/>
<path d="M12.437 9.11216C13.0586 8.36101 14.2273 8.36101 14.8489 9.11216L18.6886 13.752C19.1516 14.3115 19.1516 15.1127 18.6886 15.6722L14.8489 20.3121C14.2273 21.0632 13.0586 21.0632 12.437 20.3121L8.59733 15.6722C8.1343 15.1127 8.13429 14.3115 8.59733 13.752L12.437 9.11216Z" fill="#18181A"/>
<path d="M65.6914 10.0469L74.588 10.0469C76.7142 10.0469 78.5887 10.4572 80.2113 11.2779C81.8526 12.0799 83.1209 13.2176 84.0161 14.691C84.93 16.1644 85.387 17.8804 85.387 19.8387C85.387 21.7971 84.93 23.513 84.0161 24.9864C83.1209 26.4599 81.8526 27.6069 80.2113 28.4276C78.5887 29.2296 76.7142 29.6306 74.588 29.6306L65.6914 29.6306L65.6914 10.0469ZM74.3642 25.9097C76.3225 25.9097 77.8799 25.3688 79.0363 24.287C80.2113 23.1866 80.7988 21.7038 80.7988 19.8387C80.7988 17.9736 80.2113 16.5002 79.0363 15.4184C77.8799 14.318 76.3225 13.7678 74.3642 13.7678L70.2236 13.7678L70.2236 25.9097L74.3642 25.9097Z" fill="#18181A"/>
<path d="M168 13.4822L168 29.1006L163.737 29.1006L163.737 27.3007C162.631 28.6555 161.029 29.3328 158.931 29.3328C157.481 29.3328 156.165 29.0038 154.982 28.3458C153.819 27.6878 152.903 26.7491 152.236 25.5299C151.568 24.3106 151.234 22.8978 151.234 21.2914C151.234 19.6851 151.568 18.2723 152.236 17.053C152.903 15.8337 153.819 14.8951 154.982 14.237C156.165 13.579 157.481 13.25 158.931 13.25C160.895 13.25 162.431 13.879 163.537 15.137L163.537 13.4822L168 13.4822ZM159.703 25.617C160.829 25.617 161.763 25.2299 162.507 24.4557C163.251 23.6622 163.623 22.6075 163.623 21.2914C163.623 19.9754 163.251 18.9303 162.507 18.1561C161.763 17.3626 160.829 16.9659 159.703 16.9659C158.559 16.9659 157.615 17.3626 156.871 18.1561C156.127 18.9303 155.755 19.9754 155.755 21.2914C155.755 22.6075 156.127 23.6622 156.871 24.4557C157.615 25.2299 158.559 25.617 159.703 25.617Z" fill="#18181A"/>
<path d="M53.7082 13.7398L47.4414 13.7398L47.4414 10.0469L64.5072 10.0469L64.5072 13.7398L58.2404 13.7398L58.2404 29.6306L53.7082 29.6306L53.7082 13.7398Z" fill="#18181A"/>
<path d="M93.7426 29.5831C92.4013 29.5831 91.0901 29.4229 89.8089 29.1025C88.5278 28.762 87.5068 28.3415 86.7461 27.8408L88.3075 24.4765C89.0282 24.9371 89.899 25.3176 90.92 25.6179C91.9409 25.8983 92.9419 26.0385 93.9228 26.0385C95.9046 26.0385 96.8955 25.5479 96.8955 24.5666C96.8955 24.106 96.6253 23.6941 96.0848 23.4938C95.5443 23.2935 94.7135 23.1233 93.5925 22.9831C92.2712 22.7829 91.1802 22.5526 90.3194 22.2922C89.4586 22.0319 88.7079 21.5713 88.0673 20.9104C87.4467 20.2496 87.1365 19.3898 87.1365 18.1682C87.1365 17.1469 87.4267 16.2457 88.0073 15.4647C88.6078 14.6637 89.4686 14.0428 90.5897 13.6023C91.7307 13.1617 93.072 12.9414 94.6134 12.9414C95.7545 12.9414 96.8855 13.0716 98.0066 13.3319C99.1476 13.5722 100.088 13.9127 100.829 14.3533L99.2677 17.6876C97.8464 16.8866 96.295 16.486 94.6134 16.486C93.6125 16.486 92.8618 16.6262 92.3613 16.9066C91.8608 17.1869 91.6106 17.5474 91.6106 17.988C91.6106 18.4886 91.8809 18.8391 92.4214 19.0394C92.9619 19.2396 93.8227 19.4299 95.0038 19.6101C96.325 19.8304 97.406 20.0707 98.2468 20.331C99.0876 20.5714 99.8183 21.022 100.439 21.6828C101.059 22.3437 101.37 23.2649 101.37 24.4464C101.37 25.4477 101.069 26.3389 100.469 27.1199C99.8683 27.9009 98.9875 28.5117 97.8264 28.9523C96.6853 29.3728 95.3241 29.5831 93.7426 29.5831Z" fill="#18181A"/>
<path d="M112.788 13.0977C114.239 13.0977 115.556 13.4364 116.736 14.1138C117.937 14.772 118.875 15.7107 119.553 16.9302C120.23 18.1302 120.569 19.5335 120.569 21.1401C120.569 22.7466 120.23 24.1596 119.553 25.3791C118.875 26.5791 117.937 27.5179 116.736 28.1954C115.556 28.8535 114.239 29.1825 112.788 29.1825C110.794 29.1825 109.226 28.5534 108.084 27.2953L108.084 34.5828L103.555 34.5828L103.555 13.3299L107.881 13.3299L107.881 15.13C109.004 13.7751 110.639 13.0977 112.788 13.0977ZM112.004 25.4662C113.165 25.4662 114.114 25.079 114.849 24.3048C115.604 23.5112 115.982 22.4563 115.982 21.1401C115.982 19.8239 115.604 18.7787 114.849 18.0044C114.114 17.2108 113.165 16.814 112.004 16.814C110.842 16.814 109.884 17.2108 109.129 18.0044C108.394 18.7786 108.026 19.8239 108.026 21.1401C108.026 22.4563 108.394 23.5112 109.129 24.3048C109.884 25.079 110.842 25.4662 112.004 25.4662Z" fill="#18181A"/>
<path d="M130.418 29.3328C128.774 29.3328 127.295 28.9942 125.981 28.3168C124.686 27.6201 123.671 26.662 122.936 25.4428C122.201 24.2235 121.834 22.8397 121.834 21.2914C121.834 19.7431 122.201 18.3594 122.936 17.1401C123.671 15.9208 124.686 14.9725 125.981 14.2951C127.295 13.5984 128.774 13.25 130.418 13.25C132.061 13.25 133.53 13.5984 134.826 14.2951C136.121 14.9725 137.136 15.9208 137.871 17.1401C138.605 18.3594 138.972 19.7431 138.972 21.2914C138.972 22.8397 138.605 24.2235 137.871 25.4428C137.136 26.662 136.121 27.6201 134.826 28.3168C133.53 28.9942 132.061 29.3328 130.418 29.3328ZM130.418 25.617C131.578 25.617 132.525 25.2299 133.26 24.4557C134.014 23.6622 134.391 22.6075 134.391 21.2914C134.391 19.9754 134.014 18.9303 133.26 18.1561C132.525 17.3626 131.578 16.9659 130.418 16.9659C129.258 16.9659 128.301 17.3626 127.547 18.1561C126.793 18.9303 126.416 19.9754 126.416 21.2914C126.416 22.6075 126.793 23.6622 127.547 24.4557C128.301 25.2299 129.258 25.617 130.418 25.617Z" fill="#18181A"/>
<path d="M145.08 15.5762C145.607 14.8222 146.314 14.2519 147.199 13.8652C148.103 13.4785 149.14 13.2852 150.308 13.2852L150.308 17.4613C149.818 17.4226 149.488 17.4033 149.319 17.4033C148.056 17.4033 147.067 17.7706 146.351 18.5053C145.636 19.2207 145.278 20.3034 145.278 21.7534L145.278 29.1196L140.869 29.1196L140.869 13.5172L145.08 13.5172L145.08 15.5762Z" fill="#18181A"/>
</svg>
