<svg width="204" height="80" viewBox="0 0 204 80" fill="none" xmlns="http://www.w3.org/2000/svg">
<path d="M15.4583 48.7255C14.1806 47.6681 14.1806 45.6801 15.4583 44.6227L23.3508 38.0913C24.3026 37.3036 25.6655 37.3036 26.6173 38.0913L34.5098 44.6227C35.7875 45.6801 35.7875 47.6681 34.5098 48.7255L26.6173 55.2569C25.6655 56.0446 24.3026 56.0446 23.3508 55.2569L15.4583 48.7255Z" fill="#85B5FF"/>
<path d="M49.4583 48.7255C48.1806 47.6681 48.1806 45.6801 49.4583 44.6227L57.3508 38.0913C58.3026 37.3036 59.6655 37.3036 60.6173 38.0913L68.5098 44.6227C69.7875 45.6801 69.7875 47.6681 68.5098 48.7255L60.6173 55.2569C59.6655 56.0446 58.3026 56.0446 57.3508 55.2569L49.4583 48.7255Z" fill="#85B5FF"/>
<path d="M32.4583 62.7255C31.1806 61.6681 31.1806 59.6801 32.4583 58.6227L40.3508 52.0913C41.3026 51.3037 42.6655 51.3037 43.6173 52.0913L51.5098 58.6227C52.7875 59.6801 52.7875 61.6681 51.5098 62.7255L43.6173 69.2569C42.6655 70.0446 41.3026 70.0446 40.3508 69.2569L32.4583 62.7255Z" fill="#85B5FF"/>
<path d="M136.458 48.7255C135.181 47.6681 135.181 45.6801 136.458 44.6227L144.351 38.0913C145.303 37.3036 146.665 37.3036 147.617 38.0913L155.51 44.6227C156.788 45.6801 156.788 47.6681 155.51 48.7255L147.617 55.2569C146.665 56.0446 145.303 56.0446 144.351 55.2569L136.458 48.7255Z" fill="#85B5FF"/>
<path d="M170.458 48.7255C169.181 47.6681 169.181 45.6801 170.458 44.6227L178.351 38.0913C179.303 37.3036 180.665 37.3036 181.617 38.0913L189.51 44.6227C190.788 45.6801 190.788 47.6681 189.51 48.7255L181.617 55.2569C180.665 56.0446 179.303 56.0446 178.351 55.2569L170.458 48.7255Z" fill="#85B5FF"/>
<path d="M153.458 62.7255C152.181 61.6681 152.181 59.6801 153.458 58.6227L161.351 52.0913C162.303 51.3037 163.665 51.3037 164.617 52.0913L172.51 58.6227C173.788 59.6801 173.788 61.6681 172.51 62.7255L164.617 69.2569C163.665 70.0446 162.303 70.0446 161.351 69.2569L153.458 62.7255Z" fill="#85B5FF"/>
<path fill-rule="evenodd" clip-rule="evenodd" d="M68.0858 1.08579C68.8668 0.304738 70.1332 0.304738 70.9142 1.08579L77 7.17157C78.5621 8.73367 78.5621 11.2663 77 12.8284L70.9142 18.9142C70.1332 19.6953 68.8668 19.6953 68.0858 18.9142C67.3047 18.1332 67.3047 16.8668 68.0858 16.0858L74.1716 10L68.0858 3.91421C67.3047 3.13316 67.3047 1.86683 68.0858 1.08579ZM125.086 1.08579C125.867 0.304738 127.133 0.304738 127.914 1.08579L134 7.17157C135.562 8.73367 135.562 11.2663 134 12.8284L127.914 18.9142C127.133 19.6953 125.867 19.6953 125.086 18.9142C124.305 18.1332 124.305 16.8668 125.086 16.0858L131.172 10L125.086 3.91421C124.305 3.13316 124.305 1.86683 125.086 1.08579ZM8.73407 32.6185C7.53768 33.6244 6.5 35.8109 6.5 40.7281C6.5 59.8953 22.3567 75.5 42 75.5C61.6433 75.5 77.5 59.8953 77.5 40.7281C77.5 35.8109 76.4623 33.6244 75.2659 32.6185C74.0517 31.5975 72.0644 31.2645 68.7571 31.6652C66.4596 31.9436 63.8864 32.5185 60.9598 33.1723C59.7091 33.4517 58.3939 33.7456 57.0081 34.0369C52.4762 34.9894 47.3846 35.8628 42 35.8628C36.6154 35.8628 31.5238 34.9894 26.9919 34.0369C25.6061 33.7456 24.2909 33.4517 23.0402 33.1723C20.1136 32.5185 17.5404 31.9436 15.2429 31.6652C11.9356 31.2645 9.94834 31.5975 8.73407 32.6185ZM27.8147 30.1224C32.2557 31.0558 37.0293 31.8628 42 31.8628C46.9707 31.8628 51.7443 31.0558 56.1853 30.1224C57.4255 29.8617 58.6572 29.5866 59.8657 29.3167C62.8904 28.6411 65.7702 27.9979 68.2759 27.6942C71.7548 27.2727 75.2593 27.3868 77.8402 29.5569C80.439 31.7421 81.5 35.4909 81.5 40.7281C81.5 62.178 63.7781 79.5 42 79.5C20.2219 79.5 2.5 62.178 2.5 40.7281C2.5 35.4909 3.56099 31.7421 6.1598 29.5569C8.74074 27.3868 12.2452 27.2727 15.7241 27.6942C18.2298 27.9979 21.1096 28.6411 24.1343 29.3167C25.3428 29.5866 26.5745 29.8617 27.8147 30.1224ZM123.5 37.5C123.5 31.9771 127.977 27.5 133.5 27.5H191.5C197.023 27.5 201.5 31.9771 201.5 37.5V69.5C201.5 75.0228 197.023 79.5 191.5 79.5H133.5C127.977 79.5 123.5 75.0229 123.5 69.5V37.5ZM133.5 31.5C130.186 31.5 127.5 34.1863 127.5 37.5V69.5C127.5 72.8137 130.186 75.5 133.5 75.5H191.5C194.814 75.5 197.5 72.8137 197.5 69.5V37.5C197.5 34.1863 194.814 31.5 191.5 31.5H133.5Z" fill="#464547"/>
<path d="M30.5969 13.848C29.1344 12.6377 29.1344 10.3623 30.5969 9.15198L39.6306 1.67614C40.72 0.774604 42.28 0.774604 43.3694 1.67614L52.4031 9.15197C53.8656 10.3623 53.8656 12.6377 52.4031 13.848L43.3694 21.3239C42.28 22.2254 40.72 22.2254 39.6306 21.3239L30.5969 13.848Z" fill="#35D39A"/>
<path d="M90.5969 13.848C89.1344 12.6377 89.1344 10.3623 90.5969 9.15198L99.6306 1.67614C100.72 0.774604 102.28 0.774604 103.369 1.67614L112.403 9.15197C113.866 10.3623 113.866 12.6377 112.403 13.848L103.369 21.3239C102.28 22.2254 100.72 22.2254 99.6306 21.3239L90.5969 13.848Z" fill="#35D39A"/>
<path d="M151.597 13.848C150.134 12.6377 150.134 10.3623 151.597 9.15198L160.631 1.67614C161.72 0.774604 163.28 0.774604 164.369 1.67614L173.403 9.15197C174.866 10.3623 174.866 12.6377 173.403 13.848L164.369 21.3239C163.28 22.2254 161.72 22.2254 160.631 21.3239L151.597 13.848Z" fill="#35D39A"/>
</svg>
