<svg width="64" height="64" viewBox="0 0 64 64" fill="none" xmlns="http://www.w3.org/2000/svg">
<path d="M60 25V14.5H46C46 14.5 43.6667 13.9167 43.6667 12.1667C43.6667 10.4167 47.1667 9.22733 47.1667 6.33333C47.1667 3.756 45.0773 0.5 40.1667 0.5C35.256 0.5 33.1667 3.756 33.1667 6.33333C33.1667 9.22733 36.6667 10.4167 36.6667 12.1667C36.6667 13.9167 34.3333 14.5 34.3333 14.5H18V29.6667C18 29.6667 17.4167 32 15.6667 32C13.9167 32 12.7273 28.5 9.83333 28.5C7.256 28.5 4 30.5893 4 35.5C4 40.4107 7.256 42.5 9.83333 42.5C12.7273 42.5 13.9167 39 15.6667 39C17.4167 39 18 41.3333 18 41.3333V56.5H32C32 56.5 34.3333 55.9167 34.3333 54.1667C34.3333 52.4167 30.8333 51.2273 30.8333 48.3333C30.8333 45.756 32.9227 42.5 37.8333 42.5C42.744 42.5 44.8333 45.756 44.8333 48.3333C44.8333 51.2273 41.3333 52.4167 41.3333 54.1667C41.3333 55.9167 43.6667 56.5 43.6667 56.5H60V46V36.6667C60 36.6667 59.4167 34.3333 57.6667 34.3333C55.9167 34.3333 54.7273 37.8333 51.8333 37.8333C49.256 37.8333 46 35.744 46 30.8333C46 25.9227 49.256 23.8333 51.8333 23.8333C54.7273 23.8333 55.9167 27.3333 57.6667 27.3333C59.4167 27.3333 60 25 60 25Z" fill="#F59A3C"/>
</svg>
