<svg width="224" height="140" viewBox="0 0 224 140" fill="none" xmlns="http://www.w3.org/2000/svg">
<path d="M113.898 106.664C113.898 107.461 113.602 108.076 113.008 108.508C112.414 108.94 111.581 109.156 110.508 109.156C109.372 109.156 108.487 108.977 107.852 108.617V107.414C108.263 107.622 108.703 107.786 109.172 107.906C109.646 108.026 110.102 108.086 110.539 108.086C111.216 108.086 111.737 107.979 112.102 107.766C112.466 107.547 112.648 107.216 112.648 106.773C112.648 106.44 112.503 106.156 112.211 105.922C111.924 105.682 111.362 105.401 110.523 105.078C109.727 104.781 109.159 104.523 108.82 104.305C108.487 104.081 108.237 103.828 108.07 103.547C107.909 103.266 107.828 102.93 107.828 102.539C107.828 101.841 108.112 101.292 108.68 100.891C109.247 100.484 110.026 100.281 111.016 100.281C111.938 100.281 112.839 100.469 113.719 100.844L113.258 101.898C112.398 101.544 111.62 101.367 110.922 101.367C110.307 101.367 109.844 101.464 109.531 101.656C109.219 101.849 109.062 102.115 109.062 102.453C109.062 102.682 109.12 102.878 109.234 103.039C109.354 103.201 109.544 103.354 109.805 103.5C110.065 103.646 110.565 103.857 111.305 104.133C112.32 104.503 113.005 104.875 113.359 105.25C113.719 105.625 113.898 106.096 113.898 106.664ZM119.633 109.156C118.367 109.156 117.367 108.771 116.633 108C115.904 107.229 115.539 106.159 115.539 104.789C115.539 103.409 115.878 102.312 116.555 101.5C117.237 100.688 118.151 100.281 119.297 100.281C120.37 100.281 121.219 100.635 121.844 101.344C122.469 102.047 122.781 102.977 122.781 104.133V104.953H116.883C116.909 105.958 117.161 106.721 117.641 107.242C118.125 107.763 118.805 108.023 119.68 108.023C120.602 108.023 121.513 107.831 122.414 107.445V108.602C121.956 108.799 121.521 108.94 121.109 109.023C120.703 109.112 120.211 109.156 119.633 109.156ZM119.281 101.367C118.594 101.367 118.044 101.591 117.633 102.039C117.227 102.487 116.987 103.107 116.914 103.898H121.391C121.391 103.081 121.208 102.456 120.844 102.023C120.479 101.586 119.958 101.367 119.281 101.367ZM128.906 100.281C129.286 100.281 129.628 100.312 129.93 100.375L129.75 101.578C129.396 101.5 129.083 101.461 128.812 101.461C128.12 101.461 127.526 101.742 127.031 102.305C126.542 102.867 126.297 103.568 126.297 104.406V109H125V100.438H126.07L126.219 102.023H126.281C126.599 101.466 126.982 101.036 127.43 100.734C127.878 100.432 128.37 100.281 128.906 100.281ZM133.406 109L130.156 100.438H131.547L133.391 105.516C133.807 106.703 134.052 107.474 134.125 107.828H134.188C134.245 107.552 134.424 106.982 134.727 106.117C135.034 105.247 135.719 103.354 136.781 100.438H138.172L134.922 109H133.406ZM140.844 109H139.547V100.438H140.844V109ZM139.438 98.1172C139.438 97.8203 139.51 97.6042 139.656 97.4688C139.802 97.3281 139.984 97.2578 140.203 97.2578C140.411 97.2578 140.591 97.3281 140.742 97.4688C140.893 97.6094 140.969 97.8255 140.969 98.1172C140.969 98.4089 140.893 98.6276 140.742 98.7734C140.591 98.9141 140.411 98.9844 140.203 98.9844C139.984 98.9844 139.802 98.9141 139.656 98.7734C139.51 98.6276 139.438 98.4089 139.438 98.1172ZM147.016 109.156C145.776 109.156 144.815 108.776 144.133 108.016C143.456 107.25 143.117 106.169 143.117 104.773C143.117 103.341 143.461 102.234 144.148 101.453C144.841 100.672 145.826 100.281 147.102 100.281C147.513 100.281 147.924 100.326 148.336 100.414C148.747 100.503 149.07 100.607 149.305 100.727L148.906 101.828C148.62 101.714 148.307 101.62 147.969 101.547C147.63 101.469 147.331 101.43 147.07 101.43C145.331 101.43 144.461 102.539 144.461 104.758C144.461 105.81 144.672 106.617 145.094 107.18C145.521 107.742 146.151 108.023 146.984 108.023C147.698 108.023 148.43 107.87 149.18 107.562V108.711C148.607 109.008 147.885 109.156 147.016 109.156ZM154.836 109.156C153.57 109.156 152.57 108.771 151.836 108C151.107 107.229 150.742 106.159 150.742 104.789C150.742 103.409 151.081 102.312 151.758 101.5C152.44 100.688 153.354 100.281 154.5 100.281C155.573 100.281 156.422 100.635 157.047 101.344C157.672 102.047 157.984 102.977 157.984 104.133V104.953H152.086C152.112 105.958 152.365 106.721 152.844 107.242C153.328 107.763 154.008 108.023 154.883 108.023C155.805 108.023 156.716 107.831 157.617 107.445V108.602C157.159 108.799 156.724 108.94 156.312 109.023C155.906 109.112 155.414 109.156 154.836 109.156ZM154.484 101.367C153.797 101.367 153.247 101.591 152.836 102.039C152.43 102.487 152.19 103.107 152.117 103.898H156.594C156.594 103.081 156.411 102.456 156.047 102.023C155.682 101.586 155.161 101.367 154.484 101.367ZM170.219 109V103.461C170.219 102.763 170.06 102.242 169.742 101.898C169.424 101.555 168.927 101.383 168.25 101.383C167.349 101.383 166.69 101.628 166.273 102.117C165.862 102.607 165.656 103.409 165.656 104.523V109H164.359V96.8438H165.656V100.523C165.656 100.966 165.635 101.333 165.594 101.625H165.672C165.927 101.214 166.289 100.891 166.758 100.656C167.232 100.417 167.771 100.297 168.375 100.297C169.422 100.297 170.206 100.547 170.727 101.047C171.253 101.542 171.516 102.331 171.516 103.414V109H170.219ZM181.578 104.711C181.578 106.107 181.227 107.198 180.523 107.984C179.82 108.766 178.849 109.156 177.609 109.156C176.844 109.156 176.164 108.977 175.57 108.617C174.977 108.258 174.518 107.742 174.195 107.07C173.872 106.398 173.711 105.612 173.711 104.711C173.711 103.315 174.06 102.229 174.758 101.453C175.456 100.672 176.424 100.281 177.664 100.281C178.862 100.281 179.812 100.68 180.516 101.477C181.224 102.273 181.578 103.352 181.578 104.711ZM175.055 104.711C175.055 105.805 175.273 106.638 175.711 107.211C176.148 107.784 176.792 108.07 177.641 108.07C178.49 108.07 179.133 107.786 179.57 107.219C180.013 106.646 180.234 105.81 180.234 104.711C180.234 103.622 180.013 102.797 179.57 102.234C179.133 101.667 178.484 101.383 177.625 101.383C176.776 101.383 176.135 101.661 175.703 102.219C175.271 102.776 175.055 103.607 175.055 104.711ZM185.078 100.438V105.992C185.078 106.69 185.237 107.211 185.555 107.555C185.872 107.898 186.37 108.07 187.047 108.07C187.943 108.07 188.596 107.826 189.008 107.336C189.424 106.846 189.633 106.047 189.633 104.938V100.438H190.93V109H189.859L189.672 107.852H189.602C189.336 108.273 188.966 108.596 188.492 108.82C188.023 109.044 187.487 109.156 186.883 109.156C185.841 109.156 185.06 108.909 184.539 108.414C184.023 107.919 183.766 107.128 183.766 106.039V100.438H185.078ZM197.594 100.281C197.974 100.281 198.315 100.312 198.617 100.375L198.438 101.578C198.083 101.5 197.771 101.461 197.5 101.461C196.807 101.461 196.214 101.742 195.719 102.305C195.229 102.867 194.984 103.568 194.984 104.406V109H193.688V100.438H194.758L194.906 102.023H194.969C195.286 101.466 195.669 101.036 196.117 100.734C196.565 100.432 197.057 100.281 197.594 100.281ZM205.742 106.664C205.742 107.461 205.445 108.076 204.852 108.508C204.258 108.94 203.424 109.156 202.352 109.156C201.216 109.156 200.331 108.977 199.695 108.617V107.414C200.107 107.622 200.547 107.786 201.016 107.906C201.49 108.026 201.945 108.086 202.383 108.086C203.06 108.086 203.581 107.979 203.945 107.766C204.31 107.547 204.492 107.216 204.492 106.773C204.492 106.44 204.346 106.156 204.055 105.922C203.768 105.682 203.206 105.401 202.367 105.078C201.57 104.781 201.003 104.523 200.664 104.305C200.331 104.081 200.081 103.828 199.914 103.547C199.753 103.266 199.672 102.93 199.672 102.539C199.672 101.841 199.956 101.292 200.523 100.891C201.091 100.484 201.87 100.281 202.859 100.281C203.781 100.281 204.682 100.469 205.562 100.844L205.102 101.898C204.242 101.544 203.464 101.367 202.766 101.367C202.151 101.367 201.688 101.464 201.375 101.656C201.062 101.849 200.906 102.115 200.906 102.453C200.906 102.682 200.964 102.878 201.078 103.039C201.198 103.201 201.388 103.354 201.648 103.5C201.909 103.646 202.409 103.857 203.148 104.133C204.164 104.503 204.849 104.875 205.203 105.25C205.562 105.625 205.742 106.096 205.742 106.664Z" fill="#73818E"/>
<ellipse opacity="0.1" cx="92.5008" cy="59.5" rx="59.5008" ry="59.5" fill="#85B5FF"/>
<path opacity="0.3" fill-rule="evenodd" clip-rule="evenodd" d="M104.002 11.5C71.1293 11.5 44.502 37.9268 44.502 70.5C44.502 102.588 70.3425 128.712 102.538 129.482C103.366 129.502 104.021 130.19 104.002 131.018C103.982 131.846 103.294 132.501 102.466 132.482C68.6688 131.673 41.502 104.244 41.502 70.5C41.502 36.2467 69.4958 8.5 104.002 8.5C138.508 8.5 166.502 36.2467 166.502 70.5C166.502 74.169 166.181 77.7647 165.564 81.2606C165.42 82.0764 164.642 82.6211 163.826 82.4772C163.01 82.3332 162.465 81.5552 162.609 80.7394C163.196 77.4147 163.502 73.9934 163.502 70.5C163.502 37.9268 136.875 11.5 104.002 11.5Z" fill="#85B5FF"/>
<path fill-rule="evenodd" clip-rule="evenodd" d="M43.002 69C43.8304 69 44.502 69.6716 44.502 70.5C44.502 102.582 70.3329 128.702 102.52 129.482H103.476C104.304 129.482 104.976 130.154 104.976 130.982C104.976 131.81 104.304 132.482 103.476 132.482H102.484L102.466 132.482C68.6688 131.673 41.502 104.244 41.502 70.5C41.502 69.6716 42.1735 69 43.002 69Z" fill="#85B5FF"/>
<path opacity="0.3" fill-rule="evenodd" clip-rule="evenodd" d="M102.618 4.5C66.6741 4.5 37.502 34.0305 37.502 70.5C37.502 106.969 66.6741 136.5 102.618 136.5C103.447 136.5 104.118 137.172 104.118 138C104.118 138.828 103.447 139.5 102.618 139.5C64.9801 139.5 34.502 108.589 34.502 70.5C34.502 32.411 64.9801 1.5 102.618 1.5C121.58 1.5 138.731 9.34981 151.076 22.007C151.654 22.6001 151.642 23.5497 151.049 24.1282C150.456 24.7066 149.507 24.6947 148.928 24.1017C137.12 11.9951 120.732 4.5 102.618 4.5Z" fill="#85B5FF"/>
<path opacity="0.3" fill-rule="evenodd" clip-rule="evenodd" d="M67.502 70.4912C67.502 69.6628 68.1735 68.9912 69.002 68.9912H104.002C104.83 68.9912 105.502 69.6628 105.502 70.4912C105.502 71.3196 104.83 71.9912 104.002 71.9912H69.002C68.1735 71.9912 67.502 71.3196 67.502 70.4912Z" fill="#85B5FF"/>
<path opacity="0.3" fill-rule="evenodd" clip-rule="evenodd" d="M104.002 93C103.174 93 102.502 92.3284 102.502 91.5L102.502 70.5C102.502 69.6716 103.174 69 104.002 69C104.83 69 105.502 69.6716 105.502 70.5L105.502 91.5C105.502 92.3284 104.83 93 104.002 93Z" fill="#85B5FF"/>
<path fill-rule="evenodd" clip-rule="evenodd" d="M104.002 132.108C103.45 132.108 103.002 131.66 103.002 131.108L103.002 122.108C103.002 121.556 103.45 121.108 104.002 121.108C104.554 121.108 105.002 121.556 105.002 122.108L105.002 131.108C105.002 131.66 104.554 132.108 104.002 132.108Z" fill="#85B5FF"/>
<path fill-rule="evenodd" clip-rule="evenodd" d="M74.1981 124.154C73.7198 123.878 73.5559 123.267 73.832 122.788L75.3321 120.19C75.6082 119.712 76.2198 119.548 76.6981 119.824C77.1764 120.1 77.3403 120.712 77.0641 121.19L75.5641 123.788C75.2879 124.267 74.6764 124.43 74.1981 124.154Z" fill="#85B5FF"/>
<path fill-rule="evenodd" clip-rule="evenodd" d="M50.4616 99.8393C50.2077 99.3488 50.3996 98.7454 50.8901 98.4916L53.5545 97.1128C54.045 96.8589 54.6484 97.0508 54.9022 97.5413C55.156 98.0318 54.9642 98.6352 54.4737 98.889L51.8093 100.268C51.3188 100.522 50.7154 100.33 50.4616 99.8393Z" fill="#85B5FF"/>
<path fill-rule="evenodd" clip-rule="evenodd" d="M50.5019 40.7698C50.7781 40.2915 51.3897 40.1277 51.868 40.4038L54.4661 41.9038C54.9444 42.1799 55.1082 42.7915 54.8321 43.2698C54.5559 43.7481 53.9444 43.912 53.4661 43.6358L50.868 42.1358C50.3897 41.8597 50.2258 41.2481 50.5019 40.7698Z" fill="#85B5FF"/>
<path fill-rule="evenodd" clip-rule="evenodd" d="M73.8892 17.4596C74.3797 17.2058 74.9831 17.3976 75.237 17.8881L76.6158 20.5525C76.8696 21.043 76.6778 21.6464 76.1873 21.9002C75.6968 22.154 75.0934 21.9622 74.8395 21.4717L73.4607 18.8073C73.2069 18.3168 73.3987 17.7134 73.8892 17.4596Z" fill="#85B5FF"/>
<path fill-rule="evenodd" clip-rule="evenodd" d="M104.002 21C103.45 21 103.002 20.5523 103.002 20L103.002 10C103.002 9.44771 103.45 9 104.002 9C104.554 9 105.002 9.44771 105.002 10L105.002 20C105.002 20.5523 104.554 21 104.002 21Z" fill="#85B5FF"/>
<path fill-rule="evenodd" clip-rule="evenodd" d="M131.868 21.5C131.39 21.2239 131.226 20.6123 131.502 20.134L133.002 17.5359C133.278 17.0576 133.89 16.8937 134.368 17.1699C134.846 17.446 135.01 18.0576 134.734 18.5359L133.234 21.134C132.958 21.6123 132.346 21.7761 131.868 21.5Z" fill="#85B5FF"/>
<path fill-rule="evenodd" clip-rule="evenodd" d="M43.0645 71C43.0645 70.4477 43.5122 70 44.0645 70H53.0645C53.6167 70 54.0645 70.4477 54.0645 71C54.0645 71.5523 53.6167 72 53.0645 72H44.0645C43.5122 72 43.0645 71.5523 43.0645 71Z" fill="#85B5FF"/>
<circle cx="43.002" cy="71" r="5" fill="#85B5FF"/>
<path d="M102.812 74.508C102.812 75.828 102.578 77.0453 102.108 78.16C101.668 79.2453 100.994 80.1987 100.084 81.02C99.1749 81.8413 98.0309 82.4867 96.6522 82.956C95.3029 83.396 93.7335 83.616 91.9442 83.616C89.8909 83.616 88.1749 83.3373 86.7962 82.78C85.4469 82.1933 84.3469 81.4747 83.4962 80.624C82.6749 79.7733 82.0882 78.8493 81.7362 77.852C81.3842 76.8253 81.2082 75.8867 81.2082 75.036C81.2082 74.156 81.3255 73.3493 81.5602 72.616C81.7949 71.8827 82.1175 71.2227 82.5282 70.636C82.9389 70.02 83.3935 69.4627 83.8922 68.964C84.4202 68.4653 84.9775 67.996 85.5642 67.556C84.3029 66.5293 83.3642 65.5173 82.7482 64.52C82.1615 63.5227 81.8682 62.2467 81.8682 60.692C81.8682 59.5187 82.1029 58.3893 82.5722 57.304C83.0709 56.2187 83.7602 55.28 84.6402 54.488C85.5202 53.6667 86.5762 53.0213 87.8082 52.552C89.0695 52.0533 90.4629 51.804 91.9882 51.804C93.7775 51.804 95.3029 52.068 96.5642 52.596C97.8549 53.0947 98.9109 53.74 99.7322 54.532C100.554 55.324 101.14 56.2187 101.492 57.216C101.874 58.184 102.064 59.152 102.064 60.12C102.064 61.528 101.683 62.848 100.92 64.08C100.187 65.2827 99.2629 66.236 98.1482 66.94C99.8202 68.0253 101.008 69.1693 101.712 70.372C102.446 71.5453 102.812 72.924 102.812 74.508ZM87.5882 74.772C87.5882 75.124 87.6615 75.52 87.8082 75.96C87.9842 76.3707 88.2482 76.752 88.6002 77.104C88.9522 77.456 89.4069 77.7493 89.9642 77.984C90.5215 78.2187 91.1962 78.336 91.9882 78.336C93.5135 78.336 94.6282 77.9693 95.3322 77.236C96.0362 76.5027 96.3882 75.6813 96.3882 74.772C96.3882 74.0973 96.2269 73.496 95.9042 72.968C95.6109 72.44 95.2002 71.9853 94.6722 71.604C94.1442 71.1933 93.5135 70.8413 92.7802 70.548C92.0762 70.2253 91.3135 69.932 90.4922 69.668C89.6709 70.284 88.9815 71.0027 88.4242 71.824C87.8669 72.6453 87.5882 73.628 87.5882 74.772ZM95.7282 60.296C95.7282 59.9733 95.6549 59.636 95.5082 59.284C95.3909 58.9027 95.1709 58.5507 94.8482 58.228C94.5549 57.9053 94.1735 57.6413 93.7042 57.436C93.2349 57.2013 92.6629 57.084 91.9882 57.084C91.3429 57.084 90.7855 57.1867 90.3162 57.392C89.8469 57.5973 89.4509 57.876 89.1282 58.228C88.8349 58.5507 88.6149 58.9027 88.4682 59.284C88.3215 59.6653 88.2482 60.032 88.2482 60.384C88.2482 61.3227 88.5855 62.2027 89.2602 63.024C89.9642 63.8453 91.1522 64.5493 92.8242 65.136C93.7629 64.5493 94.4815 63.8747 94.9802 63.112C95.4789 62.3493 95.7282 61.4107 95.7282 60.296ZM127.996 67.688C127.996 72.8213 127.013 76.7667 125.048 79.524C123.112 82.252 120.428 83.616 116.996 83.616C113.564 83.616 110.865 82.252 108.9 79.524C106.964 76.7667 105.996 72.8213 105.996 67.688C105.996 65.136 106.245 62.8773 106.744 60.912C107.272 58.9467 108.02 57.2893 108.988 55.94C109.956 54.5907 111.115 53.564 112.464 52.86C113.813 52.156 115.324 51.804 116.996 51.804C120.428 51.804 123.112 53.1827 125.048 55.94C127.013 58.668 127.996 62.584 127.996 67.688ZM121.308 67.688C121.308 66.1627 121.235 64.784 121.088 63.552C120.941 62.2907 120.707 61.2053 120.384 60.296C120.061 59.3867 119.621 58.6827 119.064 58.184C118.507 57.6853 117.817 57.436 116.996 57.436C116.175 57.436 115.485 57.6853 114.928 58.184C114.4 58.6827 113.96 59.3867 113.608 60.296C113.285 61.2053 113.051 62.2907 112.904 63.552C112.757 64.784 112.684 66.1627 112.684 67.688C112.684 69.2133 112.757 70.6067 112.904 71.868C113.051 73.1293 113.285 74.2147 113.608 75.124C113.96 76.0333 114.4 76.7373 114.928 77.236C115.485 77.7347 116.175 77.984 116.996 77.984C117.817 77.984 118.507 77.7347 119.064 77.236C119.621 76.7373 120.061 76.0333 120.384 75.124C120.707 74.2147 120.941 73.1293 121.088 71.868C121.235 70.6067 121.308 69.2133 121.308 67.688Z" fill="#464547"/>
</svg>
