<svg width="224" height="140" viewBox="0 0 224 140" fill="none" xmlns="http://www.w3.org/2000/svg">
<path d="M113.898 106.664C113.898 107.461 113.602 108.076 113.008 108.508C112.414 108.94 111.581 109.156 110.508 109.156C109.372 109.156 108.487 108.977 107.852 108.617V107.414C108.263 107.622 108.703 107.786 109.172 107.906C109.646 108.026 110.102 108.086 110.539 108.086C111.216 108.086 111.737 107.979 112.102 107.766C112.466 107.547 112.648 107.216 112.648 106.773C112.648 106.44 112.503 106.156 112.211 105.922C111.924 105.682 111.362 105.401 110.523 105.078C109.727 104.781 109.159 104.523 108.82 104.305C108.487 104.081 108.237 103.828 108.07 103.547C107.909 103.266 107.828 102.93 107.828 102.539C107.828 101.841 108.112 101.292 108.68 100.891C109.247 100.484 110.026 100.281 111.016 100.281C111.938 100.281 112.839 100.469 113.719 100.844L113.258 101.898C112.398 101.544 111.62 101.367 110.922 101.367C110.307 101.367 109.844 101.464 109.531 101.656C109.219 101.849 109.062 102.115 109.062 102.453C109.062 102.682 109.12 102.878 109.234 103.039C109.354 103.201 109.544 103.354 109.805 103.5C110.065 103.646 110.565 103.857 111.305 104.133C112.32 104.503 113.005 104.875 113.359 105.25C113.719 105.625 113.898 106.096 113.898 106.664ZM119.633 109.156C118.367 109.156 117.367 108.771 116.633 108C115.904 107.229 115.539 106.159 115.539 104.789C115.539 103.409 115.878 102.312 116.555 101.5C117.237 100.688 118.151 100.281 119.297 100.281C120.37 100.281 121.219 100.635 121.844 101.344C122.469 102.047 122.781 102.977 122.781 104.133V104.953H116.883C116.909 105.958 117.161 106.721 117.641 107.242C118.125 107.763 118.805 108.023 119.68 108.023C120.602 108.023 121.513 107.831 122.414 107.445V108.602C121.956 108.799 121.521 108.94 121.109 109.023C120.703 109.112 120.211 109.156 119.633 109.156ZM119.281 101.367C118.594 101.367 118.044 101.591 117.633 102.039C117.227 102.487 116.987 103.107 116.914 103.898H121.391C121.391 103.081 121.208 102.456 120.844 102.023C120.479 101.586 119.958 101.367 119.281 101.367ZM128.906 100.281C129.286 100.281 129.628 100.312 129.93 100.375L129.75 101.578C129.396 101.5 129.083 101.461 128.812 101.461C128.12 101.461 127.526 101.742 127.031 102.305C126.542 102.867 126.297 103.568 126.297 104.406V109H125V100.438H126.07L126.219 102.023H126.281C126.599 101.466 126.982 101.036 127.43 100.734C127.878 100.432 128.37 100.281 128.906 100.281ZM133.406 109L130.156 100.438H131.547L133.391 105.516C133.807 106.703 134.052 107.474 134.125 107.828H134.188C134.245 107.552 134.424 106.982 134.727 106.117C135.034 105.247 135.719 103.354 136.781 100.438H138.172L134.922 109H133.406ZM140.844 109H139.547V100.438H140.844V109ZM139.438 98.1172C139.438 97.8203 139.51 97.6042 139.656 97.4688C139.802 97.3281 139.984 97.2578 140.203 97.2578C140.411 97.2578 140.591 97.3281 140.742 97.4688C140.893 97.6094 140.969 97.8255 140.969 98.1172C140.969 98.4089 140.893 98.6276 140.742 98.7734C140.591 98.9141 140.411 98.9844 140.203 98.9844C139.984 98.9844 139.802 98.9141 139.656 98.7734C139.51 98.6276 139.438 98.4089 139.438 98.1172ZM147.016 109.156C145.776 109.156 144.815 108.776 144.133 108.016C143.456 107.25 143.117 106.169 143.117 104.773C143.117 103.341 143.461 102.234 144.148 101.453C144.841 100.672 145.826 100.281 147.102 100.281C147.513 100.281 147.924 100.326 148.336 100.414C148.747 100.503 149.07 100.607 149.305 100.727L148.906 101.828C148.62 101.714 148.307 101.62 147.969 101.547C147.63 101.469 147.331 101.43 147.07 101.43C145.331 101.43 144.461 102.539 144.461 104.758C144.461 105.81 144.672 106.617 145.094 107.18C145.521 107.742 146.151 108.023 146.984 108.023C147.698 108.023 148.43 107.87 149.18 107.562V108.711C148.607 109.008 147.885 109.156 147.016 109.156ZM154.836 109.156C153.57 109.156 152.57 108.771 151.836 108C151.107 107.229 150.742 106.159 150.742 104.789C150.742 103.409 151.081 102.312 151.758 101.5C152.44 100.688 153.354 100.281 154.5 100.281C155.573 100.281 156.422 100.635 157.047 101.344C157.672 102.047 157.984 102.977 157.984 104.133V104.953H152.086C152.112 105.958 152.365 106.721 152.844 107.242C153.328 107.763 154.008 108.023 154.883 108.023C155.805 108.023 156.716 107.831 157.617 107.445V108.602C157.159 108.799 156.724 108.94 156.312 109.023C155.906 109.112 155.414 109.156 154.836 109.156ZM154.484 101.367C153.797 101.367 153.247 101.591 152.836 102.039C152.43 102.487 152.19 103.107 152.117 103.898H156.594C156.594 103.081 156.411 102.456 156.047 102.023C155.682 101.586 155.161 101.367 154.484 101.367ZM170.219 109V103.461C170.219 102.763 170.06 102.242 169.742 101.898C169.424 101.555 168.927 101.383 168.25 101.383C167.349 101.383 166.69 101.628 166.273 102.117C165.862 102.607 165.656 103.409 165.656 104.523V109H164.359V96.8438H165.656V100.523C165.656 100.966 165.635 101.333 165.594 101.625H165.672C165.927 101.214 166.289 100.891 166.758 100.656C167.232 100.417 167.771 100.297 168.375 100.297C169.422 100.297 170.206 100.547 170.727 101.047C171.253 101.542 171.516 102.331 171.516 103.414V109H170.219ZM181.578 104.711C181.578 106.107 181.227 107.198 180.523 107.984C179.82 108.766 178.849 109.156 177.609 109.156C176.844 109.156 176.164 108.977 175.57 108.617C174.977 108.258 174.518 107.742 174.195 107.07C173.872 106.398 173.711 105.612 173.711 104.711C173.711 103.315 174.06 102.229 174.758 101.453C175.456 100.672 176.424 100.281 177.664 100.281C178.862 100.281 179.812 100.68 180.516 101.477C181.224 102.273 181.578 103.352 181.578 104.711ZM175.055 104.711C175.055 105.805 175.273 106.638 175.711 107.211C176.148 107.784 176.792 108.07 177.641 108.07C178.49 108.07 179.133 107.786 179.57 107.219C180.013 106.646 180.234 105.81 180.234 104.711C180.234 103.622 180.013 102.797 179.57 102.234C179.133 101.667 178.484 101.383 177.625 101.383C176.776 101.383 176.135 101.661 175.703 102.219C175.271 102.776 175.055 103.607 175.055 104.711ZM185.078 100.438V105.992C185.078 106.69 185.237 107.211 185.555 107.555C185.872 107.898 186.37 108.07 187.047 108.07C187.943 108.07 188.596 107.826 189.008 107.336C189.424 106.846 189.633 106.047 189.633 104.938V100.438H190.93V109H189.859L189.672 107.852H189.602C189.336 108.273 188.966 108.596 188.492 108.82C188.023 109.044 187.487 109.156 186.883 109.156C185.841 109.156 185.06 108.909 184.539 108.414C184.023 107.919 183.766 107.128 183.766 106.039V100.438H185.078ZM197.594 100.281C197.974 100.281 198.315 100.312 198.617 100.375L198.438 101.578C198.083 101.5 197.771 101.461 197.5 101.461C196.807 101.461 196.214 101.742 195.719 102.305C195.229 102.867 194.984 103.568 194.984 104.406V109H193.688V100.438H194.758L194.906 102.023H194.969C195.286 101.466 195.669 101.036 196.117 100.734C196.565 100.432 197.057 100.281 197.594 100.281ZM205.742 106.664C205.742 107.461 205.445 108.076 204.852 108.508C204.258 108.94 203.424 109.156 202.352 109.156C201.216 109.156 200.331 108.977 199.695 108.617V107.414C200.107 107.622 200.547 107.786 201.016 107.906C201.49 108.026 201.945 108.086 202.383 108.086C203.06 108.086 203.581 107.979 203.945 107.766C204.31 107.547 204.492 107.216 204.492 106.773C204.492 106.44 204.346 106.156 204.055 105.922C203.768 105.682 203.206 105.401 202.367 105.078C201.57 104.781 201.003 104.523 200.664 104.305C200.331 104.081 200.081 103.828 199.914 103.547C199.753 103.266 199.672 102.93 199.672 102.539C199.672 101.841 199.956 101.292 200.523 100.891C201.091 100.484 201.87 100.281 202.859 100.281C203.781 100.281 204.682 100.469 205.562 100.844L205.102 101.898C204.242 101.544 203.464 101.367 202.766 101.367C202.151 101.367 201.688 101.464 201.375 101.656C201.062 101.849 200.906 102.115 200.906 102.453C200.906 102.682 200.964 102.878 201.078 103.039C201.198 103.201 201.388 103.354 201.648 103.5C201.909 103.646 202.409 103.857 203.148 104.133C204.164 104.503 204.849 104.875 205.203 105.25C205.562 105.625 205.742 106.096 205.742 106.664Z" fill="#73818E"/>
<ellipse opacity="0.1" cx="92.5008" cy="59.5" rx="59.5008" ry="59.5" fill="#85B5FF"/>
<path opacity="0.3" fill-rule="evenodd" clip-rule="evenodd" d="M104 11.5C71.1274 11.5 44.5 37.9268 44.5 70.5C44.5 102.588 70.3406 128.712 102.536 129.482C103.364 129.502 104.019 130.19 104 131.018C103.98 131.846 103.292 132.501 102.464 132.482C68.6668 131.673 41.5 104.244 41.5 70.5C41.5 36.2467 69.4939 8.5 104 8.5C138.506 8.5 166.5 36.2467 166.5 70.5C166.5 74.169 166.179 77.7647 165.562 81.2606C165.418 82.0764 164.64 82.6211 163.824 82.4772C163.008 82.3332 162.463 81.5552 162.607 80.7394C163.194 77.4147 163.5 73.9934 163.5 70.5C163.5 37.9268 136.873 11.5 104 11.5Z" fill="#85B5FF"/>
<path fill-rule="evenodd" clip-rule="evenodd" d="M104 11.5C71.1274 11.5 44.5 37.9268 44.5 70.5C44.5 102.582 70.3311 128.702 102.518 129.482H103.507C104.336 129.482 105.007 130.154 105.007 130.982C105.007 131.81 104.336 132.482 103.507 132.482H102.482L102.464 132.482C68.6668 131.673 41.5 104.244 41.5 70.5C41.5 36.2467 69.4939 8.5 104 8.5C138.506 8.5 166.5 36.2467 166.5 70.5C166.5 71.3284 165.828 72 165 72C164.172 72 163.5 71.3284 163.5 70.5C163.5 37.9268 136.873 11.5 104 11.5Z" fill="#85B5FF"/>
<path opacity="0.3" fill-rule="evenodd" clip-rule="evenodd" d="M102.616 4.5C66.6722 4.5 37.5 34.0305 37.5 70.5C37.5 106.969 66.6722 136.5 102.616 136.5C103.445 136.5 104.116 137.172 104.116 138C104.116 138.828 103.445 139.5 102.616 139.5C64.9782 139.5 34.5 108.589 34.5 70.5C34.5 32.411 64.9782 1.5 102.616 1.5C121.578 1.5 138.729 9.34981 151.074 22.007C151.652 22.6001 151.64 23.5497 151.047 24.1282C150.454 24.7066 149.505 24.6947 148.926 24.1017C137.118 11.9951 120.731 4.5 102.616 4.5Z" fill="#85B5FF"/>
<path opacity="0.3" fill-rule="evenodd" clip-rule="evenodd" d="M140.5 70.4912C140.5 71.3196 139.828 71.9912 139 71.9912L104 71.9912C103.172 71.9912 102.5 71.3196 102.5 70.4912C102.5 69.6628 103.172 68.9912 104 68.9912L139 68.9912C139.828 68.9912 140.5 69.6628 140.5 70.4912Z" fill="#85B5FF"/>
<path opacity="0.3" fill-rule="evenodd" clip-rule="evenodd" d="M104 93C103.172 93 102.5 92.3284 102.5 91.5L102.5 70.5C102.5 69.6716 103.172 69 104 69C104.828 69 105.5 69.6716 105.5 70.5L105.5 91.5C105.5 92.3284 104.828 93 104 93Z" fill="#85B5FF"/>
<path fill-rule="evenodd" clip-rule="evenodd" d="M104 132.108C103.448 132.108 103 131.66 103 131.108L103 122.108C103 121.556 103.448 121.108 104 121.108C104.552 121.108 105 121.556 105 122.108L105 131.108C105 131.66 104.552 132.108 104 132.108Z" fill="#85B5FF"/>
<path fill-rule="evenodd" clip-rule="evenodd" d="M74.1961 124.154C73.7178 123.878 73.5539 123.267 73.8301 122.788L75.3301 120.19C75.6062 119.712 76.2178 119.548 76.6961 119.824C77.1744 120.1 77.3383 120.712 77.0622 121.19L75.5621 123.788C75.286 124.267 74.6744 124.43 74.1961 124.154Z" fill="#85B5FF"/>
<path fill-rule="evenodd" clip-rule="evenodd" d="M50.4596 99.8393C50.2058 99.3488 50.3976 98.7454 50.8881 98.4916L53.5525 97.1128C54.043 96.8589 54.6464 97.0508 54.9002 97.5413C55.1541 98.0318 54.9622 98.6352 54.4717 98.889L51.8073 100.268C51.3168 100.522 50.7134 100.33 50.4596 99.8393Z" fill="#85B5FF"/>
<path fill-rule="evenodd" clip-rule="evenodd" d="M50.5 40.7698C50.7761 40.2915 51.3877 40.1277 51.866 40.4038L54.4641 41.9038C54.9424 42.1799 55.1063 42.7915 54.8301 43.2698C54.554 43.7481 53.9424 43.912 53.4641 43.6358L50.866 42.1358C50.3877 41.8597 50.2238 41.2481 50.5 40.7698Z" fill="#85B5FF"/>
<path fill-rule="evenodd" clip-rule="evenodd" d="M73.8892 17.4596C74.3797 17.2058 74.9831 17.3976 75.237 17.8881L76.6158 20.5525C76.8696 21.043 76.6778 21.6464 76.1873 21.9002C75.6968 22.154 75.0934 21.9622 74.8395 21.4717L73.4607 18.8073C73.2069 18.3168 73.3987 17.7134 73.8892 17.4596Z" fill="#85B5FF"/>
<path fill-rule="evenodd" clip-rule="evenodd" d="M104 21C103.448 21 103 20.5523 103 20L103 10C103 9.44771 103.448 9 104 9C104.552 9 105 9.44771 105 10L105 20C105 20.5523 104.552 21 104 21Z" fill="#85B5FF"/>
<path fill-rule="evenodd" clip-rule="evenodd" d="M131.866 21.5C131.388 21.2239 131.224 20.6123 131.5 20.134L133 17.5359C133.276 17.0576 133.888 16.8937 134.366 17.1699C134.844 17.446 135.008 18.0576 134.732 18.5359L133.232 21.134C132.956 21.6123 132.344 21.7761 131.866 21.5Z" fill="#85B5FF"/>
<path fill-rule="evenodd" clip-rule="evenodd" d="M43.0625 71C43.0625 70.4477 43.5102 70 44.0625 70H53.0625C53.6148 70 54.0625 70.4477 54.0625 71C54.0625 71.5523 53.6148 72 53.0625 72H44.0625C43.5102 72 43.0625 71.5523 43.0625 71Z" fill="#85B5FF"/>
<circle cx="165.07" cy="70.4912" r="5" fill="#85B5FF"/>
<path d="M76.5203 83.66C75.7283 83.66 74.8923 83.6013 74.0123 83.484C73.1323 83.396 72.2816 83.264 71.4603 83.088C70.6389 82.912 69.8909 82.7213 69.2163 82.516C68.5416 82.3107 68.0136 82.12 67.6323 81.944L68.9083 76.488C69.6709 76.8107 70.6389 77.1627 71.8123 77.544C73.0149 77.896 74.4963 78.072 76.2563 78.072C78.2803 78.072 79.7616 77.6907 80.7003 76.928C81.6389 76.1653 82.1083 75.1387 82.1083 73.848C82.1083 73.056 81.9323 72.396 81.5803 71.868C81.2576 71.3107 80.8029 70.8707 80.2163 70.548C79.6296 70.196 78.9256 69.9613 78.1043 69.844C77.3123 69.6973 76.4616 69.624 75.5523 69.624H73.0003V64.344H75.9043C76.5496 64.344 77.1656 64.2853 77.7523 64.168C78.3683 64.0507 78.9109 63.86 79.3803 63.596C79.8496 63.3027 80.2163 62.9213 80.4803 62.452C80.7736 61.9533 80.9203 61.3373 80.9203 60.604C80.9203 60.0467 80.8029 59.5627 80.5683 59.152C80.3336 58.7413 80.0256 58.404 79.6443 58.14C79.2923 57.876 78.8669 57.6853 78.3683 57.568C77.8989 57.4213 77.4149 57.348 76.9163 57.348C75.6549 57.348 74.4816 57.5387 73.3963 57.92C72.3403 58.3013 71.3723 58.7707 70.4923 59.328L68.1603 54.532C68.6296 54.2387 69.1723 53.9307 69.7883 53.608C70.4336 53.2853 71.1376 52.992 71.9003 52.728C72.6629 52.464 73.4696 52.244 74.3203 52.068C75.2003 51.892 76.1243 51.804 77.0923 51.804C78.8816 51.804 80.4216 52.024 81.7123 52.464C83.0323 52.8747 84.1176 53.476 84.9683 54.268C85.8189 55.0307 86.4496 55.94 86.8603 56.996C87.2709 58.0227 87.4763 59.152 87.4763 60.384C87.4763 61.5867 87.1389 62.76 86.4643 63.904C85.7896 65.0187 84.8803 65.8693 83.7363 66.456C85.3203 67.1013 86.5376 68.0693 87.3883 69.36C88.2683 70.6213 88.7083 72.1467 88.7083 73.936C88.7083 75.344 88.4736 76.6493 88.0043 77.852C87.5349 79.0253 86.8016 80.052 85.8043 80.932C84.8069 81.7827 83.5309 82.4573 81.9763 82.956C80.4509 83.4253 78.6323 83.66 76.5203 83.66ZM113.32 60.516C113.32 61.6307 113.1 62.7013 112.66 63.728C112.22 64.7547 111.648 65.752 110.944 66.72C110.24 67.6587 109.448 68.568 108.568 69.448C107.688 70.328 106.823 71.164 105.972 71.956C105.532 72.3667 105.048 72.836 104.52 73.364C104.021 73.8627 103.537 74.376 103.068 74.904C102.599 75.432 102.173 75.9307 101.792 76.4C101.44 76.84 101.22 77.2067 101.132 77.5H114.244V83H93.9161C93.8574 82.6773 93.8281 82.2667 93.8281 81.768C93.8281 81.2693 93.8281 80.9173 93.8281 80.712C93.8281 79.304 94.0481 78.0133 94.4881 76.84C94.9574 75.6667 95.5588 74.5813 96.2921 73.584C97.0254 72.5573 97.8468 71.604 98.7561 70.724C99.6948 69.844 100.619 68.964 101.528 68.084C102.232 67.4093 102.892 66.7787 103.508 66.192C104.124 65.576 104.667 64.9893 105.136 64.432C105.605 63.8453 105.972 63.2733 106.236 62.716C106.5 62.1293 106.632 61.5427 106.632 60.956C106.632 59.6653 106.265 58.756 105.532 58.228C104.799 57.7 103.889 57.436 102.804 57.436C102.012 57.436 101.264 57.568 100.56 57.832C99.8854 58.0667 99.2548 58.36 98.6681 58.712C98.1108 59.0347 97.6268 59.372 97.2161 59.724C96.8054 60.0467 96.4974 60.3107 96.2921 60.516L93.0361 55.94C94.3268 54.7373 95.8228 53.7547 97.5241 52.992C99.2548 52.2 101.103 51.804 103.068 51.804C104.857 51.804 106.397 52.0093 107.688 52.42C108.979 52.8307 110.035 53.4173 110.856 54.18C111.707 54.9133 112.323 55.8227 112.704 56.908C113.115 57.964 113.32 59.1667 113.32 60.516ZM140 67.688C140 72.8213 139.017 76.7667 137.052 79.524C135.116 82.252 132.432 83.616 129 83.616C125.568 83.616 122.869 82.252 120.904 79.524C118.968 76.7667 118 72.8213 118 67.688C118 65.136 118.249 62.8773 118.748 60.912C119.276 58.9467 120.024 57.2893 120.992 55.94C121.96 54.5907 123.119 53.564 124.468 52.86C125.817 52.156 127.328 51.804 129 51.804C132.432 51.804 135.116 53.1827 137.052 55.94C139.017 58.668 140 62.584 140 67.688ZM133.312 67.688C133.312 66.1627 133.239 64.784 133.092 63.552C132.945 62.2907 132.711 61.2053 132.388 60.296C132.065 59.3867 131.625 58.6827 131.068 58.184C130.511 57.6853 129.821 57.436 129 57.436C128.179 57.436 127.489 57.6853 126.932 58.184C126.404 58.6827 125.964 59.3867 125.612 60.296C125.289 61.2053 125.055 62.2907 124.908 63.552C124.761 64.784 124.688 66.1627 124.688 67.688C124.688 69.2133 124.761 70.6067 124.908 71.868C125.055 73.1293 125.289 74.2147 125.612 75.124C125.964 76.0333 126.404 76.7373 126.932 77.236C127.489 77.7347 128.179 77.984 129 77.984C129.821 77.984 130.511 77.7347 131.068 77.236C131.625 76.7373 132.065 76.0333 132.388 75.124C132.711 74.2147 132.945 73.1293 133.092 71.868C133.239 70.6067 133.312 69.2133 133.312 67.688Z" fill="#464547"/>
</svg>
