<svg width="224" height="140" viewBox="0 0 224 140" fill="none" xmlns="http://www.w3.org/2000/svg">
<path d="M113.898 106.664C113.898 107.461 113.602 108.076 113.008 108.508C112.414 108.94 111.581 109.156 110.508 109.156C109.372 109.156 108.487 108.977 107.852 108.617V107.414C108.263 107.622 108.703 107.786 109.172 107.906C109.646 108.026 110.102 108.086 110.539 108.086C111.216 108.086 111.737 107.979 112.102 107.766C112.466 107.547 112.648 107.216 112.648 106.773C112.648 106.44 112.503 106.156 112.211 105.922C111.924 105.682 111.362 105.401 110.523 105.078C109.727 104.781 109.159 104.523 108.82 104.305C108.487 104.081 108.237 103.828 108.07 103.547C107.909 103.266 107.828 102.93 107.828 102.539C107.828 101.841 108.112 101.292 108.68 100.891C109.247 100.484 110.026 100.281 111.016 100.281C111.938 100.281 112.839 100.469 113.719 100.844L113.258 101.898C112.398 101.544 111.62 101.367 110.922 101.367C110.307 101.367 109.844 101.464 109.531 101.656C109.219 101.849 109.062 102.115 109.062 102.453C109.062 102.682 109.12 102.878 109.234 103.039C109.354 103.201 109.544 103.354 109.805 103.5C110.065 103.646 110.565 103.857 111.305 104.133C112.32 104.503 113.005 104.875 113.359 105.25C113.719 105.625 113.898 106.096 113.898 106.664ZM119.633 109.156C118.367 109.156 117.367 108.771 116.633 108C115.904 107.229 115.539 106.159 115.539 104.789C115.539 103.409 115.878 102.312 116.555 101.5C117.237 100.688 118.151 100.281 119.297 100.281C120.37 100.281 121.219 100.635 121.844 101.344C122.469 102.047 122.781 102.977 122.781 104.133V104.953H116.883C116.909 105.958 117.161 106.721 117.641 107.242C118.125 107.763 118.805 108.023 119.68 108.023C120.602 108.023 121.513 107.831 122.414 107.445V108.602C121.956 108.799 121.521 108.94 121.109 109.023C120.703 109.112 120.211 109.156 119.633 109.156ZM119.281 101.367C118.594 101.367 118.044 101.591 117.633 102.039C117.227 102.487 116.987 103.107 116.914 103.898H121.391C121.391 103.081 121.208 102.456 120.844 102.023C120.479 101.586 119.958 101.367 119.281 101.367ZM128.906 100.281C129.286 100.281 129.628 100.312 129.93 100.375L129.75 101.578C129.396 101.5 129.083 101.461 128.812 101.461C128.12 101.461 127.526 101.742 127.031 102.305C126.542 102.867 126.297 103.568 126.297 104.406V109H125V100.438H126.07L126.219 102.023H126.281C126.599 101.466 126.982 101.036 127.43 100.734C127.878 100.432 128.37 100.281 128.906 100.281ZM133.406 109L130.156 100.438H131.547L133.391 105.516C133.807 106.703 134.052 107.474 134.125 107.828H134.188C134.245 107.552 134.424 106.982 134.727 106.117C135.034 105.247 135.719 103.354 136.781 100.438H138.172L134.922 109H133.406ZM140.844 109H139.547V100.438H140.844V109ZM139.438 98.1172C139.438 97.8203 139.51 97.6042 139.656 97.4688C139.802 97.3281 139.984 97.2578 140.203 97.2578C140.411 97.2578 140.591 97.3281 140.742 97.4688C140.893 97.6094 140.969 97.8255 140.969 98.1172C140.969 98.4089 140.893 98.6276 140.742 98.7734C140.591 98.9141 140.411 98.9844 140.203 98.9844C139.984 98.9844 139.802 98.9141 139.656 98.7734C139.51 98.6276 139.438 98.4089 139.438 98.1172ZM147.016 109.156C145.776 109.156 144.815 108.776 144.133 108.016C143.456 107.25 143.117 106.169 143.117 104.773C143.117 103.341 143.461 102.234 144.148 101.453C144.841 100.672 145.826 100.281 147.102 100.281C147.513 100.281 147.924 100.326 148.336 100.414C148.747 100.503 149.07 100.607 149.305 100.727L148.906 101.828C148.62 101.714 148.307 101.62 147.969 101.547C147.63 101.469 147.331 101.43 147.07 101.43C145.331 101.43 144.461 102.539 144.461 104.758C144.461 105.81 144.672 106.617 145.094 107.18C145.521 107.742 146.151 108.023 146.984 108.023C147.698 108.023 148.43 107.87 149.18 107.562V108.711C148.607 109.008 147.885 109.156 147.016 109.156ZM154.836 109.156C153.57 109.156 152.57 108.771 151.836 108C151.107 107.229 150.742 106.159 150.742 104.789C150.742 103.409 151.081 102.312 151.758 101.5C152.44 100.688 153.354 100.281 154.5 100.281C155.573 100.281 156.422 100.635 157.047 101.344C157.672 102.047 157.984 102.977 157.984 104.133V104.953H152.086C152.112 105.958 152.365 106.721 152.844 107.242C153.328 107.763 154.008 108.023 154.883 108.023C155.805 108.023 156.716 107.831 157.617 107.445V108.602C157.159 108.799 156.724 108.94 156.312 109.023C155.906 109.112 155.414 109.156 154.836 109.156ZM154.484 101.367C153.797 101.367 153.247 101.591 152.836 102.039C152.43 102.487 152.19 103.107 152.117 103.898H156.594C156.594 103.081 156.411 102.456 156.047 102.023C155.682 101.586 155.161 101.367 154.484 101.367ZM170.219 109V103.461C170.219 102.763 170.06 102.242 169.742 101.898C169.424 101.555 168.927 101.383 168.25 101.383C167.349 101.383 166.69 101.628 166.273 102.117C165.862 102.607 165.656 103.409 165.656 104.523V109H164.359V96.8438H165.656V100.523C165.656 100.966 165.635 101.333 165.594 101.625H165.672C165.927 101.214 166.289 100.891 166.758 100.656C167.232 100.417 167.771 100.297 168.375 100.297C169.422 100.297 170.206 100.547 170.727 101.047C171.253 101.542 171.516 102.331 171.516 103.414V109H170.219ZM181.578 104.711C181.578 106.107 181.227 107.198 180.523 107.984C179.82 108.766 178.849 109.156 177.609 109.156C176.844 109.156 176.164 108.977 175.57 108.617C174.977 108.258 174.518 107.742 174.195 107.07C173.872 106.398 173.711 105.612 173.711 104.711C173.711 103.315 174.06 102.229 174.758 101.453C175.456 100.672 176.424 100.281 177.664 100.281C178.862 100.281 179.812 100.68 180.516 101.477C181.224 102.273 181.578 103.352 181.578 104.711ZM175.055 104.711C175.055 105.805 175.273 106.638 175.711 107.211C176.148 107.784 176.792 108.07 177.641 108.07C178.49 108.07 179.133 107.786 179.57 107.219C180.013 106.646 180.234 105.81 180.234 104.711C180.234 103.622 180.013 102.797 179.57 102.234C179.133 101.667 178.484 101.383 177.625 101.383C176.776 101.383 176.135 101.661 175.703 102.219C175.271 102.776 175.055 103.607 175.055 104.711ZM185.078 100.438V105.992C185.078 106.69 185.237 107.211 185.555 107.555C185.872 107.898 186.37 108.07 187.047 108.07C187.943 108.07 188.596 107.826 189.008 107.336C189.424 106.846 189.633 106.047 189.633 104.938V100.438H190.93V109H189.859L189.672 107.852H189.602C189.336 108.273 188.966 108.596 188.492 108.82C188.023 109.044 187.487 109.156 186.883 109.156C185.841 109.156 185.06 108.909 184.539 108.414C184.023 107.919 183.766 107.128 183.766 106.039V100.438H185.078ZM197.594 100.281C197.974 100.281 198.315 100.312 198.617 100.375L198.438 101.578C198.083 101.5 197.771 101.461 197.5 101.461C196.807 101.461 196.214 101.742 195.719 102.305C195.229 102.867 194.984 103.568 194.984 104.406V109H193.688V100.438H194.758L194.906 102.023H194.969C195.286 101.466 195.669 101.036 196.117 100.734C196.565 100.432 197.057 100.281 197.594 100.281ZM205.742 106.664C205.742 107.461 205.445 108.076 204.852 108.508C204.258 108.94 203.424 109.156 202.352 109.156C201.216 109.156 200.331 108.977 199.695 108.617V107.414C200.107 107.622 200.547 107.786 201.016 107.906C201.49 108.026 201.945 108.086 202.383 108.086C203.06 108.086 203.581 107.979 203.945 107.766C204.31 107.547 204.492 107.216 204.492 106.773C204.492 106.44 204.346 106.156 204.055 105.922C203.768 105.682 203.206 105.401 202.367 105.078C201.57 104.781 201.003 104.523 200.664 104.305C200.331 104.081 200.081 103.828 199.914 103.547C199.753 103.266 199.672 102.93 199.672 102.539C199.672 101.841 199.956 101.292 200.523 100.891C201.091 100.484 201.87 100.281 202.859 100.281C203.781 100.281 204.682 100.469 205.562 100.844L205.102 101.898C204.242 101.544 203.464 101.367 202.766 101.367C202.151 101.367 201.688 101.464 201.375 101.656C201.062 101.849 200.906 102.115 200.906 102.453C200.906 102.682 200.964 102.878 201.078 103.039C201.198 103.201 201.388 103.354 201.648 103.5C201.909 103.646 202.409 103.857 203.148 104.133C204.164 104.503 204.849 104.875 205.203 105.25C205.562 105.625 205.742 106.096 205.742 106.664Z" fill="#73818E"/>
<ellipse opacity="0.1" cx="92.5008" cy="59.5" rx="59.5008" ry="59.5" fill="#85B5FF"/>
<path opacity="0.3" fill-rule="evenodd" clip-rule="evenodd" d="M104 11.5C71.1274 11.5 44.5 37.9268 44.5 70.5C44.5 103.073 71.1274 129.5 104 129.5C104.828 129.5 105.5 130.172 105.5 131C105.5 131.828 104.828 132.5 104 132.5C69.4939 132.5 41.5 104.753 41.5 70.5C41.5 36.2467 69.4939 8.5 104 8.5C138.506 8.5 166.5 36.2467 166.5 70.5C166.5 74.169 166.179 77.7647 165.562 81.2606C165.418 82.0764 164.64 82.6211 163.824 82.4772C163.008 82.3332 162.463 81.5552 162.607 80.7394C163.194 77.4147 163.5 73.9934 163.5 70.5C163.5 37.9268 136.873 11.5 104 11.5Z" fill="#85B5FF"/>
<path opacity="0.3" fill-rule="evenodd" clip-rule="evenodd" d="M102.616 4.5C66.6722 4.5 37.5 34.0305 37.5 70.5C37.5 106.969 66.6722 136.5 102.616 136.5C103.445 136.5 104.116 137.172 104.116 138C104.116 138.828 103.445 139.5 102.616 139.5C64.9782 139.5 34.5 108.589 34.5 70.5C34.5 32.411 64.9782 1.5 102.616 1.5C121.578 1.5 138.729 9.34981 151.074 22.007C151.652 22.6001 151.64 23.5497 151.047 24.1282C150.454 24.7066 149.505 24.6947 148.926 24.1017C137.118 11.9951 120.731 4.5 102.616 4.5Z" fill="#85B5FF"/>
<path opacity="0.3" fill-rule="evenodd" clip-rule="evenodd" d="M104 107C103.172 107 102.5 106.328 102.5 105.5L102.5 70.5C102.5 69.6716 103.172 69 104 69C104.828 69 105.5 69.6716 105.5 70.5L105.5 105.5C105.5 106.328 104.828 107 104 107Z" fill="#85B5FF"/>
<path opacity="0.3" fill-rule="evenodd" clip-rule="evenodd" d="M104 93C103.172 93 102.5 92.3284 102.5 91.5L102.5 70.5C102.5 69.6716 103.172 69 104 69C104.828 69 105.5 69.6716 105.5 70.5L105.5 91.5C105.5 92.3284 104.828 93 104 93Z" fill="#85B5FF"/>
<path fill-rule="evenodd" clip-rule="evenodd" d="M104 132C103.448 132 103 131.552 103 131L103 122C103 121.448 103.448 121 104 121C104.552 121 105 121.448 105 122L105 131C105 131.552 104.552 132 104 132Z" fill="#85B5FF"/>
<path fill-rule="evenodd" clip-rule="evenodd" d="M74.1961 124.154C73.7178 123.878 73.5539 123.267 73.8301 122.788L75.3301 120.19C75.6062 119.712 76.2178 119.548 76.6961 119.824C77.1744 120.1 77.3383 120.712 77.0622 121.19L75.5621 123.788C75.286 124.267 74.6744 124.43 74.1961 124.154Z" fill="#85B5FF"/>
<path fill-rule="evenodd" clip-rule="evenodd" d="M50.4596 99.8393C50.2058 99.3488 50.3976 98.7454 50.8881 98.4916L53.5525 97.1128C54.043 96.8589 54.6464 97.0508 54.9002 97.5413C55.1541 98.0318 54.9622 98.6352 54.4717 98.889L51.8073 100.268C51.3168 100.522 50.7134 100.33 50.4596 99.8393Z" fill="#85B5FF"/>
<path fill-rule="evenodd" clip-rule="evenodd" d="M50.5 40.7698C50.7761 40.2915 51.3877 40.1277 51.866 40.4038L54.4641 41.9038C54.9424 42.1799 55.1063 42.7915 54.8301 43.2698C54.554 43.7481 53.9424 43.912 53.4641 43.6358L50.866 42.1358C50.3877 41.8597 50.2238 41.2481 50.5 40.7698Z" fill="#85B5FF"/>
<path fill-rule="evenodd" clip-rule="evenodd" d="M73.8892 17.4596C74.3797 17.2058 74.9831 17.3976 75.237 17.8881L76.6158 20.5525C76.8696 21.043 76.6778 21.6464 76.1873 21.9002C75.6968 22.154 75.0934 21.9622 74.8395 21.4717L73.4607 18.8073C73.2069 18.3168 73.3987 17.7134 73.8892 17.4596Z" fill="#85B5FF"/>
<path fill-rule="evenodd" clip-rule="evenodd" d="M104 21C103.448 21 103 20.5523 103 20L103 11C103 10.4477 103.448 10 104 10C104.552 10 105 10.4477 105 11L105 20C105 20.5523 104.552 21 104 21Z" fill="#85B5FF"/>
<path fill-rule="evenodd" clip-rule="evenodd" d="M131.866 21.5C131.388 21.2239 131.224 20.6123 131.5 20.134L133 17.5359C133.276 17.0576 133.888 16.8937 134.366 17.1699C134.844 17.446 135.008 18.0576 134.732 18.5359L133.232 21.134C132.956 21.6123 132.344 21.7761 131.866 21.5Z" fill="#85B5FF"/>
<path fill-rule="evenodd" clip-rule="evenodd" d="M43.0625 70.5C43.0625 69.9477 43.5102 69.5 44.0625 69.5H53.0625C53.6148 69.5 54.0625 69.9477 54.0625 70.5C54.0625 71.0523 53.6148 71.5 53.0625 71.5H44.0625C43.5102 71.5 43.0625 71.0523 43.0625 70.5Z" fill="#85B5FF"/>
<circle cx="104" cy="131" r="5" fill="#85B5FF"/>
<path d="M114.992 67.688C114.992 72.8213 114.009 76.7667 112.044 79.524C110.108 82.252 107.424 83.616 103.992 83.616C100.56 83.616 97.8614 82.252 95.8961 79.524C93.9601 76.7667 92.9921 72.8213 92.9921 67.688C92.9921 65.136 93.2414 62.8773 93.7401 60.912C94.2681 58.9467 95.0161 57.2893 95.9841 55.94C96.9521 54.5907 98.1108 53.564 99.4601 52.86C100.809 52.156 102.32 51.804 103.992 51.804C107.424 51.804 110.108 53.1827 112.044 55.94C114.009 58.668 114.992 62.584 114.992 67.688ZM108.304 67.688C108.304 66.1627 108.231 64.784 108.084 63.552C107.937 62.2907 107.703 61.2053 107.38 60.296C107.057 59.3867 106.617 58.6827 106.06 58.184C105.503 57.6853 104.813 57.436 103.992 57.436C103.171 57.436 102.481 57.6853 101.924 58.184C101.396 58.6827 100.956 59.3867 100.604 60.296C100.281 61.2053 100.047 62.2907 99.9001 63.552C99.7534 64.784 99.6801 66.1627 99.6801 67.688C99.6801 69.2133 99.7534 70.6067 99.9001 71.868C100.047 73.1293 100.281 74.2147 100.604 75.124C100.956 76.0333 101.396 76.7373 101.924 77.236C102.481 77.7347 103.171 77.984 103.992 77.984C104.813 77.984 105.503 77.7347 106.06 77.236C106.617 76.7373 107.057 76.0333 107.38 75.124C107.703 74.2147 107.937 73.1293 108.084 71.868C108.231 70.6067 108.304 69.2133 108.304 67.688Z" fill="#464547"/>
</svg>
