<svg width="124" height="124" viewBox="0 0 124 124" fill="none" xmlns="http://www.w3.org/2000/svg">
<path d="M55.5952 2.65296C59.1325 -0.88432 64.8675 -0.884318 68.4048 2.65296L121.347 55.5952C124.884 59.1325 124.884 64.8675 121.347 68.4048L68.4048 121.347C64.8675 124.884 59.1325 124.884 55.5952 121.347L2.65296 68.4048C-0.88432 64.8675 -0.884318 59.1325 2.65296 55.5952L55.5952 2.65296Z" fill="#35D39A"/>
<path fill-rule="evenodd" clip-rule="evenodd" d="M73 56C77.9706 56 82 51.9706 82 47C82 42.0294 77.9706 38 73 38C68.0294 38 64 42.0294 64 47C64 47.5437 64.0482 48.0761 64.1406 48.5933L54.3463 54.2715C52.6199 52.8521 50.4094 52 48 52C42.4772 52 38 56.4772 38 62C38 67.5228 42.4772 72 48 72C50.2801 72 52.382 71.2369 54.0641 69.9522L64.0397 76.1486C64.0134 76.4288 64 76.7129 64 77C64 81.9706 68.0294 86 73 86C77.9706 86 82 81.9706 82 77C82 72.0294 77.9706 68 73 68C70.1305 68 67.5746 69.3429 65.9266 71.4346L57.17 65.9953C57.7039 64.7716 58 63.4204 58 62C58 60.7061 57.7543 59.4696 57.3069 58.3346L66.3664 53.0824C68.0116 54.8758 70.3745 56 73 56ZM48 67C50.7614 67 53 64.7614 53 62C53 59.2386 50.7614 57 48 57C45.2386 57 43 59.2386 43 62C43 64.7614 45.2386 67 48 67Z" fill="#18181A"/>
</svg>
