<svg width="124" height="124" viewBox="0 0 124 124" fill="none" xmlns="http://www.w3.org/2000/svg">
<path d="M55.5952 2.65296C59.1325 -0.88432 64.8675 -0.884318 68.4048 2.65296L121.347 55.5952C124.884 59.1325 124.884 64.8675 121.347 68.4048L68.4048 121.347C64.8675 124.884 59.1325 124.884 55.5952 121.347L2.65296 68.4048C-0.88432 64.8675 -0.884318 59.1325 2.65296 55.5952L55.5952 2.65296Z" fill="#85B5FF"/>
<path d="M62 84C71.9411 84 80 80.8822 80 77.0363L76.2442 53.6951C76.1224 52.9384 75.2204 52.5859 74.5496 52.9567C72.4171 54.1357 69.0175 54.9845 62 54.9845C54.9825 54.9845 51.5829 54.1357 49.4504 52.9567C48.7796 52.5859 47.8776 52.9384 47.7558 53.6951L44 77.0363C44 80.8822 52.0589 84 62 84Z" fill="#18181A"/>
<path fill-rule="evenodd" clip-rule="evenodd" d="M62 62C75.2548 62 86 57.0751 86 51C86 44.9249 75.2548 40 62 40C48.7452 40 38 44.9249 38 51C38 57.0751 48.7452 62 62 62ZM62 55C69.1797 55 75 52.9853 75 50.5C75 48.0147 69.1797 46 62 46C54.8203 46 49 48.0147 49 50.5C49 52.9853 54.8203 55 62 55Z" fill="#18181A"/>
</svg>
