<svg width="124" height="124" viewBox="0 0 124 124" fill="none" xmlns="http://www.w3.org/2000/svg">
<path d="M55.5952 2.65296C59.1325 -0.88432 64.8675 -0.884318 68.4048 2.65296L121.347 55.5952C124.884 59.1325 124.884 64.8675 121.347 68.4048L68.4048 121.347C64.8675 124.884 59.1325 124.884 55.5952 121.347L2.65296 68.4048C-0.88432 64.8675 -0.884318 59.1325 2.65296 55.5952L55.5952 2.65296Z" fill="#FF6492"/>
<path fill-rule="evenodd" clip-rule="evenodd" d="M55 40.5C55 39.1193 56.1193 38 57.5 38C58.8807 38 60 39.1193 60 40.5V46H64V40.5C64 39.1193 65.1193 38 66.5 38C67.8807 38 69 39.1193 69 40.5V46H76C77.1046 46 78 46.8954 78 48V55H83.5C84.8807 55 86 56.1193 86 57.5C86 58.8807 84.8807 60 83.5 60H78V63H83.5C84.8807 63 86 64.1193 86 65.5C86 66.8807 84.8807 68 83.5 68H78V76C78 77.1046 77.1046 78 76 78H69V83.5C69 84.8807 67.8807 86 66.5 86C65.1193 86 64 84.8807 64 83.5V78H60V83.5C60 84.8807 58.8807 86 57.5 86C56.1193 86 55 84.8807 55 83.5V78H48C46.8954 78 46 77.1046 46 76V68H40.5C39.1193 68 38 66.8807 38 65.5C38 64.1193 39.1193 63 40.5 63H46V60H40.5C39.1193 60 38 58.8807 38 57.5C38 56.1193 39.1193 55 40.5 55H46V48C46 46.8954 46.8954 46 48 46H55V40.5ZM58 56C56.8954 56 56 56.8954 56 58V66C56 67.1046 56.8954 68 58 68H66C67.1046 68 68 67.1046 68 66V58C68 56.8954 67.1046 56 66 56H58Z" fill="#18181A"/>
</svg>
