<svg width="124" height="124" viewBox="0 0 124 124" fill="none" xmlns="http://www.w3.org/2000/svg">
<path d="M55.5952 2.65296C59.1325 -0.88432 64.8675 -0.884318 68.4048 2.65296L121.347 55.5952C124.884 59.1325 124.884 64.8675 121.347 68.4048L68.4048 121.347C64.8675 124.884 59.1325 124.884 55.5952 121.347L2.65296 68.4048C-0.88432 64.8675 -0.884318 59.1325 2.65296 55.5952L55.5952 2.65296Z" fill="#F59A3C"/>
<path d="M83 57V48H71C71 48 69 47.5 69 46C69 44.5 72 43.4806 72 41C72 38.7909 70.2091 36 66 36C61.7909 36 60 38.7909 60 41C60 43.4806 63 44.5 63 46C63 47.5 61 48 61 48H47V61C47 61 46.5 63 45 63C43.5 63 42.4806 60 40 60C37.7909 60 35 61.7909 35 66C35 70.2091 37.7909 72 40 72C42.4806 72 43.5 69 45 69C46.5 69 47 71 47 71V84H59C59 84 61 83.5 61 82C61 80.5 58 79.4806 58 77C58 74.7909 59.7909 72 64 72C68.2091 72 70 74.7909 70 77C70 79.4806 67 80.5 67 82C67 83.5 69 84 69 84H83V75V67C83 67 82.5 65 81 65C79.5 65 78.4806 68 76 68C73.7909 68 71 66.2091 71 62C71 57.7909 73.7909 56 76 56C78.4806 56 79.5 59 81 59C82.5 59 83 57 83 57Z" fill="#080E1D"/>
</svg>
