<svg width="64" height="64" viewBox="0 0 64 64" fill="none" xmlns="http://www.w3.org/2000/svg">
<path d="M54.5005 15.125C54.5005 20.7169 49.9674 25.25 44.3755 25.25C41.4218 25.25 38.7635 23.9852 36.9126 21.9676L26.7206 27.8764C26.0128 26.0809 24.8566 24.5112 23.3899 23.3054L34.4087 16.9173C34.3048 16.3356 34.2505 15.7366 34.2505 15.125C34.2505 9.53312 38.7837 5 44.3755 5C49.9674 5 54.5005 9.53312 54.5005 15.125Z" fill="#35D39A"/>
<path d="M23.0725 40.9461C24.585 39.7909 25.7959 38.2609 26.5665 36.4946L36.418 42.6139C38.272 40.2608 41.1473 38.75 44.3755 38.75C49.9674 38.75 54.5005 43.2831 54.5005 48.875C54.5005 54.4669 49.9674 59 44.3755 59C38.7837 59 34.2505 54.4669 34.2505 48.875C34.2505 48.552 34.2657 48.2325 34.2952 47.9172L23.0725 40.9461Z" fill="#35D39A"/>
<path fill-rule="evenodd" clip-rule="evenodd" d="M27.5 32C27.5 38.2132 22.4632 43.25 16.25 43.25C10.0368 43.25 5 38.2132 5 32C5 25.7868 10.0368 20.75 16.25 20.75C22.4632 20.75 27.5 25.7868 27.5 32ZM21.875 32C21.875 35.1066 19.3566 37.625 16.25 37.625C13.1434 37.625 10.625 35.1066 10.625 32C10.625 28.8934 13.1434 26.375 16.25 26.375C19.3566 26.375 21.875 28.8934 21.875 32Z" fill="#35D39A"/>
</svg>
