<svg width="48" height="45" viewBox="0 0 48 45" fill="none" xmlns="http://www.w3.org/2000/svg">
<path d="M30.4948 38.3905L47.7936 17.1972C48.3481 16.5179 47.7006 15.528 46.856 15.7638L41.5595 17.2422C41.3816 17.2918 41.2233 17.3951 41.1062 17.538L25.1046 37.0591C24.9729 37.2197 24.901 37.421 24.901 37.6286V40.8533C24.901 41.1537 25.0511 41.4342 25.301 41.6009L28.8956 43.9973C29.4927 44.3953 30.2924 43.9673 30.2924 43.2497L30.2924 38.9586C30.2924 38.7516 30.3639 38.5509 30.4948 38.3905Z" fill="#009DC4"/>
<path d="M17.5052 38.3905L0.206413 17.1972C-0.34807 16.5179 0.299364 15.528 1.14396 15.7638L6.44052 17.2422C6.61843 17.2918 6.77671 17.3951 6.89381 17.538L22.8954 37.0591C23.0271 37.2197 23.099 37.421 23.099 37.6286V40.8533C23.099 41.1537 22.9489 41.4342 22.6989 41.6009L19.1044 43.9973C18.5073 44.3953 17.7076 43.9673 17.7076 43.2497L17.7076 38.9586C17.7076 38.7516 17.6361 38.5509 17.5052 38.3905Z" fill="#009DC4"/>
<path d="M22.5935 0.657076C23.3185 -0.219024 24.6816 -0.219026 25.4066 0.657074L29.885 6.06871C30.425 6.72131 30.425 7.65581 29.885 8.30841L25.4066 13.72C24.6816 14.5961 23.3185 14.5961 22.5935 13.72L18.1151 8.30841C17.575 7.65581 17.575 6.72132 18.1151 6.06871L22.5935 0.657076Z" fill="#009DC4"/>
<path d="M22.5935 20.4256C23.3185 19.5495 24.6816 19.5495 25.4066 20.4256L29.885 25.8373C30.425 26.4899 30.425 27.4244 29.885 28.077L25.4066 33.4886C24.6816 34.3647 23.3185 34.3647 22.5935 33.4886L18.1151 28.077C17.575 27.4244 17.575 26.4899 18.1151 25.8373L22.5935 20.4256Z" fill="#009DC4"/>
<path d="M30.6808 10.5414C31.4058 9.66529 32.7689 9.66529 33.4939 10.5414L37.9723 15.953C38.5124 16.6056 38.5124 17.5401 37.9723 18.1927L33.4939 23.6044C32.7689 24.4805 31.4058 24.4805 30.6808 23.6044L26.2024 18.1927C25.6624 17.5401 25.6624 16.6056 26.2024 15.953L30.6808 10.5414Z" fill="#009DC4"/>
<path d="M14.5059 10.5414C15.2309 9.66529 16.594 9.66529 17.319 10.5414L21.7974 15.953C22.3374 16.6056 22.3374 17.5401 21.7974 18.1927L17.319 23.6044C16.594 24.4805 15.2309 24.4805 14.5059 23.6044L10.0275 18.1927C9.48742 17.5401 9.48742 16.6056 10.0275 15.953L14.5059 10.5414Z" fill="#009DC4"/>
</svg>
