<svg width="42" height="38" viewBox="0 0 42 38" fill="none" xmlns="http://www.w3.org/2000/svg">
<path d="M26.1455 32.9893L40.9771 14.8187C41.4525 14.2363 40.8974 13.3876 40.1733 13.5897L35.6321 14.8572C35.4796 14.8998 35.3439 14.9884 35.2435 15.1109L21.5241 31.8478C21.4112 31.9855 21.3495 32.1581 21.3495 32.3361V35.1009C21.3495 35.3585 21.4782 35.599 21.6925 35.7418L24.7745 37.7964C25.2864 38.1377 25.972 37.7707 25.972 37.1555L25.972 33.4764C25.972 33.2989 26.0333 33.1268 26.1455 32.9893Z" fill="#18181A"/>
<path d="M15.0085 32.9893L0.176974 14.8187C-0.298427 14.2363 0.256667 13.3876 0.980805 13.5897L5.52195 14.8572C5.67449 14.8998 5.81019 14.9884 5.91059 15.1109L19.63 31.8478C19.7429 31.9855 19.8046 32.1581 19.8046 32.3361V35.1009C19.8046 35.3585 19.6758 35.599 19.4615 35.7418L16.3796 37.7964C15.8677 38.1377 15.182 37.7707 15.182 37.1555L15.1821 33.4764C15.1821 33.2989 15.1208 33.1268 15.0085 32.9893Z" fill="#18181A"/>
<path d="M19.3711 0.63758C19.9927 -0.113568 21.1614 -0.113569 21.783 0.637579L25.6227 5.27739C26.0857 5.83692 26.0857 6.63813 25.6227 7.19766L21.783 11.8375C21.1614 12.5886 19.9927 12.5886 19.3711 11.8375L15.5314 7.19766C15.0684 6.63813 15.0684 5.83692 15.5314 5.27739L19.3711 0.63758Z" fill="#18181A"/>
<path d="M19.3711 17.5867C19.9927 16.8355 21.1614 16.8355 21.783 17.5867L25.6227 22.2265C26.0857 22.786 26.0857 23.5872 25.6227 24.1468L21.783 28.7866C21.1614 29.5377 19.9927 29.5377 19.3711 28.7866L15.5314 24.1468C15.0684 23.5872 15.0684 22.786 15.5314 22.2265L19.3711 17.5867Z" fill="#18181A"/>
<path d="M26.305 9.11216C26.9266 8.36101 28.0953 8.36101 28.7169 9.11216L32.5566 13.752C33.0196 14.3115 33.0196 15.1127 32.5566 15.6722L28.7169 20.3121C28.0953 21.0632 26.9266 21.0632 26.305 20.3121L22.4653 15.6722C22.0023 15.1127 22.0023 14.3115 22.4653 13.752L26.305 9.11216Z" fill="#18181A"/>
<path d="M12.437 9.11216C13.0586 8.36101 14.2273 8.36101 14.8489 9.11216L18.6886 13.752C19.1516 14.3115 19.1516 15.1127 18.6886 15.6722L14.8489 20.3121C14.2273 21.0632 13.0586 21.0632 12.437 20.3121L8.59733 15.6722C8.1343 15.1127 8.13429 14.3115 8.59733 13.752L12.437 9.11216Z" fill="#18181A"/>
</svg>
